<svg width="108" height="57" viewBox="0 0 108 57" fill="none" xmlns="http://www.w3.org/2000/svg">
<path d="M97.9333 3.51765C100.849 1.40241 104.356 -0.0230839 108 -9.21189e-05C104.057 1.22614 100.957 4.09628 98.0981 6.96641C96.1476 8.8824 94.2891 10.8903 92.4076 12.8791C93.9174 12.9366 95.4311 12.9098 96.9408 12.906C96.9408 13.1895 96.9408 13.4769 96.9408 13.7605C95.1322 13.7605 93.3235 13.7375 91.511 13.7605C88.1695 17.3702 84.851 21.0144 81.8391 24.9115C80.6162 26.4446 79.5362 28.0864 78.6126 29.8164C78.3553 30.3453 78.2354 30.9304 78.2639 31.5178C79.5399 31.6634 80.6703 30.9698 81.6935 30.3031C84.2889 28.4774 86.7027 26.4063 88.9014 24.1183H90.051C87.1732 27.1838 84.1229 30.2111 80.3063 32.0658C79.0839 32.5869 77.6737 33.0161 76.3632 32.6099C76.0296 32.492 75.7427 32.2702 75.5447 31.977C75.3468 31.6838 75.2482 31.3348 75.2634 30.9813C75.206 29.506 75.8727 28.1533 76.4513 26.8236C73.7192 29.2991 70.6191 31.5178 67.0324 32.5333C66.0629 32.7747 64.7332 33.0659 64.009 32.1807C63.779 31.0081 64.4496 29.9314 65.0743 29.0002C66.8714 26.4021 69.1361 24.1451 70.7532 21.4206L70.4198 21.1562C68.1705 22.4284 66.2277 24.1489 64.3309 25.8886C61.9619 27.9753 59.8159 30.3022 57.9276 32.8322C57.2264 32.6482 56.1266 32.7134 55.935 31.8129C55.6974 30.0425 56.8279 28.5097 57.7054 27.088C54.0382 29.8011 49.961 32.4758 45.2707 32.7708C43.9716 32.8015 42.3239 32.6444 41.6341 31.3607C40.8294 29.8739 41.5843 28.1917 42.2319 26.8007C40.8486 27.4827 39.2852 28.138 37.7409 27.567C35.8556 29.6785 33.7978 31.9087 30.9813 32.6482C29.9313 32.9433 28.5327 32.859 27.9387 31.8014C27.065 30.1689 27.5555 28.2108 28.2299 26.5976C29.0943 24.4918 30.5092 22.6573 32.3263 21.2865C33.7211 20.3093 35.4455 20.1637 37.0665 19.9261C35.4647 21.3976 34.3189 23.2676 33.2345 25.1146C32.1424 27.0727 30.9583 29.05 30.5291 31.2764C30.5943 32.1079 31.4718 31.5753 31.924 31.4258C33.9089 30.4333 35.3459 28.686 36.8519 27.1149C36.5546 26.5435 36.402 25.9081 36.4073 25.264C36.4127 24.62 36.5758 23.9872 36.8825 23.4209C37.6489 22.0873 38.7372 20.7691 40.2585 20.2825C40.8294 20.1215 41.7376 20.0411 41.9752 20.7423C42.3584 21.5394 41.8909 22.4016 41.5 23.0951C40.6455 24.4708 39.5112 25.6396 38.5379 26.9271C40.6455 27.0727 42.6151 25.8695 43.9908 24.3597C45.9068 22.1716 48.478 20.4588 51.352 19.884C52.9844 19.6579 54.8927 19.8341 56.1534 20.9952C57.1536 22.2176 56.345 23.919 55.4599 24.9651C52.8886 27.9196 48.9685 29.4064 45.1136 29.6631C45.1404 30.3031 44.6882 31.3262 45.4546 31.6557C46.4892 31.9623 47.5852 31.6174 48.5853 31.33C52.0341 30.0693 55.1571 28.0345 58.0234 25.7622C58.9295 25.1137 59.7564 24.3613 60.4874 23.5205C61.3458 22.528 62.1121 21.3401 63.3729 20.8381C65.1041 20.1983 66.9634 19.9828 68.7951 20.2097C68.1182 20.5295 67.4941 20.9508 66.9442 21.4589C65.2526 23.1428 63.6898 24.9515 62.2693 26.8696C64.4152 24.8463 66.4844 22.7158 69.0097 21.1217C70.1018 20.4856 71.3548 19.9031 72.65 20.0717C72.8524 20.0988 73.0471 20.1669 73.2221 20.2719C73.3972 20.377 73.549 20.5167 73.6681 20.6824C73.7872 20.8482 73.8712 21.0366 73.9149 21.236C73.9586 21.4354 73.9611 21.6417 73.9223 21.8421C73.6272 24.1604 71.9488 25.9346 70.5233 27.6667C69.5883 28.8507 68.3889 29.8892 67.8409 31.3377C70.8873 30.3529 73.313 28.138 75.7539 26.153C76.7579 25.2909 77.8615 24.5245 78.5896 23.3749C80.9577 19.8955 83.7857 16.7647 86.7018 13.7413C85.1691 13.7413 83.6363 13.7413 82.1265 13.7413V12.8906C83.916 12.8906 85.7055 12.8906 87.4912 12.8906C90.8174 9.61813 94.1205 6.24984 97.9333 3.51765ZM49.367 23.919C47.8967 25.4104 46.6243 27.0846 45.5811 28.9006C47.6542 28.1342 49.436 26.7623 51.0684 25.2947C52.1337 24.2869 53.2182 23.2369 53.8926 21.9187C54.1532 21.4666 54.0152 20.9301 53.8926 20.4664C52.0532 21.1178 50.6776 22.5472 49.367 23.919Z" fill="white"/>
<path d="M24.4937 3.69401C27.3677 1.87766 30.598 0.344873 34.0621 0.298889C36.3613 0.367864 38.9096 0.996306 40.4347 2.84714C41.7797 4.62134 41.5843 7.12744 40.6646 9.04726C38.58 13.4693 34.1043 16.4238 29.391 17.332C26.2953 18.0357 23.0601 17.8009 20.0985 16.6575C20.0027 17.0407 19.8954 17.4009 19.8226 17.7841V18.0102C19.791 18.9193 20.0311 19.8172 20.5123 20.5891C16.2167 21.459 12.5993 24.2908 9.83647 27.5901C7.31378 30.5939 5.52904 34.1463 4.625 37.9632C4.35676 39.496 4.21881 41.2357 4.98137 42.6766C5.15468 43.0012 5.3997 43.2821 5.69783 43.4979C5.99596 43.7137 6.33936 43.8587 6.70192 43.9219C8.05844 44.2438 9.38429 43.6729 10.6335 43.1862C10.5377 43.669 10.4572 44.1519 10.3883 44.6423C8.08909 45.1942 5.55617 45.3743 3.39494 44.2936C1.32951 43.2284 0.114781 40.9177 0.0266455 38.6377C-0.241592 34.7789 1.4483 31.0389 3.80496 28.0844C6.97399 24.218 11.5149 21.6238 16.3546 20.4895C15.3698 18.7574 15.5882 16.7303 15.7492 14.8297C14.9841 14.2928 14.3012 13.6474 13.7221 12.9137C13.2388 12.0574 12.7105 11.2272 12.1395 10.4268C12.2408 10.1043 12.2481 9.75969 12.1605 9.43324C12.073 9.1068 11.8942 8.81207 11.6452 8.58359C11.6452 8.38816 11.6183 8.00496 11.6107 7.8172C11.7026 4.70948 14.5613 2.18805 17.5694 1.83551C20.0295 1.45614 22.4589 2.37581 24.4937 3.69401ZM32.1117 2.82798C29.3258 4.44507 26.95 6.65995 24.8041 9.05109C23.0491 11.1127 21.3975 13.3237 20.3667 15.849C21.7959 16.1478 23.2714 16.1478 24.7006 15.849C29.3603 14.868 33.4337 11.8791 36.2962 8.15058C37.2618 6.79406 38.2121 5.27661 38.2658 3.55222C38.3424 2.4218 37.2427 1.50979 36.1582 1.56344C34.7021 1.46381 33.3379 2.13823 32.1117 2.82798ZM19.8609 3.83196C18.4856 4.33195 17.2805 5.2121 16.3857 6.37005C15.491 7.528 14.9434 8.91617 14.8065 10.3731C14.7832 11.007 14.8924 11.6389 15.1273 12.2281C15.3623 12.8174 15.7176 13.3511 16.1707 13.7951C17.6843 9.9631 20.4702 6.77874 23.6813 4.25731C22.4973 3.7055 21.1369 3.41427 19.8609 3.83196Z" fill="white"/>
<path d="M4.68261 2.90463C6.21539 3.83963 8.13137 3.96225 9.50705 5.15783C10.3999 5.8859 10.9824 6.88604 11.6108 7.8402C11.6108 8.0318 11.6338 8.41499 11.6453 8.60659C11.5909 8.9313 11.6069 9.2639 11.6922 9.58189C11.7775 9.89988 11.93 10.1958 12.1396 10.4498C12.7107 11.2502 13.2389 12.0804 13.7222 12.9367C12.7259 12.2546 12.4998 10.5034 11.1165 10.4843C9.48022 10.2543 7.97043 11.0705 6.39549 11.3388C5.4279 11.2871 4.49554 10.9584 3.70949 10.3918C2.92344 9.82518 2.31683 9.04456 1.96191 8.14292C3.40656 8.09311 4.7899 7.61411 6.21922 7.44934C4.92019 6.31891 4.47951 4.57154 4.68261 2.90463ZM6.24605 7.43401C7.51443 8.5836 9.31162 8.74071 10.9057 9.16606C9.59727 8.0711 7.95201 7.45954 6.24605 7.43401V7.43401Z" fill="white"/>
<path d="M15.2932 46.8763L15.3507 46.9376C17.8376 49.4322 17.7188 53.793 15.3507 56.3221C14.1474 53.9271 11.7371 52.356 10.8596 49.7656C12.2775 48.7135 13.7581 47.7486 15.2932 46.8763V46.8763Z" fill="white"/>
<path d="M6.24603 7.43408C7.95199 7.45961 9.59725 8.07117 10.9057 9.16613C9.31543 8.74078 7.51441 8.59517 6.24603 7.43408Z" fill="white"/>
<path d="M11.6452 8.60257C11.8942 8.83105 12.073 9.12578 12.1606 9.45222C12.2481 9.77867 12.2408 10.1233 12.1395 10.4457C11.93 10.1918 11.7774 9.89585 11.6921 9.57786C11.6068 9.25987 11.5908 8.92728 11.6452 8.60257V8.60257Z" fill="white"/>
<path d="M19.8226 17.7841C22.7617 19.9261 25.1337 22.9649 26.015 26.5439C27.931 32.472 25.7353 39.266 21.1522 43.3662C19.493 44.9603 17.3893 45.9336 15.3507 46.9376L15.2932 46.8763C14.4578 46.0218 13.5343 45.2401 12.8446 44.2591C12.1126 43.2015 11.8176 41.9331 11.4267 40.7298C12.3486 38.7246 13.7926 37.0041 15.6074 35.7483C18.01 34.2002 20.9453 33.6675 23.1794 31.8397C24.5167 30.6901 25.8617 29.2608 26.0227 27.4291C25.8311 25.1951 24.5704 23.2139 23.3403 21.4244C22.4168 20.0526 21.0411 19.0946 19.8417 18.0063L19.8226 17.7841Z" fill="white"/>
<path d="M11.4268 40.7299C11.81 41.9331 12.1127 43.2015 12.8446 44.2591C13.5344 45.2401 14.4579 46.0218 15.2932 46.8764C13.7529 47.7481 12.2672 48.713 10.8443 49.7657C10.3451 48.1081 10.1899 46.3659 10.3883 44.6462C10.4573 44.1557 10.5378 43.6728 10.6336 43.19C10.8324 42.3503 11.0976 41.5276 11.4268 40.7299V40.7299Z" fill="white"/>
<path d="M27.8353 38.929H28.7013L31.3377 45.0602L34.0201 38.929H34.8707L31.422 46.8765H31.2457L27.8353 38.929Z" fill="white"/>
<path d="M42.8604 38.929H47.4204V39.6954H43.6574V42.1862H47.3859V42.9526H43.6574V46.0756H47.3859V46.842H42.8604V38.929Z" fill="white"/>
<path d="M55.4407 46.8765V38.929H55.6131L60.9051 45.0218V38.929H61.6715V46.8765H61.4952L56.2454 40.8565V46.8765H55.4407Z" fill="white"/>
<path d="M70.2933 38.929H71.0865V43.7266C71.0865 44.2976 71.0865 44.6501 71.1172 44.7919C71.1501 45.0649 71.2444 45.327 71.3931 45.5583C71.5648 45.7903 71.7949 45.9727 72.0599 46.0871C72.3395 46.227 72.6477 46.3005 72.9604 46.3017C73.2253 46.3046 73.4875 46.2469 73.7268 46.1331C73.962 46.0279 74.1693 45.8691 74.3322 45.6694C74.4996 45.458 74.621 45.2139 74.6886 44.9529C74.7585 44.5416 74.7855 44.1243 74.7691 43.7075V38.929H75.5623V43.7266C75.5788 44.3072 75.5091 44.8871 75.3554 45.4472C75.2047 45.9076 74.914 46.3095 74.5238 46.5968C74.0903 46.9255 73.5579 47.0971 73.014 47.0834C72.4297 47.1001 71.8541 46.9398 71.3624 46.6236C70.9221 46.3391 70.5975 45.9071 70.4466 45.405C70.3236 44.8558 70.2747 44.2927 70.301 43.7305L70.2933 38.929Z" fill="white"/>
<path d="M84.1612 38.929H88.7174V39.6954H84.9544V42.1862H88.6829V42.9526H84.9544V46.0756H88.6829V46.842H84.1612V38.929Z" fill="white"/>
</svg>
