<svg width="230" height="120" viewBox="0 0 230 120" fill="none" xmlns="http://www.w3.org/2000/svg">
<path d="M208.655 7.45876C214.838 2.97366 222.273 -0.0489023 230 -0.000151245C221.639 2.59991 215.066 8.68566 209.005 14.7714C204.869 18.834 200.928 23.0916 196.939 27.3086C200.14 27.4305 203.349 27.3736 206.551 27.3654C206.551 27.9667 206.551 28.5761 206.551 29.1774C202.716 29.1774 198.881 29.1286 195.037 29.1774C187.952 36.8313 180.916 44.5583 174.529 52.8216C171.936 56.0724 169.646 59.5537 167.688 63.2219C167.143 64.3432 166.888 65.5839 166.949 66.8294C169.654 67.1382 172.051 65.6675 174.221 64.2538C179.724 60.3827 184.842 55.9911 189.504 51.1397H191.942C185.84 57.6399 179.372 64.0588 171.279 67.9913C168.687 69.0964 165.697 70.0064 162.919 69.1451C162.211 68.8952 161.603 68.4247 161.183 67.8031C160.763 67.1814 160.554 66.4414 160.587 65.6919C160.465 62.5637 161.879 59.6955 163.105 56.8761C157.312 62.125 150.739 66.8294 143.134 68.9826C141.078 69.4945 138.259 70.112 136.723 68.2351C136.235 65.7488 137.657 63.4656 138.982 61.4912C142.792 55.9823 147.594 51.1966 151.023 45.4196L150.316 44.859C145.547 47.5565 141.427 51.2047 137.405 54.8935C132.382 59.318 127.832 64.252 123.828 69.6164C122.341 69.2264 120.009 69.3645 119.603 67.4551C119.099 63.7012 121.496 60.4512 123.357 57.4367C115.581 63.1894 106.936 68.8607 96.9909 69.4864C94.2364 69.5514 90.7426 69.2182 89.2801 66.4963C87.5738 63.3437 89.1744 59.7768 90.5476 56.8273C87.6144 58.2736 84.2993 59.663 81.0249 58.4524C77.0273 62.9294 72.6641 67.6582 66.6921 69.2264C64.4658 69.852 61.5001 69.6732 60.2407 67.4307C58.3881 63.9694 59.4282 59.8174 60.8582 56.3967C62.6908 51.9317 65.691 48.0419 69.544 45.1352C72.5016 43.0633 76.1579 42.7545 79.5949 42.2508C76.1985 45.3708 73.7691 49.3359 71.4697 53.2523C69.154 57.4042 66.6433 61.5968 65.7333 66.3176C65.8714 68.0807 67.7321 66.9513 68.6909 66.6344C72.8997 64.53 75.9466 60.8249 79.1398 57.4936C78.5096 56.2822 78.1859 54.9347 78.1973 53.5692C78.2086 52.2037 78.5546 50.8617 79.2048 49.6609C80.8299 46.8334 83.1374 44.0383 86.3631 43.0064C87.5738 42.6652 89.4994 42.4945 90.0032 43.9814C90.8157 45.6715 89.8245 47.4996 88.9957 48.9703C87.1838 51.8872 84.7787 54.3654 82.7149 57.0955C87.1838 57.4042 91.3601 54.8529 94.277 51.6516C98.3396 47.0121 103.792 43.3802 109.886 42.1614C113.347 41.682 117.393 42.0558 120.066 44.5177C122.187 47.1096 120.473 50.7172 118.596 52.9354C113.144 59.1999 104.832 62.3525 96.6577 62.8969C96.7146 64.2538 95.7558 66.4232 97.3809 67.1219C99.5747 67.772 101.898 67.0407 104.019 66.4313C111.332 63.7581 117.954 59.4437 124.031 54.6254C125.953 53.2504 127.706 51.6551 129.256 49.8722C131.076 47.7678 132.701 45.249 135.374 44.1846C139.045 42.8278 142.988 42.3709 146.871 42.852C145.436 43.5303 144.113 44.4235 142.947 45.5008C139.36 49.0713 136.046 52.9064 133.034 56.9736C137.584 52.6835 141.972 48.1659 147.326 44.7858C149.642 43.437 152.299 42.202 155.045 42.5595C155.474 42.6169 155.887 42.7614 156.258 42.9841C156.629 43.2068 156.951 43.503 157.204 43.8545C157.456 44.206 157.635 44.6054 157.727 45.0283C157.82 45.4511 157.825 45.8884 157.743 46.3134C157.117 51.2291 153.558 54.991 150.536 58.6636C148.553 61.1743 146.01 63.3762 144.848 66.4476C151.308 64.3594 156.451 59.663 161.627 55.4542C163.755 53.626 166.095 52.001 167.639 49.5634C172.661 42.1858 178.657 35.5475 184.84 29.1367C181.59 29.1367 178.34 29.1367 175.139 29.1367V27.3329C178.933 27.3329 182.728 27.3329 186.514 27.3329C193.567 20.394 200.571 13.252 208.655 7.45876ZM105.677 50.7172C102.559 53.8794 99.861 57.4294 97.649 61.2799C102.045 59.6549 105.823 56.7461 109.284 53.6341C111.543 51.4972 113.842 49.2709 115.273 46.4759C115.825 45.5171 115.533 44.3796 115.273 43.3964C111.372 44.7777 108.455 47.8084 105.677 50.7172Z" fill="#0A58CA"/>
<path d="M52.9361 7.83256C59.03 3.98123 65.8796 0.731154 73.2247 0.633652C78.0998 0.779905 83.5031 2.11243 86.7369 6.03689C89.5888 9.79885 89.1744 15.1127 87.2244 19.1834C82.8043 28.5599 73.3141 34.8244 63.3201 36.7501C56.7561 38.2422 49.8963 37.7444 43.6166 35.32C43.4134 36.1326 43.1859 36.8963 43.0316 37.7088V38.1882C42.9647 40.1158 43.4738 42.0196 44.4941 43.6565C35.3858 45.5009 27.7156 51.5054 21.8573 58.5012C16.5083 64.8702 12.724 72.4027 10.8071 80.496C10.2383 83.7461 9.94583 87.4349 11.5627 90.49C11.9302 91.1784 12.4498 91.774 13.0819 92.2316C13.7141 92.6892 14.4422 92.9966 15.2109 93.1307C18.0873 93.8132 20.8986 92.6025 23.5474 91.5706C23.3443 92.5944 23.1736 93.6182 23.0274 94.6582C18.1523 95.8282 12.7815 96.2101 8.19892 93.9188C3.81945 91.66 1.24377 86.7605 1.05689 81.9261C0.488126 73.744 4.07133 65.8138 9.06831 59.5493C15.7878 51.351 25.4162 45.8503 35.6783 43.4452C33.5901 39.7726 34.0532 35.4744 34.3945 31.4443C32.7722 30.3059 31.3243 28.9374 30.0963 27.3817C29.0716 25.566 27.9514 23.8058 26.7406 22.1085C26.9554 21.4248 26.9709 20.694 26.7852 20.0019C26.5996 19.3097 26.2205 18.6847 25.6924 18.2003C25.6924 17.7859 25.6356 16.9734 25.6193 16.5752C25.8143 9.98573 31.8757 4.63936 38.254 3.89185C43.4703 3.08746 48.6217 5.0375 52.9361 7.83256ZM69.089 5.99627C63.182 9.42509 58.1444 14.1214 53.5943 19.1916C49.873 23.5629 46.371 28.2511 44.1853 33.6056C47.2158 34.2393 50.3445 34.2393 53.3749 33.6056C63.2551 31.5256 71.8922 25.1879 77.9617 17.2821C80.0092 14.4058 82.0243 11.1883 82.138 7.53193C82.3005 5.135 79.9686 3.20121 77.6692 3.31496C74.5816 3.10371 71.6891 4.53374 69.089 5.99627ZM43.1128 8.12507C40.1967 9.18524 37.6414 11.0515 35.7442 13.5068C33.847 15.962 32.6859 18.9055 32.3957 21.9947C32.3462 23.3389 32.5779 24.6786 33.076 25.928C33.5741 27.1774 34.3276 28.3091 35.2883 29.2505C38.4977 21.1253 44.4047 14.3733 51.2136 9.02696C48.7029 7.85693 45.8185 7.23942 43.1128 8.12507Z" fill="#0A58CA"/>
<path d="M10.929 6.15881C14.179 8.14136 18.2416 8.40136 21.1586 10.9364C23.0517 12.4802 24.2868 14.6009 25.6193 16.624C25.6193 17.0303 25.668 17.8428 25.6924 18.2491C25.5771 18.9376 25.611 19.6428 25.7919 20.3171C25.9727 20.9913 26.2962 21.6189 26.7406 22.1573C27.9514 23.8546 29.0715 25.6148 30.0963 27.4305C27.9837 25.9842 27.5043 22.271 24.5711 22.2304C21.1017 21.7429 17.9004 23.4736 14.5609 24.0423C12.5093 23.9328 10.5323 23.2358 8.86561 22.0343C7.19889 20.8329 5.91265 19.1777 5.1601 17.2659C8.22329 17.1603 11.1565 16.1447 14.1872 15.7953C11.4327 13.3983 10.4983 9.69327 10.929 6.15881ZM14.244 15.7628C16.9335 18.2003 20.7442 18.5335 24.1243 19.4354C21.3499 17.1136 17.8613 15.8169 14.244 15.7628V15.7628Z" fill="#1BA89D"/>
<path d="M33.4276 99.3952L33.5495 99.5252C38.8227 104.815 38.5708 114.061 33.5495 119.424C30.9982 114.346 25.8874 111.014 24.0268 105.522C27.0332 103.291 30.1726 101.245 33.4276 99.3952V99.3952Z" fill="#1BA89D"/>
<path d="M14.244 15.7626C17.8613 15.8168 21.3499 17.1135 24.1243 19.4352C20.7523 18.5333 16.9335 18.2246 14.244 15.7626Z" fill="#1BA89D"/>
<path d="M25.6924 18.2408C26.2205 18.7253 26.5996 19.3502 26.7852 20.0424C26.9709 20.7346 26.9554 21.4654 26.7406 22.1491C26.2962 21.6106 25.9727 20.9831 25.7919 20.3088C25.611 19.6346 25.5771 18.9293 25.6924 18.2408V18.2408Z" fill="#106C5B"/>
<path d="M43.0316 37.7087C49.2636 42.2507 54.2931 48.694 56.1618 56.2829C60.2244 68.8525 55.5687 83.2585 45.851 91.9524C42.3328 95.3325 37.8721 97.3963 33.5495 99.5251L33.4276 99.3951C31.6563 97.5832 29.6981 95.9256 28.2356 93.8456C26.6837 91.603 26.0581 88.9136 25.2293 86.3623C27.184 82.1105 30.2457 78.4624 34.0939 75.7996C39.1883 72.517 45.4122 71.3876 50.1492 67.5119C52.9849 65.0743 55.8368 62.0436 56.1781 58.1598C55.7718 53.4228 53.0987 49.2221 50.4905 45.4277C48.5323 42.5188 45.6154 40.4876 43.0722 38.18L43.0316 37.7087Z" fill="#0A58CA"/>
<path d="M25.2293 86.3624C26.0418 88.9137 26.6837 91.6031 28.2356 93.8457C29.6981 95.9257 31.6563 97.5833 33.4276 99.3952C30.1615 101.244 27.0112 103.29 23.9943 105.522C22.9357 102.007 22.6066 98.3128 23.0274 94.6663C23.1736 93.6263 23.3442 92.6025 23.5474 91.5788C23.969 89.7982 24.5314 88.0539 25.2293 86.3624V86.3624Z" fill="#14A99F"/>
<path d="M60.0213 82.5436H61.8576L67.4477 95.5439L73.1353 82.5436H74.9391L67.6265 99.3952H67.2527L60.0213 82.5436Z" fill="#0A58CA"/>
<path d="M91.8882 82.5436H101.549V84.1686H93.5701V89.45H101.476V91.075H93.5701V97.6971H101.476V99.3221H91.8882V82.5436Z" fill="#0A58CA"/>
<path d="M118.555 99.3952V82.5436H118.921L130.142 95.4626V82.5436H131.767V99.3952H131.393L120.261 86.6306V99.3952H118.555Z" fill="#0A58CA"/>
<path d="M150.048 82.5436H151.73V92.7163C151.73 93.927 151.73 94.6745 151.795 94.9751C151.865 95.554 152.065 96.1096 152.38 96.6002C152.744 97.0921 153.232 97.4789 153.794 97.7214C154.387 98.0181 155.04 98.1738 155.703 98.1765C156.265 98.1826 156.821 98.0603 157.328 97.8189C157.827 97.5959 158.267 97.2592 158.612 96.8358C158.967 96.3875 159.225 95.87 159.368 95.3164C159.516 94.4444 159.573 93.5595 159.538 92.6757V82.5436H161.22V92.7163C161.255 93.9474 161.108 95.1769 160.782 96.3645C160.462 97.3408 159.846 98.193 159.018 98.8021C158.099 99.4991 156.97 99.863 155.817 99.834C154.578 99.8692 153.358 99.5294 152.315 98.859C151.382 98.2556 150.693 97.3397 150.373 96.2752C150.113 95.1107 150.009 93.9165 150.065 92.7245L150.048 82.5436Z" fill="#0A58CA"/>
<path d="M179.453 82.5436H189.114V84.1686H181.135V89.45H189.049V91.075H181.135V97.6971H189.049V99.3221H179.453V82.5436Z" fill="#0A58CA"/>
</svg>
