<svg width="229" height="120" viewBox="0 0 229 120" fill="none" xmlns="http://www.w3.org/2000/svg">
<g clip-path="url(#clip0_19_1196)">
<path d="M207.655 7.45876C213.838 2.97366 221.273 -0.0489023 229 -0.000151245C220.639 2.59991 214.066 8.68566 208.005 14.7714C203.869 18.834 199.928 23.0916 195.939 27.3086C199.14 27.4305 202.349 27.3736 205.551 27.3654C205.551 27.9667 205.551 28.5761 205.551 29.1774C201.716 29.1774 197.881 29.1286 194.037 29.1774C186.952 36.8313 179.916 44.5583 173.529 52.8216C170.936 56.0724 168.646 59.5537 166.688 63.2219C166.143 64.3432 165.888 65.5839 165.949 66.8294C168.654 67.1382 171.051 65.6675 173.221 64.2538C178.724 60.3827 183.842 55.9911 188.504 51.1397H190.942C184.84 57.6399 178.372 64.0588 170.279 67.9913C167.687 69.0964 164.697 70.0064 161.919 69.1451C161.211 68.8952 160.603 68.4247 160.183 67.8031C159.763 67.1814 159.554 66.4414 159.587 65.6919C159.465 62.5637 160.879 59.6955 162.105 56.8761C156.312 62.125 149.739 66.8294 142.134 68.9826C140.078 69.4945 137.259 70.112 135.723 68.2351C135.235 65.7488 136.657 63.4656 137.982 61.4912C141.792 55.9823 146.594 51.1966 150.023 45.4196L149.316 44.859C144.547 47.5565 140.427 51.2047 136.405 54.8935C131.382 59.318 126.832 64.252 122.828 69.6164C121.341 69.2264 119.009 69.3645 118.603 67.4551C118.099 63.7012 120.496 60.4512 122.357 57.4367C114.581 63.1894 105.936 68.8607 95.9908 69.4864C93.2364 69.5514 89.7426 69.2182 88.2801 66.4963C86.5738 63.3437 88.1744 59.7768 89.5476 56.8273C86.6144 58.2736 83.2993 59.663 80.0249 58.4524C76.0273 62.9294 71.6641 67.6582 65.6921 69.2264C63.4658 69.852 60.5001 69.6732 59.2407 67.4307C57.3881 63.9694 58.4281 59.8174 59.8582 56.3967C61.6908 51.9317 64.6909 48.0419 68.544 45.1352C71.5016 43.0633 75.1579 42.7545 78.5948 42.2508C75.1985 45.3708 72.7691 49.3359 70.4697 53.2523C68.154 57.4042 65.6433 61.5968 64.7333 66.3176C64.8714 68.0807 66.7321 66.9513 67.6908 66.6344C71.8997 64.53 74.9466 60.8249 78.1398 57.4936C77.5096 56.2822 77.1859 54.9347 77.1973 53.5692C77.2086 52.2037 77.5545 50.8617 78.2048 49.6609C79.8299 46.8334 82.1374 44.0383 85.3631 43.0064C86.5738 42.6652 88.4994 42.4945 89.0032 43.9814C89.8157 45.6715 88.8244 47.4996 87.9957 48.9703C86.1838 51.8872 83.7787 54.3654 81.7149 57.0955C86.1838 57.4042 90.3601 54.8529 93.277 51.6516C97.3396 47.0121 102.792 43.3802 108.885 42.1614C112.347 41.682 116.393 42.0558 119.066 44.5177C121.187 47.1096 119.473 50.7172 117.596 52.9354C112.144 59.1999 103.832 62.3525 95.6577 62.8969C95.7146 64.2538 94.7558 66.4232 96.3809 67.1219C98.5747 67.772 100.898 67.0407 103.019 66.4313C110.332 63.7581 116.954 59.4437 123.031 54.6254C124.953 53.2504 126.706 51.6551 128.256 49.8722C130.076 47.7678 131.701 45.249 134.374 44.1846C138.045 42.8278 141.988 42.3709 145.871 42.852C144.436 43.5303 143.113 44.4235 141.947 45.5008C138.36 49.0713 135.046 52.9064 132.034 56.9736C136.584 52.6835 140.972 48.1659 146.326 44.7858C148.642 43.437 151.299 42.202 154.045 42.5595C154.474 42.6169 154.887 42.7614 155.258 42.9841C155.629 43.2068 155.951 43.503 156.204 43.8545C156.456 44.206 156.635 44.6054 156.727 45.0283C156.82 45.4511 156.825 45.8884 156.743 46.3134C156.117 51.2291 152.558 54.9911 149.536 58.6636C147.553 61.1743 145.01 63.3762 143.848 66.4476C150.308 64.3594 155.451 59.663 160.627 55.4542C162.755 53.626 165.095 52.001 166.639 49.5634C171.661 42.1858 177.657 35.5475 183.84 29.1367C180.59 29.1367 177.34 29.1367 174.139 29.1367V27.3329C177.933 27.3329 181.728 27.3329 185.514 27.3329C192.567 20.394 199.571 13.252 207.655 7.45876ZM104.677 50.7172C101.559 53.8794 98.861 57.4294 96.649 61.2799C101.045 59.6549 104.823 56.7461 108.284 53.6341C110.543 51.4972 112.842 49.2709 114.272 46.4759C114.825 45.5171 114.532 44.3796 114.272 43.3964C110.372 44.7777 107.455 47.8084 104.677 50.7172Z" fill="#59595B"/>
<path d="M51.9361 7.83245C58.03 3.98112 64.8796 0.731047 72.2247 0.633545C77.0998 0.779798 82.5031 2.11233 85.7369 6.03679C88.5888 9.79874 88.1744 15.1126 86.2244 19.1833C81.8043 28.5598 72.3141 34.8243 62.3201 36.75C55.7561 38.2421 48.8963 37.7442 42.6166 35.3199C42.4134 36.1324 42.1859 36.8962 42.0316 37.7087V38.1881C41.9647 40.1157 42.4738 42.0195 43.4941 43.6564C34.3858 45.5008 26.7156 51.5053 20.8573 58.5011C15.5083 64.8701 11.724 72.4026 9.8071 80.4959C9.23834 83.746 8.94583 87.4348 10.5627 90.4899C10.9302 91.1783 11.4498 91.7739 12.0819 92.2315C12.7141 92.6891 13.4422 92.9965 14.2109 93.1306C17.0873 93.8131 19.8986 92.6024 22.5474 91.5705C22.3442 92.5943 22.1736 93.6181 22.0274 94.6581C17.1523 95.8281 11.7815 96.21 7.19892 93.9187C2.81945 91.6599 0.243768 86.7604 0.0568889 81.9259C-0.511874 73.7439 3.07133 65.8137 8.06831 59.5492C14.7878 51.3509 24.4162 45.8502 34.6783 43.4451C32.5901 39.7725 33.0532 35.4743 33.3945 31.4442C31.7722 30.3058 30.3243 28.9372 29.0963 27.3816C28.0716 25.5659 26.9514 23.8057 25.7406 22.1084C25.9554 21.4247 25.9709 20.6939 25.7852 20.0018C25.5996 19.3096 25.2205 18.6846 24.6924 18.2002C24.6924 17.7858 24.6355 16.9733 24.6193 16.5751C24.8143 9.98562 30.8757 4.63926 37.254 3.89174C42.4703 3.08735 47.6217 5.03739 51.9361 7.83245ZM68.089 5.99616C62.182 9.42499 57.1444 14.1213 52.5943 19.1915C48.873 23.5628 45.371 28.251 43.1853 33.6055C46.2158 34.2392 49.3445 34.2392 52.3749 33.6055C62.2551 31.5255 70.8922 25.1878 76.9617 17.282C79.0092 14.4057 81.0243 11.1882 81.138 7.53182C81.3005 5.13489 78.9686 3.2011 76.6692 3.31485C73.5816 3.1036 70.6891 4.53363 68.089 5.99616ZM42.1128 8.12496C39.1967 9.18513 36.6414 11.0514 34.7442 13.5067C32.847 15.9619 31.6859 18.9054 31.3957 21.9946C31.3462 23.3388 31.5779 24.6785 32.076 25.9279C32.5741 27.1773 33.3276 28.309 34.2883 29.2504C37.4977 21.1252 43.4047 14.3732 50.2136 9.02685C47.7029 7.85683 44.8185 7.23931 42.1128 8.12496Z" fill="#59595B"/>
<path d="M9.92897 6.15869C13.179 8.14123 17.2416 8.40124 20.1586 10.9363C22.0517 12.4801 23.2868 14.6007 24.6193 16.6239C24.6193 17.0302 24.668 17.8427 24.6924 18.249C24.5771 18.9375 24.611 19.6427 24.7919 20.3169C24.9727 20.9912 25.2962 21.6188 25.7406 22.1572C26.9514 23.8545 28.0715 25.6147 29.0963 27.4304C26.9837 25.9841 26.5043 22.2709 23.5711 22.2303C20.1017 21.7428 16.9004 23.4734 13.5609 24.0422C11.5093 23.9326 9.53232 23.2356 7.86561 22.0342C6.19889 20.8328 4.91265 19.1776 4.1601 17.2658C7.22329 17.1602 10.1565 16.1445 13.1872 15.7952C10.4327 13.3982 9.49834 9.69314 9.92897 6.15869ZM13.244 15.7627C15.9335 18.2002 19.7442 18.5333 23.1243 19.4352C20.3499 17.1135 16.8613 15.8168 13.244 15.7627Z" fill="#1BA89D"/>
<path d="M32.4276 99.3953L32.5495 99.5253C37.8227 104.815 37.5708 114.061 32.5495 119.424C29.9982 114.346 24.8874 111.014 23.0268 105.522C26.0332 103.291 29.1726 101.245 32.4276 99.3953Z" fill="#1BA89D"/>
<path d="M13.244 15.7627C16.8613 15.8168 20.3499 17.1136 23.1243 19.4353C19.7523 18.5334 15.9335 18.2246 13.244 15.7627Z" fill="#1BA89D"/>
<path d="M24.6924 18.241C25.2205 18.7254 25.5996 19.3504 25.7852 20.0425C25.9709 20.7347 25.9554 21.4655 25.7406 22.1492C25.2962 21.6108 24.9727 20.9832 24.7919 20.309C24.611 19.6347 24.5771 18.9295 24.6924 18.241Z" fill="#106C5B"/>
<path d="M42.0316 37.7087C48.2636 42.2507 53.2931 48.694 55.1618 56.2829C59.2244 68.8525 54.5687 83.2585 44.851 91.9524C41.3328 95.3325 36.8721 97.3963 32.5495 99.5251L32.4276 99.3951C30.6563 97.5832 28.6981 95.9256 27.2356 93.8456C25.6837 91.603 25.0581 88.9136 24.2293 86.3623C26.184 82.1105 29.2457 78.4623 33.0939 75.7996C38.1883 72.517 44.4122 71.3876 49.1492 67.5119C51.9849 65.0743 54.8368 62.0436 55.1781 58.1598C54.7718 53.4228 52.0987 49.2221 49.4905 45.4277C47.5323 42.5188 44.6154 40.4876 42.0722 38.18L42.0316 37.7087Z" fill="#14A99F"/>
<path d="M24.2293 86.3623C25.0418 88.9136 25.6837 91.603 27.2356 93.8456C28.6981 95.9256 30.6563 97.5832 32.4276 99.3951C29.1615 101.243 26.0112 103.289 22.9943 105.521C21.9357 102.007 21.6066 98.3127 22.0274 94.6662C22.1736 93.6262 22.3442 92.6024 22.5474 91.5787C22.969 89.7981 23.5314 88.0538 24.2293 86.3623Z" fill="#14A99F"/>
<path d="M59.0213 82.5437H60.8576L66.4477 95.544L72.1353 82.5437H73.9391L66.6265 99.3953H66.2527L59.0213 82.5437Z" fill="#414042"/>
<path d="M90.8882 82.5437H100.549V84.1687H92.5702V89.4501H100.476V91.0751H92.5702V97.6972H100.476V99.3222H90.8882V82.5437Z" fill="#414042"/>
<path d="M117.555 99.3953V82.5437H117.921L129.142 95.4627V82.5437H130.767V99.3953H130.393L119.261 86.6307V99.3953H117.555Z" fill="#414042"/>
<path d="M149.048 82.5437H150.73V92.7164C150.73 93.9271 150.73 94.6746 150.795 94.9752C150.865 95.5541 151.065 96.1097 151.38 96.6003C151.744 97.0922 152.232 97.479 152.794 97.7215C153.387 98.0182 154.04 98.1739 154.703 98.1765C155.265 98.1827 155.821 98.0604 156.328 97.819C156.827 97.596 157.267 97.2593 157.612 96.8359C157.967 96.3876 158.225 95.8701 158.368 95.3165C158.516 94.4445 158.573 93.5596 158.538 92.6758V82.5437H160.22V92.7164C160.255 93.9475 160.108 95.177 159.782 96.3646C159.462 97.3409 158.846 98.1931 158.018 98.8022C157.099 99.4992 155.97 99.8631 154.817 99.8341C153.578 99.8693 152.358 99.5295 151.315 98.8591C150.382 98.2557 149.693 97.3398 149.373 96.2753C149.113 95.1107 149.009 93.9166 149.065 92.7246L149.048 82.5437Z" fill="#414042"/>
<path d="M178.453 82.5437H188.114V84.1687H180.135V89.4501H188.049V91.0751H180.135V97.6972H188.049V99.3222H178.453V82.5437Z" fill="#414042"/>
</g>
<defs>
<clipPath id="clip0_19_1196">
<rect width="229" height="119.424" fill="white"/>
</clipPath>
</defs>
</svg>
