<svg width="32" height="32" viewBox="0 0 32 32" fill="none" xmlns="http://www.w3.org/2000/svg">
<g clip-path="url(#clip0_1310_2465)">
<path d="M4.66231 5.55794C4.92042 5.70585 5.20071 5.75905 5.48318 5.72491C5.54739 6.25355 5.8485 6.74725 6.34138 7.03645C6.47446 5.78402 7.14049 4.68856 8.10762 3.98148C7.70142 3.75007 7.22957 3.68907 6.77764 3.81016C6.69626 3.83195 6.6174 3.85942 6.5412 3.89175C6.42967 3.62919 6.23723 3.41072 5.98582 3.26558V3.26555C5.3538 2.9007 4.54275 3.11793 4.17784 3.75001C3.81296 4.38201 4.03028 5.19306 4.66231 5.55794V5.55794Z" fill="#594A45"/>
<path d="M16.6837 9.4419C16.426 9.2931 16.1386 9.24119 15.8638 9.27466C15.8537 9.19228 15.838 9.11002 15.8161 9.02846C15.6953 8.57717 15.4071 8.19953 15.0046 7.96344C14.8716 9.2159 14.2055 10.3114 13.2383 11.0184C13.5079 11.1721 13.8063 11.2506 14.1088 11.2506C14.262 11.2506 14.4164 11.2305 14.5684 11.1898C14.6499 11.1679 14.729 11.1403 14.8054 11.1079C14.9139 11.3626 15.1025 11.5856 15.3602 11.7343C15.9813 12.096 16.8012 11.8875 17.1682 11.2499C17.533 10.6178 17.3157 9.80677 16.6837 9.4419Z" fill="#594A45"/>
<path d="M8.90863 3.51741C9.97459 3.02321 11.3715 3.02321 12.4374 3.51741C12.4343 3.05056 12.2513 2.61206 11.9209 2.28162V2.28159C11.8611 2.22189 11.7977 2.16715 11.7315 2.11724C12.3856 1.26805 11.7539 -0.00994128 10.673 5.86177e-05C9.59177 -0.0099707 8.96007 1.26922 9.61524 2.11804C9.18948 2.43806 8.91251 2.94588 8.90863 3.51741V3.51741Z" fill="#594A45"/>
<path d="M6.34141 7.96344C5.93883 8.19958 5.65077 8.57723 5.52986 9.02846C5.50801 9.11005 5.4923 9.19228 5.48225 9.27469C4.85987 9.1834 4.19541 9.62307 4.04567 10.2456C3.95417 10.5871 4.00111 10.9437 4.17788 11.2499C4.42276 11.674 4.86852 11.9114 5.32631 11.9114C5.83333 11.9208 6.35021 11.5831 6.54127 11.1081C6.61747 11.1405 6.69635 11.1679 6.7777 11.1897C7.22646 11.3103 7.70072 11.2508 8.10775 11.0185C7.14052 10.3114 6.4745 9.2159 6.34141 7.96344Z" fill="#594A45"/>
<path d="M12.4374 11.4825C11.3714 11.9767 9.97456 11.9767 8.9086 11.4825C8.91169 11.9494 9.09469 12.3879 9.42515 12.7184C9.48486 12.7781 9.54827 12.8328 9.61453 12.8827C8.96045 13.7319 9.59206 15.0099 10.673 14.9999C11.7543 15.0099 12.3859 13.7308 11.7307 12.8819C12.1566 12.5619 12.4336 12.0541 12.4374 11.4825V11.4825Z" fill="#594A45"/>
<path d="M15.0047 7.03648C15.4072 6.80036 15.6953 6.42272 15.8163 5.9714C15.8381 5.88978 15.8538 5.80746 15.8639 5.72502C16.146 5.75899 16.426 5.7057 16.6838 5.55796C17.3157 5.19309 17.5331 4.38203 17.1682 3.75001C16.8033 3.11802 15.9923 2.90064 15.3602 3.26557C15.1023 3.41448 14.9135 3.63781 14.8051 3.89292C14.3146 3.68398 13.7357 3.69825 13.2384 3.98148C14.2056 4.68859 14.8716 5.78405 15.0047 7.03648V7.03648Z" fill="#594A45"/>
<path d="M10.673 3.93561C8.70766 3.93561 7.10873 5.5345 7.10873 7.49987C7.28791 12.2218 14.0587 12.2206 14.2372 7.49981C14.2372 5.5345 12.6383 3.93561 10.673 3.93561Z" fill="#594A45"/>
<path d="M18.6623 17.5579C18.9204 17.7058 19.2007 17.7591 19.4832 17.7249C19.5474 18.2535 19.8485 18.7472 20.3414 19.0365C20.4745 17.784 21.1405 16.6886 22.1076 15.9815C21.7014 15.7501 21.2296 15.6891 20.7776 15.8102C20.6963 15.832 20.6174 15.8594 20.5412 15.8917C20.4297 15.6292 20.2372 15.4107 19.9858 15.2656V15.2655C19.3538 14.9007 18.5427 15.1179 18.1778 15.75C17.813 16.382 18.0303 17.1931 18.6623 17.5579V17.5579Z" fill="#594A45"/>
<path d="M30.6837 21.4419C30.426 21.2931 30.1386 21.2412 29.8638 21.2747C29.8537 21.1923 29.838 21.11 29.8161 21.0285C29.6953 20.5772 29.4071 20.1995 29.0046 19.9634C28.8716 21.2159 28.2055 22.3114 27.2383 23.0184C27.5079 23.1721 27.8063 23.2506 28.1088 23.2506C28.262 23.2506 28.4164 23.2305 28.5684 23.1898C28.6499 23.1679 28.729 23.1403 28.8054 23.1079C28.9139 23.3626 29.1025 23.5856 29.3602 23.7343C29.9813 24.096 30.8012 23.8875 31.1682 23.2499C31.533 22.6178 31.3157 21.8068 30.6837 21.4419Z" fill="#594A45"/>
<path d="M22.9086 15.5174C23.9746 15.0232 25.3715 15.0232 26.4374 15.5174C26.4343 15.0506 26.2513 14.6121 25.9209 14.2816V14.2816C25.8611 14.2219 25.7977 14.1672 25.7315 14.1172C26.3856 13.268 25.7539 11.9901 24.673 12.0001C23.5918 11.99 22.9601 13.2692 23.6152 14.118C23.1895 14.4381 22.9125 14.9459 22.9086 15.5174V15.5174Z" fill="#594A45"/>
<path d="M20.3414 19.9634C19.9388 20.1996 19.6508 20.5772 19.5299 21.0285C19.508 21.11 19.4923 21.1923 19.4822 21.2747C18.8599 21.1834 18.1954 21.6231 18.0457 22.2456C17.9542 22.5871 18.0011 22.9437 18.1779 23.2499C18.4228 23.674 18.8685 23.9114 19.3263 23.9114C19.8333 23.9208 20.3502 23.5831 20.5413 23.1081C20.6175 23.1405 20.6964 23.1679 20.7777 23.1897C21.2265 23.3103 21.7007 23.2508 22.1077 23.0185C21.1405 22.3114 20.4745 21.2159 20.3414 19.9634Z" fill="#594A45"/>
<path d="M26.4374 23.4825C25.3714 23.9767 23.9746 23.9767 22.9086 23.4825C22.9117 23.9494 23.0947 24.3879 23.4252 24.7184C23.4849 24.7781 23.5483 24.8328 23.6145 24.8827C22.9605 25.7319 23.5921 27.0099 24.673 26.9999C25.7543 27.0099 26.3859 25.7308 25.7307 24.8819C26.1566 24.5619 26.4336 24.0541 26.4374 23.4825V23.4825Z" fill="#594A45"/>
<path d="M29.0047 19.0365C29.4072 18.8004 29.6953 18.4227 29.8163 17.9714C29.8381 17.8898 29.8538 17.8075 29.8639 17.725C30.146 17.759 30.426 17.7057 30.6838 17.558C31.3157 17.1931 31.5331 16.382 31.1682 15.75C30.8033 15.118 29.9923 14.9006 29.3602 15.2656C29.1023 15.4145 28.9135 15.6378 28.8051 15.8929C28.3146 15.684 27.7357 15.6982 27.2384 15.9815C28.2056 16.6886 28.8716 17.784 29.0047 19.0365V19.0365Z" fill="#594A45"/>
<path d="M24.673 15.9356C22.7077 15.9356 21.1087 17.5345 21.1087 19.4999C21.2879 24.2218 28.0587 24.2206 28.2372 19.4998C28.2372 17.5345 26.6383 15.9356 24.673 15.9356Z" fill="#594A45"/>
<path d="M0.662307 22.558C0.920423 22.7059 1.20072 22.7591 1.48318 22.725C1.54739 23.2536 1.8485 23.7473 2.34138 24.0365C2.47447 22.7841 3.1405 21.6886 4.10764 20.9815C3.70143 20.7501 3.22958 20.6891 2.77765 20.8102C2.69626 20.832 2.61741 20.8595 2.54121 20.8918C2.42968 20.6293 2.23724 20.4108 1.98583 20.2656V20.2656C1.3538 19.9008 0.542749 20.118 0.17784 20.7501C-0.187039 21.3821 0.0302825 22.1931 0.662307 22.558V22.558Z" fill="#594A45"/>
<path d="M12.6838 26.442C12.4261 26.2932 12.1386 26.2413 11.8638 26.2747C11.8537 26.1923 11.838 26.1101 11.8162 26.0285C11.6953 25.5772 11.4072 25.1996 11.0047 24.9635C10.8716 26.216 10.2055 27.3114 9.23831 28.0185C9.5079 28.1722 9.80634 28.2507 10.1088 28.2507C10.2621 28.2507 10.4164 28.2305 10.5684 28.1898C10.65 28.168 10.7291 28.1404 10.8054 28.1079C10.9139 28.3627 11.1026 28.5856 11.3602 28.7344C11.9814 29.0961 12.8013 28.8876 13.1682 28.2499C13.5331 27.6179 13.3158 26.8068 12.6838 26.442Z" fill="#594A45"/>
<path d="M4.90866 20.5174C5.97462 20.0232 7.3715 20.0232 8.43746 20.5174C8.43431 20.0506 8.25134 19.6121 7.9209 19.2816V19.2816C7.86117 19.2219 7.79779 19.1672 7.73149 19.1172C8.38561 18.268 7.75396 16.9901 6.67306 17.0001C5.5918 16.99 4.9601 18.2692 5.61527 19.118C5.18951 19.4381 4.91254 19.9459 4.90866 20.5174V20.5174Z" fill="#594A45"/>
<path d="M2.34142 24.9635C1.93883 25.1996 1.65078 25.5773 1.52987 26.0285C1.50801 26.1101 1.49231 26.1923 1.48225 26.2748C0.859872 26.1835 0.195406 26.6231 0.0456719 27.2457C-0.0458274 27.5871 0.00111345 27.9438 0.177877 28.2499C0.422758 28.6741 0.868519 28.9114 1.32631 28.9114C1.83334 28.9209 2.35021 28.5832 2.54127 28.1082C2.61748 28.1405 2.69636 28.168 2.77771 28.1898C3.22647 28.3104 3.70073 28.2509 4.10776 28.0185C3.14053 27.3115 2.47451 26.216 2.34142 24.9635Z" fill="#594A45"/>
<path d="M8.4374 28.4825C7.37144 28.9767 5.97456 28.9767 4.9086 28.4825C4.91169 28.9494 5.09469 29.3879 5.42516 29.7184C5.48486 29.7781 5.54827 29.8328 5.61454 29.8827C4.96045 30.7319 5.59207 32.0099 6.673 31.9999C7.75429 32.0099 8.38596 30.7308 7.73076 29.8819C8.15658 29.5619 8.43358 29.0541 8.4374 28.4825V28.4825Z" fill="#594A45"/>
<path d="M11.0047 24.0366C11.4072 23.8004 11.6953 23.4228 11.8163 22.9715C11.8381 22.8899 11.8538 22.8075 11.8639 22.7251C12.146 22.7591 12.426 22.7058 12.6838 22.558C13.3158 22.1932 13.5331 21.3821 13.1682 20.7501C12.8033 20.1181 11.9923 19.9007 11.3602 20.2656C11.1023 20.4145 10.9135 20.6379 10.8051 20.893C10.3146 20.684 9.73566 20.6983 9.2384 20.9815C10.2056 21.6887 10.8716 22.7841 11.0047 24.0366V24.0366Z" fill="#594A45"/>
<path d="M6.673 20.9356C4.70766 20.9356 3.10873 22.5345 3.10873 24.4999C3.28791 29.2218 10.0587 29.2206 10.2372 24.4998C10.2372 22.5345 8.63831 20.9356 6.673 20.9356Z" fill="#594A45"/>
</g>
<defs>
<clipPath id="clip0_1310_2465">
<rect width="32" height="32" fill="white"/>
</clipPath>
</defs>
</svg>
