<svg width="24" height="25" viewBox="0 0 24 25" fill="none" xmlns="http://www.w3.org/2000/svg">
<path d="M12 9.25V7" stroke="#594A45" stroke-width="2" stroke-linecap="round" stroke-linejoin="round"/>
<path d="M12 7C16.3313 5.5 12 1.75 12 1.75C12 1.75 7.5 5.5 12 7Z" stroke="#594A45" stroke-width="2" stroke-linecap="round" stroke-linejoin="round"/>
<path d="M15.1875 12.8125C15.1875 13.6579 14.8517 14.4686 14.2539 15.0664C13.6561 15.6642 12.8454 16 12 16C11.1546 16 10.3439 15.6642 9.7461 15.0664C9.14832 14.4686 8.8125 13.6579 8.8125 12.8125" stroke="#594A45" stroke-width="2" stroke-linecap="round" stroke-linejoin="round"/>
<path d="M8.81252 12.8125C8.8127 13.6466 8.4859 14.4476 7.90224 15.0435C7.31859 15.6395 6.5246 15.9828 5.69064 16C3.90002 16.0375 2.43752 14.5375 2.43752 12.7469V11.5C2.43628 11.2042 2.49363 10.9111 2.60626 10.6375C2.7189 10.364 2.88458 10.1154 3.09376 9.90626C3.30294 9.69708 3.55147 9.5314 3.82502 9.41876C4.09856 9.30613 4.3917 9.24878 4.68752 9.25002H19.3125C19.6083 9.24878 19.9015 9.30613 20.175 9.41876C20.4486 9.5314 20.6971 9.69708 20.9063 9.90626C21.1155 10.1154 21.2811 10.364 21.3938 10.6375C21.5064 10.9111 21.5638 11.2042 21.5625 11.5V12.7469C21.5625 14.5375 20.1 16.0375 18.3094 16C17.4754 15.9828 16.6814 15.6395 16.0978 15.0435C15.5141 14.4476 15.1873 13.6466 15.1875 12.8125" stroke="#594A45" stroke-width="2" stroke-linecap="round" stroke-linejoin="round"/>
<path d="M20.25 15.3719V20.5001C20.25 20.699 20.171 20.8898 20.0303 21.0304C19.8897 21.1711 19.6989 21.2501 19.5 21.2501H4.5C4.30109 21.2501 4.11032 21.1711 3.96967 21.0304C3.82902 20.8898 3.75 20.699 3.75 20.5001V15.3719" stroke="#594A45" stroke-width="2" stroke-linecap="round" stroke-linejoin="round"/>
</svg>
