<svg width="16" height="20" viewBox="0 0 16 20" fill="none" xmlns="http://www.w3.org/2000/svg">
<path d="M0 18.2327C0 18.5855 0.135644 18.9239 0.377092 19.1733C0.61854 19.4228 0.946013 19.563 1.28747 19.563H14.7125C15.054 19.563 15.3815 19.4228 15.6229 19.1733C15.8644 18.9239 16 18.5855 16 18.2327V7.6192H0V18.2327ZM11.0798 10.4441H13.1676V12.6012H11.0798V10.4441ZM11.0798 14.1115H13.1676V16.2686H11.0798V14.1115ZM6.9574 10.4441H9.0426V12.6012H6.9574V10.4441ZM6.9574 14.1115H9.0426V16.2686H6.9574V14.1115ZM2.82991 10.4441H4.91764V12.6012H2.82991V10.4441ZM2.82991 14.1115H4.91764V16.2686H2.82991V14.1115Z" fill="#969696" fill-opacity="0.8"/>
<path d="M12.0388 4.36121C12.0991 4.36121 12.1569 4.33648 12.1995 4.29245C12.2421 4.24843 12.266 4.18872 12.266 4.12646V0.234754C12.266 0.172494 12.2421 0.112783 12.1995 0.0687579C12.1569 0.024733 12.0991 0 12.0388 0C11.9786 0 11.9208 0.024733 11.8782 0.0687579C11.8356 0.112783 11.8116 0.172494 11.8116 0.234754V4.12646C11.8116 4.18872 11.8356 4.24843 11.8782 4.29245C11.9208 4.33648 11.9786 4.36121 12.0388 4.36121Z" fill="#969696" fill-opacity="0.8"/>
<path d="M14.7125 2.06088H12.7132V4.12672C12.7132 4.31419 12.6411 4.49399 12.5128 4.62655C12.3845 4.75912 12.2105 4.83359 12.029 4.83359C11.8476 4.83359 11.6736 4.75912 11.5453 4.62655C11.417 4.49399 11.3449 4.31419 11.3449 4.12672V2.06088H4.65257V4.12672C4.65824 4.22298 4.64478 4.31943 4.61303 4.41012C4.58127 4.50081 4.53189 4.58383 4.46793 4.65406C4.40396 4.7243 4.32676 4.78026 4.24108 4.81852C4.1554 4.85678 4.06305 4.87651 3.96971 4.87651C3.87637 4.87651 3.78401 4.85678 3.69833 4.81852C3.61265 4.78026 3.53545 4.7243 3.47149 4.65406C3.40752 4.58383 3.35814 4.50081 3.32639 4.41012C3.29463 4.31943 3.28117 4.22298 3.28684 4.12672V2.06088H1.28747C0.946218 2.06157 0.619132 2.20195 0.377829 2.45127C0.136526 2.7006 0.000667165 3.03856 0 3.39116V7.14983H16V3.39116C15.9993 3.03856 15.8635 2.7006 15.6222 2.45127C15.3809 2.20195 15.0538 2.06157 14.7125 2.06088Z" fill="#969696" fill-opacity="0.8"/>
<path d="M3.96102 4.36127C3.99107 4.36161 4.02089 4.3558 4.04875 4.34415C4.0766 4.33251 4.10195 4.31527 4.12331 4.29344C4.14468 4.27161 4.16164 4.24561 4.17322 4.21696C4.18479 4.1883 4.19075 4.15756 4.19075 4.12651V0.23481C4.18481 0.176482 4.15818 0.122493 4.11599 0.0832513C4.0738 0.04401 4.01905 0.022296 3.96229 0.022296C3.90552 0.022296 3.85077 0.04401 3.80858 0.0832513C3.7664 0.122493 3.73977 0.176482 3.73382 0.23481V4.12651C3.73382 4.18878 3.75776 4.24849 3.80037 4.29251C3.84298 4.33654 3.90077 4.36127 3.96102 4.36127Z" fill="#969696" fill-opacity="0.8"/>
</svg>
