<svg width="16" height="12" viewBox="0 0 16 12" fill="none" xmlns="http://www.w3.org/2000/svg">
<path d="M4.00002 6.74982C4.00086 6.81572 3.9885 6.88111 3.96367 6.94215C3.93884 7.00319 3.90204 7.05865 3.85544 7.10525C3.80885 7.15184 3.75339 7.18864 3.69235 7.21347C3.63131 7.2383 3.56591 7.25066 3.50002 7.24982H0.75002C0.657132 7.24907 0.566195 7.22308 0.486933 7.17465C0.407671 7.12621 0.343064 7.05714 0.30002 6.97482C0.259993 6.891 0.243502 6.79787 0.252309 6.7054C0.261116 6.61292 0.29489 6.52458 0.35002 6.44982C0.792512 5.85584 1.38297 5.38822 2.06252 5.09357C1.77052 4.82627 1.54616 4.49345 1.40793 4.1225C1.26969 3.75155 1.22152 3.35308 1.26738 2.95987C1.31325 2.56667 1.45183 2.18997 1.67174 1.8608C1.89164 1.53162 2.18657 1.25937 2.53225 1.06645C2.87793 0.873537 3.26449 0.765471 3.6601 0.751149C4.05571 0.736826 4.44907 0.816658 4.8078 0.984072C5.16653 1.15149 5.48037 1.4017 5.7235 1.71411C5.96663 2.02653 6.13209 2.39221 6.20627 2.78107C6.22476 2.88235 6.21193 2.98686 6.1695 3.08066C6.12707 3.17446 6.05704 3.25309 5.96877 3.30607C5.16041 3.78542 4.54561 4.53291 4.23127 5.41857C4.07631 5.84522 3.99802 6.29591 4.00002 6.74982V6.74982ZM15.65 6.44982C15.2075 5.85584 14.6171 5.38822 13.9375 5.09357C14.2295 4.82627 14.4539 4.49345 14.5921 4.1225C14.7304 3.75155 14.7785 3.35308 14.7327 2.95987C14.6868 2.56667 14.5482 2.18997 14.3283 1.8608C14.1084 1.53162 13.8135 1.25937 13.4678 1.06645C13.1221 0.873537 12.7355 0.765471 12.3399 0.751149C11.9443 0.736826 11.551 0.816658 11.1922 0.984072C10.8335 1.15149 10.5197 1.4017 10.2765 1.71411C10.0334 2.02653 9.86795 2.39221 9.79377 2.78107C9.77528 2.88235 9.78811 2.98686 9.83054 3.08066C9.87297 3.17446 9.943 3.25309 10.0313 3.30607C10.8407 3.78419 11.4558 4.53211 11.7688 5.41857C11.9237 5.84522 12.002 6.29591 12 6.74982C11.9992 6.81572 12.0115 6.88111 12.0364 6.94215C12.0612 7.00319 12.098 7.05865 12.1446 7.10525C12.1912 7.15184 12.2466 7.18864 12.3077 7.21347C12.3687 7.2383 12.4341 7.25066 12.5 7.24982H15.25C15.3429 7.24982 15.4339 7.22396 15.5129 7.17515C15.5919 7.12633 15.6557 7.05648 15.6972 6.97343C15.7388 6.89038 15.7563 6.7974 15.748 6.70492C15.7397 6.61244 15.7057 6.52411 15.65 6.44982ZM9.82502 9.13107C10.3226 8.74967 10.6882 8.22194 10.8705 7.62204C11.0527 7.02214 11.0424 6.38022 10.8411 5.78647C10.6397 5.19273 10.2574 4.67699 9.74778 4.31172C9.2382 3.94646 8.62699 3.75003 8.00002 3.75003C7.37305 3.75003 6.76184 3.94646 6.25226 4.31172C5.74268 4.67699 5.36034 5.19273 5.15897 5.78647C4.9576 6.38022 4.94731 7.02214 5.12955 7.62204C5.31179 8.22194 5.67741 8.74967 6.17502 9.13107C5.20285 9.56268 4.4147 10.3243 3.95002 11.2811C3.91305 11.3571 3.89649 11.4415 3.90197 11.5258C3.90745 11.6102 3.93477 11.6917 3.98127 11.7623C4.02454 11.8348 4.08588 11.8947 4.15928 11.9364C4.23268 11.978 4.31564 11.9999 4.40002 11.9998H11.6C11.6844 11.9999 11.7674 11.978 11.8408 11.9364C11.9142 11.8947 11.9755 11.8348 12.0188 11.7623C12.0653 11.6917 12.0926 11.6102 12.0981 11.5258C12.1036 11.4415 12.087 11.3571 12.05 11.2811C11.5853 10.3243 10.7972 9.56268 9.82502 9.13107Z" fill="#1796F8"/>
</svg>
