<svg width="32" height="32" viewBox="0 0 32 32" fill="none" xmlns="http://www.w3.org/2000/svg">
<g clip-path="url(#clip0_1310_2565)">
<path d="M16 22.0295C14.6677 22.0295 13.5837 23.1135 13.5837 24.4458C13.5837 25.7781 14.6677 26.8621 16 26.8621C17.3323 26.8621 18.4163 25.7781 18.4163 24.4458C18.4163 23.1135 17.3323 22.0295 16 22.0295V22.0295Z" fill="#594A45"/>
<path d="M20.7083 30.8606C20.7083 29.4668 19.7522 28.292 18.4617 27.9575C17.7642 28.448 16.9155 28.7371 16 28.7371C15.0845 28.7371 14.2358 28.448 13.5383 27.9575C12.2478 28.292 11.2917 29.4668 11.2917 30.8606V31.9966H20.7083V30.8606Z" fill="#594A45"/>
<path d="M32 30.8606C32 29.4668 31.0439 28.292 29.7534 27.9575C29.0559 28.448 28.2073 28.7371 27.2917 28.7371C26.3762 28.7371 25.5273 28.448 24.8301 27.9575C23.5393 28.2922 22.5833 29.4668 22.5833 30.8606V31.9966H32V30.8606Z" fill="#594A45"/>
<path d="M0 31.9966H9.41675V30.8606C9.41675 29.4668 8.46069 28.292 7.16992 27.9575C6.47266 28.448 5.62378 28.7371 4.70825 28.7371C3.79272 28.7371 2.94409 28.448 2.24658 27.9575C0.956055 28.292 0 29.4668 0 30.8606V31.9966Z" fill="#594A45"/>
<path d="M4.70825 26.8621C6.04053 26.8621 7.12451 25.7781 7.12451 24.4458C7.12451 23.1135 6.04053 22.0295 4.70825 22.0295C3.37598 22.0295 2.29224 23.1135 2.29224 24.4458C2.29224 25.7781 3.37598 26.8621 4.70825 26.8621V26.8621Z" fill="#594A45"/>
<path d="M16 5.3894C17.4858 5.3894 18.6948 4.18066 18.6948 2.69482C18.6948 1.20898 17.4858 0 16 0C14.5142 0 13.3052 1.20898 13.3052 2.69482C13.3052 4.18066 14.5142 5.3894 16 5.3894Z" fill="#594A45"/>
<path d="M27.2917 22.0295C25.9595 22.0295 24.8755 23.1135 24.8755 24.4458C24.8755 25.7781 25.9595 26.8621 27.2917 26.8621C28.624 26.8621 29.7078 25.7781 29.7078 24.4458C29.7078 23.1135 28.624 22.0295 27.2917 22.0295V22.0295Z" fill="#594A45"/>
<path d="M25.4167 14.8115V10.874H21.1772V9.56592C21.1772 8.03564 20.1377 6.74414 18.728 6.35864C17.9661 6.92725 17.0217 7.2644 16 7.2644C14.9783 7.2644 14.0339 6.92725 13.272 6.35864C11.8623 6.74414 10.8228 8.03564 10.8228 9.56592V10.874H6.58325V14.8115H25.4167Z" fill="#594A45"/>
<path d="M7.83496 21.5112C8.5564 22.2793 8.99951 23.3115 8.99951 24.4458C8.99951 25.1716 8.81787 25.8557 8.49829 26.4558C9.23779 26.8062 9.87524 27.3369 10.3538 27.9915C10.8325 27.3367 11.4702 26.8059 12.2097 26.4551C11.8904 25.8552 11.7087 25.1714 11.7087 24.4458C11.7087 22.0796 13.6338 20.1545 16 20.1545C18.366 20.1545 20.291 22.0796 20.291 24.4458C20.291 25.1716 20.1094 25.8557 19.7898 26.4558C20.5293 26.8062 21.1667 27.3372 21.6455 27.9915C22.1243 27.3369 22.762 26.8059 23.5015 26.4553C23.1821 25.8555 23.0002 25.1714 23.0002 24.4458C23.0002 23.3115 23.4436 22.2793 24.165 21.511V16.6865H7.83496V21.5112Z" fill="#594A45"/>
</g>
<defs>
<clipPath id="clip0_1310_2565">
<rect width="32" height="32" fill="white"/>
</clipPath>
</defs>
</svg>
