<svg width="32" height="32" viewBox="0 0 32 32" fill="none" xmlns="http://www.w3.org/2000/svg">
<g clip-path="url(#clip0_1310_2452)">
<path d="M22.5625 5.625C24.1158 5.625 25.375 4.3658 25.375 2.8125C25.375 1.2592 24.1158 0 22.5625 0C21.0092 0 19.75 1.2592 19.75 2.8125C19.75 4.3658 21.0092 5.625 22.5625 5.625Z" fill="#594A45"/>
<path d="M27.25 11.25V10.3125C27.25 7.72794 25.1471 5.625 22.5625 5.625C19.9779 5.625 17.8125 7.72794 17.8125 10.3125V11.25H27.25Z" fill="#594A45"/>
<path d="M10.375 15H11.3125V17.0943C11.6155 17.0326 11.929 17 12.25 17C13.7817 17 15.1441 17.7386 16 18.8783C16.8559 17.7386 18.2183 17 19.75 17C21.2817 17 22.6441 17.7386 23.5 18.8783C24.3559 17.7386 25.7183 17 27.25 17C27.571 17 27.8845 17.0326 28.1875 17.0943V15H29.125C29.6432 15 30.0625 14.5807 30.0625 14.0625C30.0625 13.5443 29.6432 13.125 29.125 13.125H10.375C9.85681 13.125 9.4375 13.5443 9.4375 14.0625C9.4375 14.5807 9.85681 15 10.375 15Z" fill="#594A45"/>
<path d="M16 24.4968C15.9992 24.4979 15.9982 24.499 15.9974 24.5H16.0026C16.0017 24.4989 16.0008 24.4978 16 24.4968Z" fill="#594A45"/>
<path d="M13.1875 11.25H15.0625V8.5C15.0625 7.98275 15.4827 7.5625 16 7.5625C16.5182 7.5625 16.9375 7.14319 16.9375 6.625C16.9375 6.10681 16.5182 5.6875 16 5.6875C14.4491 5.6875 13.1875 6.94913 13.1875 8.5V11.25Z" fill="#594A45"/>
<path d="M7.5625 21.6875C7.5625 20.1367 6.30081 18.875 4.75 18.875C3.19919 18.875 1.9375 20.1367 1.9375 21.6875C1.9375 23.2383 3.19919 24.5 4.75 24.5C6.30081 24.5 7.5625 23.2383 7.5625 21.6875Z" fill="#594A45"/>
<path d="M15.0625 21.6875C15.0625 20.1367 13.8008 18.875 12.25 18.875C10.6992 18.875 9.4375 20.1367 9.4375 21.6875C9.4375 23.2383 10.6992 24.5 12.25 24.5C13.8008 24.5 15.0625 23.2383 15.0625 21.6875Z" fill="#594A45"/>
<path d="M22.5625 21.6875C22.5625 20.1367 21.3008 18.875 19.75 18.875C18.1992 18.875 16.9375 20.1367 16.9375 21.6875C16.9375 23.2383 18.1992 24.5 19.75 24.5C21.3008 24.5 22.5625 23.2383 22.5625 21.6875Z" fill="#594A45"/>
<path d="M30.0625 21.6875C30.0625 20.1367 28.8008 18.875 27.25 18.875C25.6992 18.875 24.4375 20.1367 24.4375 21.6875C24.4375 23.2383 25.6992 24.5 27.25 24.5C28.8008 24.5 30.0625 23.2383 30.0625 21.6875Z" fill="#594A45"/>
<path d="M30.5882 25.8654C29.6874 24.9849 28.5019 24.5 27.25 24.5C25.7183 24.5 24.3559 25.2386 23.5 26.3783C22.6441 25.2386 21.2817 24.5 19.75 24.5C18.2183 24.5 16.8559 25.2386 16 26.3783C15.1441 25.2386 13.7817 24.5 12.25 24.5C10.7183 24.5 9.35588 25.2386 8.5 26.3783C7.64412 25.2386 6.28175 24.5 4.75 24.5C3.49812 24.5 2.31256 24.9849 1.41181 25.8654C0.501375 26.7553 0 27.9351 0 29.1875V31.0625C0 31.5803 0.41975 32 0.9375 32H31.0625C31.5803 32 32 31.5803 32 31.0625V29.1875C32 27.9351 31.4986 26.7553 30.5882 25.8654Z" fill="#594A45"/>
</g>
<defs>
<clipPath id="clip0_1310_2452">
<rect width="32" height="32" fill="white"/>
</clipPath>
</defs>
</svg>
