<svg width="32" height="32" viewBox="0 0 32 32" fill="none" xmlns="http://www.w3.org/2000/svg">
<path fill-rule="evenodd" clip-rule="evenodd" d="M28.9651 0.520699C29.6594 -0.173566 30.785 -0.173566 31.4793 0.520699C32.1202 1.16156 32.1695 2.16997 31.6272 2.86738L31.4793 3.03486L3.03486 31.4793C2.34059 32.1736 1.21496 32.1736 0.520699 31.4793C-0.120161 30.8384 -0.169458 29.83 0.372808 29.1326L0.520699 28.9651L28.9651 0.520699Z" fill="#6E6F71"/>
<path fill-rule="evenodd" clip-rule="evenodd" d="M0.520699 0.520699C1.16156 -0.120161 2.16997 -0.169458 2.86738 0.372808L3.03486 0.520699L31.4793 28.9651C32.1736 29.6594 32.1736 30.785 31.4793 31.4793C30.8384 32.1202 29.83 32.1695 29.1326 31.6272L28.9651 31.4793L0.520699 3.03486C-0.173566 2.34059 -0.173566 1.21496 0.520699 0.520699Z" fill="#6E6F71"/>
</svg>
