<svg width="16" height="16" viewBox="0 0 16 16" fill="none" xmlns="http://www.w3.org/2000/svg">
<path d="M14.7931 11.7497L9.29934 2.24972C9.16782 2.02123 8.9784 1.83145 8.75017 1.69949C8.52194 1.56753 8.26297 1.49805 7.99934 1.49805C7.73571 1.49805 7.47673 1.56753 7.2485 1.69949C7.02028 1.83145 6.83086 2.02123 6.69934 2.24972L1.20559 11.7497C1.07213 11.977 1.00121 12.2356 1.00002 12.4992C0.998824 12.7628 1.06741 13.022 1.19881 13.2506C1.33021 13.4791 1.51974 13.6688 1.74815 13.8003C1.97657 13.9319 2.23574 14.0007 2.49934 13.9997H13.4993C13.7629 14.0007 14.0221 13.9319 14.2505 13.8003C14.4789 13.6688 14.6685 13.4791 14.7999 13.2506C14.9313 13.022 14.9999 12.7628 14.9987 12.4992C14.9975 12.2356 14.9265 11.977 14.7931 11.7497ZM7.49934 6.49972C7.49934 6.36711 7.55202 6.23993 7.64579 6.14616C7.73955 6.05239 7.86673 5.99972 7.99934 5.99972C8.13195 5.99972 8.25912 6.05239 8.35289 6.14616C8.44666 6.23993 8.49934 6.36711 8.49934 6.49972V8.99972C8.49934 9.13232 8.44666 9.2595 8.35289 9.35327C8.25912 9.44704 8.13195 9.49972 7.99934 9.49972C7.86673 9.49972 7.73955 9.44704 7.64579 9.35327C7.55202 9.2595 7.49934 9.13232 7.49934 8.99972V6.49972ZM7.99934 11.9997C7.851 11.9997 7.706 11.9557 7.58266 11.8733C7.45932 11.7909 7.36319 11.6738 7.30643 11.5367C7.24966 11.3997 7.23481 11.2489 7.26375 11.1034C7.29269 10.9579 7.36412 10.8243 7.46901 10.7194C7.5739 10.6145 7.70753 10.5431 7.85302 10.5141C7.99851 10.4852 8.14931 10.5 8.28635 10.5568C8.4234 10.6136 8.54053 10.7097 8.62294 10.833C8.70535 10.9564 8.74934 11.1014 8.74934 11.2497C8.74934 11.4486 8.67032 11.6394 8.52967 11.78C8.38902 11.9207 8.19825 11.9997 7.99934 11.9997Z" fill="#D00027"/>
</svg>
