<svg width="18" height="20" viewBox="0 0 18 20" fill="none" xmlns="http://www.w3.org/2000/svg">
<path d="M17.8392 2.71357H12.4121V0H5.42714V2.71357H0V4.2212H1.33166V16.5328C1.33166 17.4524 1.69708 18.3343 2.34732 18.9845C2.99753 19.6347 3.87944 20 4.79908 20H13.0905C14.0079 20 14.8872 19.6341 15.5333 18.983C16.1797 18.332 16.5393 17.4499 16.5327 16.5328V4.22124H17.8392L17.8392 2.71357ZM6.93467 1.5074H10.9044V2.71357H6.93467V1.5074ZM15.0251 16.5325C15.0253 17.048 14.8222 17.5426 14.4601 17.9094C14.098 18.2762 13.606 18.4857 13.0906 18.4923H4.79913C4.2793 18.4923 3.78087 18.2859 3.41332 17.9183C3.04579 17.5506 2.83933 17.0522 2.83933 16.5325V4.22097H15.0253L15.0251 16.5325Z" fill="#969696"/>
<path d="M4.72363 6.80908H6.23126V15.3518H4.72363V6.80908Z" fill="#969696"/>
<path d="M8.16602 6.80908H9.67364V15.3518H8.16602V6.80908Z" fill="#969696"/>
<path d="M11.6084 6.80908H13.116V15.3518H11.6084V6.80908Z" fill="#969696"/>
</svg>
