<svg width="16" height="13" viewBox="0 0 16 13" fill="none" xmlns="http://www.w3.org/2000/svg">
<rect width="16" height="13" fill="#E5E5E5"/>
<path d="M15.5 12.0001C15.5 12.1327 15.4473 12.2599 15.3536 12.3536C15.2598 12.4474 15.1326 12.5001 15 12.5001H1C0.867392 12.5001 0.740215 12.4474 0.646447 12.3536C0.552678 12.2599 0.5 12.1327 0.5 12.0001C0.5 11.8675 0.552678 11.7403 0.646447 11.6465C0.740215 11.5527 0.867392 11.5001 1 11.5001H15C15.1326 11.5001 15.2598 11.5527 15.3536 11.6465C15.4473 11.7403 15.5 11.8675 15.5 12.0001ZM1.01875 5.13757C0.988953 5.03278 0.994196 4.92113 1.03368 4.81959C1.07317 4.71806 1.14474 4.6322 1.2375 4.57507L7.7375 0.575072C7.81615 0.525701 7.90714 0.499512 8 0.499512C8.09286 0.499512 8.18385 0.525701 8.2625 0.575072L14.7625 4.57507C14.8549 4.63231 14.9261 4.71807 14.9653 4.81939C15.0046 4.9207 15.0098 5.03205 14.9801 5.13657C14.9505 5.2411 14.8875 5.33312 14.8009 5.39871C14.7143 5.4643 14.6087 5.49988 14.5 5.50007H13V9.50007H14C14.1326 9.50007 14.2598 9.55275 14.3536 9.64652C14.4473 9.74029 14.5 9.86746 14.5 10.0001C14.5 10.1327 14.4473 10.2599 14.3536 10.3536C14.2598 10.4474 14.1326 10.5001 14 10.5001H2C1.86739 10.5001 1.74021 10.4474 1.64645 10.3536C1.55268 10.2599 1.5 10.1327 1.5 10.0001C1.5 9.86746 1.55268 9.74029 1.64645 9.64652C1.74021 9.55275 1.86739 9.50007 2 9.50007H3V5.50007H1.5C1.39128 5.50019 1.28548 5.46486 1.19864 5.39945C1.1118 5.33404 1.04865 5.2421 1.01875 5.13757V5.13757ZM9 9.00007C9 9.13268 9.05268 9.25986 9.14645 9.35363C9.24021 9.44739 9.36739 9.50007 9.5 9.50007C9.63261 9.50007 9.75979 9.44739 9.85355 9.35363C9.94732 9.25986 10 9.13268 10 9.00007V6.00007C10 5.86746 9.94732 5.74029 9.85355 5.64652C9.75979 5.55275 9.63261 5.50007 9.5 5.50007C9.36739 5.50007 9.24021 5.55275 9.14645 5.64652C9.05268 5.74029 9 5.86746 9 6.00007V9.00007ZM6 9.00007C6 9.13268 6.05268 9.25986 6.14645 9.35363C6.24021 9.44739 6.36739 9.50007 6.5 9.50007C6.63261 9.50007 6.75979 9.44739 6.85355 9.35363C6.94732 9.25986 7 9.13268 7 9.00007V6.00007C7 5.86746 6.94732 5.74029 6.85355 5.64652C6.75979 5.55275 6.63261 5.50007 6.5 5.50007C6.36739 5.50007 6.24021 5.55275 6.14645 5.64652C6.05268 5.74029 6 5.86746 6 6.00007V9.00007Z" fill="#1796F8"/>
</svg>
