<svg width="15" height="12" viewBox="0 0 15 12" fill="none" xmlns="http://www.w3.org/2000/svg">
<path d="M15 11.5006C15 11.6332 14.9473 11.7603 14.8536 11.8541C14.7598 11.9479 14.6326 12.0006 14.5 12.0006H0.5C0.367392 12.0006 0.240215 11.9479 0.146447 11.8541C0.0526784 11.7603 0 11.6332 0 11.5006C0 11.368 0.0526784 11.2408 0.146447 11.147C0.240215 11.0532 0.367392 11.0006 0.5 11.0006H14.5C14.6326 11.0006 14.7598 11.0532 14.8536 11.147C14.9473 11.2408 15 11.368 15 11.5006ZM0.51875 4.63806C0.488953 4.53327 0.494196 4.42162 0.533682 4.32008C0.573168 4.21855 0.644736 4.13269 0.7375 4.07556L7.2375 0.0755601C7.31615 0.026189 7.40714 0 7.5 0C7.59286 0 7.68385 0.026189 7.7625 0.0755601L14.2625 4.07556C14.3549 4.1328 14.4261 4.21856 14.4653 4.31988C14.5046 4.42119 14.5098 4.53253 14.4801 4.63706C14.4505 4.74159 14.3875 4.83361 14.3009 4.8992C14.2143 4.96478 14.1087 5.00037 14 5.00056H12.5V9.00056H13.5C13.6326 9.00056 13.7598 9.05324 13.8536 9.14701C13.9473 9.24077 14 9.36795 14 9.50056C14 9.63317 13.9473 9.76035 13.8536 9.85411C13.7598 9.94788 13.6326 10.0006 13.5 10.0006H1.5C1.36739 10.0006 1.24021 9.94788 1.14645 9.85411C1.05268 9.76035 1 9.63317 1 9.50056C1 9.36795 1.05268 9.24077 1.14645 9.14701C1.24021 9.05324 1.36739 9.00056 1.5 9.00056H2.5V5.00056H1C0.891279 5.00067 0.785484 4.96535 0.698643 4.89994C0.611802 4.83452 0.548648 4.74259 0.51875 4.63806V4.63806ZM8.5 8.50056C8.5 8.63317 8.55268 8.76035 8.64645 8.85411C8.74021 8.94788 8.86739 9.00056 9 9.00056C9.13261 9.00056 9.25979 8.94788 9.35355 8.85411C9.44732 8.76035 9.5 8.63317 9.5 8.50056V5.50056C9.5 5.36795 9.44732 5.24078 9.35355 5.14701C9.25979 5.05324 9.13261 5.00056 9 5.00056C8.86739 5.00056 8.74021 5.05324 8.64645 5.14701C8.55268 5.24078 8.5 5.36795 8.5 5.50056V8.50056ZM5.5 8.50056C5.5 8.63317 5.55268 8.76035 5.64645 8.85411C5.74021 8.94788 5.86739 9.00056 6 9.00056C6.13261 9.00056 6.25979 8.94788 6.35355 8.85411C6.44732 8.76035 6.5 8.63317 6.5 8.50056V5.50056C6.5 5.36795 6.44732 5.24078 6.35355 5.14701C6.25979 5.05324 6.13261 5.00056 6 5.00056C5.86739 5.00056 5.74021 5.05324 5.64645 5.14701C5.55268 5.24078 5.5 5.36795 5.5 5.50056V8.50056Z" fill="#1796F8"/>
</svg>
