<svg width="32" height="32" viewBox="0 0 32 32" fill="none" xmlns="http://www.w3.org/2000/svg">
<g clip-path="url(#clip0_1317_2201)">
<path d="M14.2267 29.4738H8.6131V31.9687H14.2267V29.4738Z" fill="#594A45"/>
<path d="M23.3301 29.4738H17.7166V31.9687H23.3301V29.4738Z" fill="#594A45"/>
<path d="M3.81021 29.474C3.08651 29.474 2.4977 28.8851 2.4977 28.1614V26.9139H0.00274658V28.1614C0.00274658 30.2609 1.71069 31.9689 3.81021 31.9689H5.05765V29.474H3.81021V29.474Z" fill="#594A45"/>
<path d="M29.4429 26.9139V28.1614C29.4429 28.8851 28.8541 29.474 28.1303 29.474H26.8829V31.9689H28.1303C30.2299 31.9689 31.9378 30.2609 31.9378 28.1614V26.9139H29.4429Z" fill="#594A45"/>
<path d="M14.2267 0.0310669H8.6131V2.52602H14.2267V0.0310669Z" fill="#594A45"/>
<path d="M23.3301 0.0310669H17.7166V2.52602H23.3301V0.0310669Z" fill="#594A45"/>
<path d="M3.81021 0.0310669C1.7107 0.0310669 0.00268555 1.73908 0.00268555 3.83859V5.08603H2.49764H2.4977V3.83859C2.4977 3.11483 3.08645 2.52602 3.81021 2.52602H5.05765V0.0310669H3.81021Z" fill="#594A45"/>
<path d="M28.1303 0.0310669H26.8829V2.52602H28.1303C28.854 2.52602 29.4429 3.11483 29.4429 3.83859V5.08603H31.9378V3.83859C31.9378 1.73908 30.2299 0.0310669 28.1303 0.0310669Z" fill="#594A45"/>
<path d="M2.49495 18.0569H0V23.6705H2.49495V18.0569Z" fill="#594A45"/>
<path d="M2.49495 8.95294H0V14.5665H2.49495V8.95294Z" fill="#594A45"/>
<path d="M32 18.0569H29.505V23.6705H32V18.0569Z" fill="#594A45"/>
<path d="M32 8.95294H29.505V14.5665H32V8.95294Z" fill="#594A45"/>
</g>
<defs>
<clipPath id="clip0_1317_2201">
<rect width="32" height="32" fill="white"/>
</clipPath>
</defs>
</svg>
