<svg width="14" height="11" viewBox="0 0 14 11" fill="none" xmlns="http://www.w3.org/2000/svg">
<mask id="path-1-outside-1_12_2" maskUnits="userSpaceOnUse" x="0.375" y="-0.5" width="13" height="11" fill="black">
<rect fill="white" x="0.375" y="-0.5" width="13" height="11"/>
<path d="M12.4511 2.40502C11.252 -0.767294 7.35968 0.656019 6.99968 2.24021C6.50468 0.551957 2.70781 -0.707481 1.54906 2.40727C0.258868 5.87639 6.54968 8.98983 6.99987 9.50002C7.44931 9.09464 13.7407 5.81771 12.4511 2.40502"/>
</mask>
<path d="M12.4511 2.40502C11.252 -0.767294 7.35968 0.656019 6.99968 2.24021C6.50468 0.551957 2.70781 -0.707481 1.54906 2.40727C0.258868 5.87639 6.54968 8.98983 6.99987 9.50002C7.44931 9.09464 13.7407 5.81771 12.4511 2.40502" fill="white"/>
<path d="M6.99968 2.24021L6.51988 2.38089L7.06104 4.22656L7.48725 2.351L6.99968 2.24021ZM1.54906 2.40727L1.08043 2.23293L1.08042 2.23298L1.54906 2.40727ZM6.99987 9.50002L6.62496 9.83084L6.9594 10.2099L7.33475 9.8713L6.99987 9.50002ZM12.9188 2.22824C12.5806 1.33369 12.0362 0.727791 11.3796 0.377122C10.73 0.0302308 10.0099 -0.0462876 9.34398 0.0433999C8.67974 0.132866 8.04601 0.390236 7.54631 0.743086C7.05628 1.08911 6.63964 1.56823 6.51211 2.12941L7.48725 2.351C7.53972 2.12009 7.74462 1.82723 8.12312 1.55996C8.49195 1.29952 8.97374 1.1023 9.47746 1.03445C9.97954 0.966826 10.4798 1.03028 10.9085 1.25922C11.3302 1.48439 11.7219 1.89019 11.9833 2.5818L12.9188 2.22824ZM7.47948 2.09953C7.31357 1.53366 6.89055 1.05337 6.38653 0.704823C5.87678 0.352312 5.24226 0.104068 4.58193 0.0260654C3.91988 -0.0521405 3.2115 0.0390315 2.57651 0.392988C1.93546 0.750323 1.40718 1.35463 1.08043 2.23293L2.01768 2.58161C2.27031 1.90253 2.65117 1.49624 3.0634 1.26645C3.48169 1.03329 3.97073 0.96082 4.46462 1.01916C4.96022 1.0777 5.44016 1.2662 5.81775 1.52731C6.20108 1.7924 6.43829 2.10262 6.51988 2.38089L7.47948 2.09953ZM1.08042 2.23298C0.695561 3.2678 0.888243 4.26321 1.35086 5.14052C1.80763 6.00674 2.53918 6.78467 3.2938 7.44061C4.05262 8.10019 4.86246 8.65988 5.50135 9.08166C5.85323 9.31396 6.06892 9.45004 6.30747 9.60798C6.4121 9.67724 6.49409 9.73324 6.55467 9.77765C6.62468 9.82897 6.63606 9.84342 6.62496 9.83084L7.37478 9.1692C7.3074 9.09284 7.21688 9.02318 7.14591 8.97115C7.06551 8.91221 6.96744 8.84561 6.85949 8.77415C6.67289 8.65061 6.33333 8.43265 6.0523 8.24712C5.42536 7.83323 4.65873 7.30207 3.94984 6.68588C3.23676 6.06605 2.60938 5.38327 2.23542 4.67409C1.86731 3.976 1.75746 3.2813 2.0177 2.58156L1.08042 2.23298ZM7.33475 9.8713C7.33219 9.87361 7.35399 9.85565 7.42722 9.80669C7.49224 9.76322 7.57768 9.70844 7.68422 9.64073C7.89468 9.50698 8.17697 9.32942 8.49793 9.11767C9.13962 8.6943 9.94965 8.12538 10.7086 7.45501C11.4633 6.78841 12.1936 5.99897 12.6495 5.12828C13.1105 4.24802 13.3055 3.25178 12.9188 2.22827L11.9833 2.58177C12.2414 3.2646 12.1337 3.95774 11.7636 4.66439C11.3886 5.38061 10.7597 6.07562 10.0466 6.70551C9.33775 7.33163 8.57126 7.87125 7.94722 8.28297C7.63531 8.48875 7.36243 8.66037 7.14784 8.79675C7.04186 8.86411 6.94731 8.92463 6.87143 8.97537C6.80375 9.02061 6.72372 9.07576 6.66498 9.12873L7.33475 9.8713Z" fill="#D00027" mask="url(#path-1-outside-1_12_2)"/>
</svg>
