<svg width="20" height="15" viewBox="0 0 20 15" fill="none" xmlns="http://www.w3.org/2000/svg">
<path d="M10 7.49268L0.00976562 2.43902V1.24878C0.00976562 0.897561 0.133343 0.601626 0.380497 0.360976C0.627652 0.120325 0.920335 0 1.25855 0H18.7415C19.0797 0 19.3724 0.120325 19.6195 0.360976C19.8667 0.601626 19.9903 0.897561 19.9903 1.24878V2.43902L10 7.49268ZM9.37562 8.74146H10.6244L19.9903 3.88293V13.7366C19.9903 14.0748 19.8667 14.3675 19.6195 14.6146C19.3724 14.8618 19.0797 14.9854 18.7415 14.9854H1.25855C0.920335 14.9854 0.627652 14.8618 0.380497 14.6146C0.133343 14.3675 0.00976562 14.0748 0.00976562 13.7366V3.88293L9.37562 8.74146Z" fill="#59595B"/>
</svg>
