<svg width="24" height="24" viewBox="0 0 24 24" fill="none" xmlns="http://www.w3.org/2000/svg">
<path d="M15.75 14.25C19.0637 14.25 21.75 11.5637 21.75 8.25C21.75 4.93629 19.0637 2.25 15.75 2.25C12.4363 2.25 9.75 4.93629 9.75 8.25C9.75 11.5637 12.4363 14.25 15.75 14.25Z" stroke="#594A45" stroke-width="2" stroke-linecap="round" stroke-linejoin="round"/>
<path d="M19.9977 12.4969L11.5039 4.00317" stroke="#594A45" stroke-width="2" stroke-linecap="round" stroke-linejoin="round"/>
<path d="M9.375 14.625L8.25 15.75" stroke="#594A45" stroke-width="2" stroke-linecap="round" stroke-linejoin="round"/>
<path d="M9.82542 9.17822L2.6348 18.9845C2.52671 19.1284 2.47471 19.3067 2.48851 19.4861C2.50231 19.6655 2.58098 19.8338 2.7098 19.9595L4.04105 21.2907C4.16671 21.4195 4.33498 21.4982 4.51441 21.512C4.69384 21.5258 4.87216 21.4738 5.01605 21.3657L14.8223 14.1751" stroke="#594A45" stroke-width="2" stroke-linecap="round" stroke-linejoin="round"/>
</svg>
