<svg width="150" height="150" viewBox="0 0 150 150" fill="none" xmlns="http://www.w3.org/2000/svg">
<rect width="150" height="150" fill="#E5E5E5"/>
<g opacity="0.2">
<path d="M110.028 93.1111C105.564 88.275 100.148 84.4156 94.1193 81.7759C88.0908 79.1362 81.5811 77.7735 75 77.7735C68.4189 77.7735 61.9092 79.1362 55.8807 81.7759C49.8522 84.4156 44.4357 88.275 39.9722 93.1111C39.2831 93.8731 38.8976 94.8615 38.8889 95.8889V112.556C38.9035 113.651 39.3489 114.697 40.1287 115.466C40.9086 116.235 41.96 116.667 43.0556 116.667H106.944C108.05 116.667 109.109 116.228 109.891 115.446C110.672 114.665 111.111 113.605 111.111 112.5V95.8333C111.089 94.8252 110.704 93.8588 110.028 93.1111V93.1111Z" fill="black"/>
<path d="M75.0001 72.2219C85.739 72.2219 94.4445 63.5163 94.4445 52.7775C94.4445 42.0386 85.739 33.333 75.0001 33.333C64.2612 33.333 55.5557 42.0386 55.5557 52.7775C55.5557 63.5163 64.2612 72.2219 75.0001 72.2219Z" fill="black"/>
</g>
</svg>
