<svg width="24" height="24" viewBox="0 0 24 24" fill="none" xmlns="http://www.w3.org/2000/svg">
<circle cx="12" cy="12" r="12" fill="white"/>
<path d="M16.125 10.2797V15.75C16.125 15.8495 16.0855 15.9448 16.0152 16.0152C15.9448 16.0855 15.8495 16.125 15.75 16.125H8.25C8.15054 16.125 8.05516 16.0855 7.98484 16.0152C7.91451 15.9448 7.875 15.8495 7.875 15.75V8.25C7.875 8.15055 7.91451 8.05516 7.98484 7.98484C8.05516 7.91451 8.15054 7.875 8.25 7.875H13.7203C13.769 7.87483 13.8173 7.88427 13.8623 7.90277C13.9073 7.92127 13.9483 7.94847 13.9828 7.98281L16.0172 10.0172C16.0515 10.0517 16.0787 10.0927 16.0972 10.1377C16.1157 10.1827 16.1252 10.231 16.125 10.2797V10.2797Z" stroke="#0A58CA" stroke-linecap="round" stroke-linejoin="round"/>
<path d="M9.75 16.125V13.125C9.75 13.0255 9.78951 12.9302 9.85984 12.8598C9.93016 12.7895 10.0255 12.75 10.125 12.75H13.875C13.9745 12.75 14.0698 12.7895 14.1402 12.8598C14.2105 12.9302 14.25 13.0255 14.25 13.125V16.125" stroke="#0A58CA" stroke-linecap="round" stroke-linejoin="round"/>
<path d="M13.125 9.375H10.5" stroke="#0A58CA" stroke-linecap="round" stroke-linejoin="round"/>
</svg>
