<svg width="12" height="12" viewBox="0 0 12 12" fill="none" xmlns="http://www.w3.org/2000/svg">
<path d="M10.125 4.27969V9.75C10.125 9.84946 10.0855 9.94484 10.0152 10.0152C9.94484 10.0855 9.84946 10.125 9.75 10.125H2.25C2.15054 10.125 2.05516 10.0855 1.98484 10.0152C1.91451 9.94484 1.875 9.84946 1.875 9.75V2.25C1.875 2.15055 1.91451 2.05516 1.98484 1.98484C2.05516 1.91451 2.15054 1.875 2.25 1.875H7.72031C7.76901 1.87483 7.81726 1.88427 7.8623 1.90277C7.90734 1.92127 7.9483 1.94847 7.98281 1.98281L10.0172 4.01719C10.0515 4.05171 10.0787 4.09266 10.0972 4.1377C10.1157 4.18275 10.1252 4.231 10.125 4.27969V4.27969Z" stroke="#1796F8" stroke-linecap="round" stroke-linejoin="round"/>
<path d="M3.75 10.125V7.125C3.75 7.02554 3.78951 6.93016 3.85984 6.85983C3.93016 6.78951 4.02554 6.75 4.125 6.75H7.875C7.97446 6.75 8.06984 6.78951 8.14017 6.85983C8.21049 6.93016 8.25 7.02554 8.25 7.125V10.125" stroke="#1796F8" stroke-linecap="round" stroke-linejoin="round"/>
<path d="M7.125 3.375H4.5" stroke="#1796F8" stroke-linecap="round" stroke-linejoin="round"/>
</svg>
