<svg width="32" height="32" viewBox="0 0 32 32" fill="none" xmlns="http://www.w3.org/2000/svg">
<g clip-path="url(#clip0_1310_2439)">
<path d="M23.8995 19.5284C23.7166 19.5284 23.5377 19.5075 23.3652 19.4678V25.7321C23.5091 25.7866 23.6618 25.8249 23.825 25.8249C24.5481 25.8249 25.1342 25.239 25.1342 24.5158V19.1613C24.9761 19.2588 24.814 19.3519 24.6321 19.4111C24.3949 19.4889 24.1483 19.5284 23.8995 19.5284Z" fill="#594A45"/>
<path d="M31.6194 14.8621L29.4228 8.10872C29.1293 7.20734 28.2956 6.60144 27.3473 6.60144H23.9552C23.1677 6.60144 22.4791 7.03301 22.0933 7.69079C22.955 8.04529 23.6466 8.75417 23.9489 9.68282L26.145 16.435C26.2445 16.7405 26.2805 17.0559 26.2529 17.3672C26.2422 17.4922 26.1977 17.6057 26.1683 17.7248V24.5158C26.1683 25.2389 26.7544 25.8249 27.4775 25.8249C28.2006 25.8249 28.7867 25.2389 28.7867 24.5158V14.518L29.159 15.6624C29.3367 16.2088 29.8439 16.5565 30.3889 16.5565C30.5213 16.5565 30.6563 16.5356 30.7893 16.4924C31.2992 16.3266 31.6355 15.8746 31.6782 15.3725C31.6935 15.2045 31.6746 15.0315 31.6194 14.8621Z" fill="#594A45"/>
<path d="M24.7344 5.53374C25.0237 5.63256 25.3286 5.69794 25.6513 5.69794C25.9741 5.69794 26.279 5.63256 26.5682 5.53374C27.6892 5.15061 28.5006 4.10002 28.5006 2.84926C28.5005 1.27575 27.2248 0 25.6513 0C24.0778 0 22.8021 1.27575 22.8021 2.84926C22.8021 4.10002 23.6134 5.15061 24.7344 5.53374Z" fill="#594A45"/>
<path d="M17.4929 21.6639C17.3101 21.6639 17.1311 21.643 16.9586 21.6034V27.6529C17.0801 27.6901 17.2018 27.7289 17.3355 27.7289C18.0586 27.7289 18.6448 27.143 18.6448 26.4199V21.338C18.5093 21.4145 18.3775 21.4971 18.2255 21.5466C17.9882 21.6244 17.7417 21.6639 17.4929 21.6639Z" fill="#594A45"/>
<path d="M22.9335 10.0128C22.6399 9.11139 21.8062 8.50549 20.8578 8.50549H17.4659C16.8478 8.50549 16.2958 8.78111 15.8929 9.20982C15.8173 9.31176 15.7359 9.40876 15.651 9.50284C15.5994 9.58192 15.5624 9.67081 15.521 9.75722C16.4613 10.0842 17.2207 10.83 17.5424 11.8184L19.7385 18.5707C19.8381 18.8761 19.8741 19.1916 19.8465 19.5028C19.8259 19.7446 19.7673 19.976 19.6791 20.1929V26.4199C19.6791 27.143 20.265 27.7289 20.9883 27.7289C21.7113 27.7289 22.2975 27.143 22.2975 26.4199V16.4221L22.6697 17.5665C22.8474 18.1129 23.3547 18.4606 23.8995 18.4606C24.032 18.4606 24.167 18.4397 24.2999 18.3965C24.8099 18.2307 25.1462 17.7786 25.189 17.2766C25.204 17.1087 25.1853 16.9356 25.13 16.7661L22.9335 10.0128Z" fill="#594A45"/>
<path d="M18.2449 7.43779C18.5342 7.53668 18.839 7.60206 19.1618 7.60206C19.4845 7.60206 19.7895 7.53668 20.0787 7.43779C21.1998 7.05466 22.0111 6.00407 22.0111 4.75332C22.0111 3.17974 20.7353 1.90405 19.1618 1.90405C17.5883 1.90405 16.3126 3.17974 16.3126 4.75332C16.3126 6.00407 17.124 7.05466 18.2449 7.43779Z" fill="#594A45"/>
<path d="M16.5269 12.1483C16.2333 11.247 15.3996 10.6411 14.4513 10.6411H11.0593C10.4412 10.6411 9.8891 10.9167 9.48623 11.3453C9.41059 11.4473 9.3293 11.5443 9.24431 11.6383C9.19276 11.7173 9.15575 11.8062 9.11426 11.8927C10.0545 12.2196 10.8139 12.9655 11.1357 13.9538L13.3318 20.7061C13.4313 21.0115 13.4674 21.327 13.4398 21.6382C13.4192 21.8801 13.3606 22.1115 13.2723 22.3283V28.5553C13.2723 29.2785 13.8583 29.8644 14.5815 29.8644C15.3046 29.8644 15.8907 29.2785 15.8907 28.5553V18.5576L16.2629 19.702C16.4407 20.2484 16.948 20.5961 17.4928 20.5961C17.6253 20.5961 17.7602 20.5752 17.8932 20.5321C18.4031 20.3662 18.7395 19.9142 18.7822 19.4121C18.7973 19.2442 18.7786 19.0711 18.7232 18.9017L16.5269 12.1483Z" fill="#594A45"/>
<path d="M11.0862 23.7994C10.9034 23.7994 10.7245 23.7785 10.5519 23.7389V29.7884C10.6734 29.8256 10.7951 29.8644 10.9288 29.8644C11.6519 29.8644 12.2381 29.2785 12.2381 28.5553V23.4735C12.1026 23.5499 11.9708 23.6326 11.8189 23.6821C11.5816 23.7599 11.3351 23.7994 11.0862 23.7994Z" fill="#594A45"/>
<path d="M11.8383 9.57329C12.1276 9.67218 12.4324 9.73749 12.7551 9.73749C13.0779 9.73749 13.3829 9.67211 13.6721 9.57329C14.7931 9.19016 15.6045 8.13964 15.6045 6.88881C15.6045 5.3153 14.3287 4.03955 12.7551 4.03955C11.1817 4.03955 9.90594 5.31524 9.90594 6.88881C9.90594 8.13957 10.7174 9.19016 11.8383 9.57329Z" fill="#594A45"/>
<path d="M10.1203 14.2839C9.8268 13.3825 8.99307 12.7766 8.04468 12.7766H4.65269C3.7043 12.7766 2.87063 13.3825 2.5771 14.2839L0.380545 21.0372C0.325292 21.2066 0.306528 21.3797 0.321591 21.5476C0.364378 22.0497 0.700636 22.5017 1.21051 22.6675C1.34348 22.7107 1.47853 22.7317 1.61091 22.7317C2.15578 22.7317 2.66306 22.3839 2.84083 21.8375L3.21306 20.6931V30.6909C3.21306 31.414 3.79909 32 4.52225 32C5.24541 32 5.83138 31.414 5.83138 30.6909V22.8678H6.86579V30.6909C6.86579 31.4141 7.45183 32.0001 8.17499 32.0001C8.89814 32.0001 9.48418 31.4141 9.48418 30.6909V20.6931L9.85634 21.8375C10.0341 22.3839 10.5414 22.7317 11.0862 22.7317C11.2187 22.7317 11.3536 22.7108 11.4866 22.6675C11.9965 22.5017 12.3329 22.0497 12.3756 21.5476C12.3907 21.3797 12.372 21.2066 12.3166 21.0372L10.1203 14.2839Z" fill="#594A45"/>
<path d="M5.43181 11.7089C5.72106 11.8077 6.02596 11.8731 6.34871 11.8731C6.67147 11.8731 6.97637 11.8077 7.26562 11.7089C8.38658 11.3257 9.19798 10.2751 9.19798 9.02437C9.19798 7.4508 7.92222 6.17511 6.34871 6.17511C4.7752 6.17511 3.49945 7.4508 3.49945 9.02437C3.49939 10.2751 4.31078 11.3257 5.43181 11.7089Z" fill="#594A45"/>
</g>
<defs>
<clipPath id="clip0_1310_2439">
<rect width="32" height="32" fill="white"/>
</clipPath>
</defs>
</svg>
