<svg width="32" height="32" viewBox="0 0 32 32" fill="none" xmlns="http://www.w3.org/2000/svg">
<path d="M28.5 16.21V2.57C20.2269 1.15351 11.7731 1.15351 3.5 2.57V16.21C11.8072 15.2765 20.1928 15.2765 28.5 16.21V16.21Z" fill="#594A45"/>
<path d="M2.5 2.74298L1.5 2.91948V16.4375L2.5 16.32V2.74298Z" fill="#594A45"/>
<path d="M29.5 2.74298V16.32L30.5 16.4375V2.91948L29.5 2.74298Z" fill="#594A45"/>
<path d="M10 24.5155C10.3641 24.0201 10.8983 23.6765 11.5 23.5505V23C11.5 22.6022 11.342 22.2206 11.0607 21.9393C10.7794 21.658 10.3978 21.5 10 21.5C9.60218 21.5 9.22064 21.658 8.93934 21.9393C8.65804 22.2206 8.5 22.6022 8.5 23V23.55C9.10183 23.6762 9.63594 24.02 10 24.5155V24.5155Z" fill="#594A45"/>
<path d="M13.5 26C13.5 25.6022 13.342 25.2206 13.0607 24.9393C12.7794 24.658 12.3978 24.5 12 24.5C11.6022 24.5 11.2206 24.658 10.9393 24.9393C10.658 25.2206 10.5 25.6022 10.5 26V28.5H13.5V26Z" fill="#594A45"/>
<path d="M16 21.5155C16.3641 21.0201 16.8983 20.6765 17.5 20.5505V20C17.5 19.6022 17.342 19.2206 17.0607 18.9393C16.7794 18.658 16.3978 18.5 16 18.5C15.6022 18.5 15.2206 18.658 14.9393 18.9393C14.658 19.2206 14.5 19.6022 14.5 20V20.55C15.1018 20.6762 15.6359 21.02 16 21.5155V21.5155Z" fill="#594A45"/>
<path d="M14 24.5155C14.3641 24.0201 14.8983 23.6765 15.5 23.5505V23C15.5 22.6022 15.342 22.2206 15.0607 21.9393C14.7794 21.658 14.3978 21.5 14 21.5C13.6022 21.5 13.2206 21.658 12.9393 21.9393C12.658 22.2206 12.5 22.6022 12.5 23V23.55C13.1018 23.6762 13.6359 24.02 14 24.5155V24.5155Z" fill="#594A45"/>
<path d="M8 21.5155C8.36415 21.0201 8.89825 20.6765 9.5 20.5505V20C9.5 19.6022 9.34196 19.2206 9.06066 18.9393C8.77936 18.658 8.39782 18.5 8 18.5C7.60218 18.5 7.22064 18.658 6.93934 18.9393C6.65804 19.2206 6.5 19.6022 6.5 20V20.55C7.10183 20.6762 7.63594 21.02 8 21.5155V21.5155Z" fill="#594A45"/>
<path d="M26.5 26V28.5H29.5V26C29.5 25.6022 29.342 25.2206 29.0607 24.9393C28.7794 24.658 28.3978 24.5 28 24.5C27.6022 24.5 27.2206 24.658 26.9393 24.9393C26.658 25.2206 26.5 25.6022 26.5 26V26Z" fill="#594A45"/>
<path d="M4.5 23V23.55C5.10175 23.676 5.63585 24.0196 6 24.515C6.36415 24.0196 6.89825 23.676 7.5 23.55V23C7.5 22.6022 7.34196 22.2206 7.06066 21.9393C6.77936 21.658 6.39782 21.5 6 21.5C5.60218 21.5 5.22064 21.658 4.93934 21.9393C4.65804 22.2206 4.5 22.6022 4.5 23Z" fill="#594A45"/>
<path d="M9.5 26C9.5 25.6022 9.34196 25.2206 9.06066 24.9393C8.77936 24.658 8.39782 24.5 8 24.5C7.60218 24.5 7.22064 24.658 6.93934 24.9393C6.65804 25.2206 6.5 25.6022 6.5 26V28.5H9.5V26Z" fill="#594A45"/>
<path d="M17.5 26C17.5 25.6022 17.342 25.2206 17.0607 24.9393C16.7794 24.658 16.3978 24.5 16 24.5C15.6022 24.5 15.2206 24.658 14.9393 24.9393C14.658 25.2206 14.5 25.6022 14.5 26V28.5H17.5V26Z" fill="#594A45"/>
<path d="M12 21.5155C12.3641 21.0201 12.8983 20.6765 13.5 20.5505V20C13.5 19.6022 13.342 19.2206 13.0607 18.9393C12.7794 18.658 12.3978 18.5 12 18.5C11.6022 18.5 11.2206 18.658 10.9393 18.9393C10.658 19.2206 10.5 19.6022 10.5 20V20.55C11.1018 20.6762 11.6359 21.02 12 21.5155V21.5155Z" fill="#594A45"/>
<path d="M26 24.5155C26.3641 24.0201 26.8983 23.6765 27.5 23.5505V23C27.5 22.6022 27.342 22.2206 27.0607 21.9393C26.7794 21.658 26.3978 21.5 26 21.5C25.6022 21.5 25.2206 21.658 24.9393 21.9393C24.658 22.2206 24.5 22.6022 24.5 23V23.55C25.1018 23.6762 25.6359 24.02 26 24.5155V24.5155Z" fill="#594A45"/>
<path d="M2.5 28.5H5.5V26C5.5 25.6022 5.34196 25.2206 5.06066 24.9393C4.77936 24.658 4.39782 24.5 4 24.5C3.60218 24.5 3.22064 24.658 2.93934 24.9393C2.65804 25.2206 2.5 25.6022 2.5 26V28.5Z" fill="#594A45"/>
<path d="M25.5 26C25.5 25.6022 25.342 25.2206 25.0607 24.9393C24.7794 24.658 24.3978 24.5 24 24.5C23.6022 24.5 23.2206 24.658 22.9393 24.9393C22.658 25.2206 22.5 25.6022 22.5 26V28.5H25.5V26Z" fill="#594A45"/>
<path d="M30 29.5H2C1.86739 29.5 1.74021 29.5527 1.64645 29.6464C1.55268 29.7402 1.5 29.8674 1.5 30C1.5 30.1326 1.55268 30.2598 1.64645 30.3536C1.74021 30.4473 1.86739 30.5 2 30.5H30C30.1326 30.5 30.2598 30.4473 30.3536 30.3536C30.4473 30.2598 30.5 30.1326 30.5 30C30.5 29.8674 30.4473 29.7402 30.3536 29.6464C30.2598 29.5527 30.1326 29.5 30 29.5Z" fill="#594A45"/>
<path d="M24 21.5155C24.3641 21.0201 24.8983 20.6765 25.5 20.5505V20C25.5 19.6022 25.342 19.2206 25.0607 18.9393C24.7794 18.658 24.3978 18.5 24 18.5C23.6022 18.5 23.2206 18.658 22.9393 18.9393C22.658 19.2206 22.5 19.6022 22.5 20V20.55C23.1018 20.6762 23.6359 21.02 24 21.5155V21.5155Z" fill="#594A45"/>
<path d="M18 24.5155C18.3641 24.0201 18.8983 23.6765 19.5 23.5505V23C19.5 22.6022 19.342 22.2206 19.0607 21.9393C18.7794 21.658 18.3978 21.5 18 21.5C17.6022 21.5 17.2206 21.658 16.9393 21.9393C16.658 22.2206 16.5 22.6022 16.5 23V23.55C17.1018 23.6762 17.6359 24.02 18 24.5155V24.5155Z" fill="#594A45"/>
<path d="M21.5 26C21.5 25.6022 21.342 25.2206 21.0607 24.9393C20.7794 24.658 20.3978 24.5 20 24.5C19.6022 24.5 19.2206 24.658 18.9393 24.9393C18.658 25.2206 18.5 25.6022 18.5 26V28.5H21.5V26Z" fill="#594A45"/>
<path d="M20 21.5155C20.3641 21.0201 20.8983 20.6765 21.5 20.5505V20C21.5 19.6022 21.342 19.2206 21.0607 18.9393C20.7794 18.658 20.3978 18.5 20 18.5C19.6022 18.5 19.2206 18.658 18.9393 18.9393C18.658 19.2206 18.5 19.6022 18.5 20V20.55C19.1018 20.6762 19.6359 21.02 20 21.5155V21.5155Z" fill="#594A45"/>
<path d="M22 24.5155C22.3641 24.0201 22.8983 23.6765 23.5 23.5505V23C23.5 22.6022 23.342 22.2206 23.0607 21.9393C22.7794 21.658 22.3978 21.5 22 21.5C21.6022 21.5 21.2206 21.658 20.9393 21.9393C20.658 22.2206 20.5 22.6022 20.5 23V23.55C21.1018 23.6762 21.6359 24.02 22 24.5155V24.5155Z" fill="#594A45"/>
</svg>
