<svg width="15" height="14" viewBox="0 0 15 14" fill="none" xmlns="http://www.w3.org/2000/svg">
<path d="M14.3223 5.55862L11.2501 8.55341L11.9756 12.7832C12.0072 12.9681 11.9312 13.1551 11.7793 13.2656C11.6935 13.3282 11.5914 13.3598 11.4893 13.3598C11.4109 13.3598 11.3319 13.341 11.2599 13.303L7.46122 11.306L3.66299 13.3025C3.49727 13.3903 3.29555 13.376 3.14364 13.2651C2.99173 13.1546 2.91578 12.9677 2.94734 12.7827L3.67286 8.55291L0.600145 5.55862C0.465992 5.42743 0.417164 5.23113 0.475363 5.05308C0.533562 4.87503 0.687937 4.74433 0.873878 4.7172L5.11994 4.10069L7.01881 0.252648C7.18502 -0.084216 7.73742 -0.084216 7.90363 0.252648L9.8025 4.10069L14.0486 4.7172C14.2345 4.74433 14.3889 4.87454 14.4471 5.05308C14.5053 5.23162 14.4564 5.42693 14.3223 5.55862Z" fill="#DBDBDB"/>
</svg>
