<svg width="32" height="32" viewBox="0 0 32 32" fill="none" xmlns="http://www.w3.org/2000/svg">
<path d="M0.432434 13.8111C0.432434 13.3335 0.819605 12.9463 1.2973 12.9463H3.89189V11.2166H3.02703C1.59409 11.2166 0.432434 12.3781 0.432434 13.8111Z" fill="#594A45"/>
<path d="M0.432434 13.8111C0.432434 15.244 1.59409 16.4057 3.02703 16.4057H3.89189V14.676H1.2973C0.819605 14.676 0.432434 14.2886 0.432434 13.8111Z" fill="#594A45"/>
<path d="M0.432434 13.8111C0.432434 14.2888 0.819605 14.676 1.2973 14.676H3.89189V12.9462H1.2973C0.819605 12.9462 0.432434 13.3334 0.432434 13.8111Z" fill="#594A45"/>
<path d="M0.432434 6.02703C0.432434 5.54933 0.819605 5.16216 1.2973 5.16216H3.89189V3.43243H3.02703C1.59409 3.43243 0.432434 4.59409 0.432434 6.02703Z" fill="#594A45"/>
<path d="M0.432434 6.02692C0.432434 7.45985 1.59409 8.62151 3.02703 8.62151H3.89189V6.89178H1.2973C0.819605 6.89178 0.432434 6.50461 0.432434 6.02692Z" fill="#594A45"/>
<path d="M0.432434 6.02697C0.432434 6.50467 0.819605 6.89184 1.2973 6.89184H3.89189V5.16211H1.2973C0.819605 5.16211 0.432434 5.54928 0.432434 6.02697Z" fill="#594A45"/>
<path d="M0.432434 21.5945C0.432434 21.1168 0.819605 20.7297 1.2973 20.7297H3.89189V18.9999H3.02703C1.59409 18.9999 0.432434 20.1616 0.432434 21.5945Z" fill="#594A45"/>
<path d="M0.432434 21.5947C0.432434 23.0276 1.59409 24.1893 3.02703 24.1893H3.89189V22.4595H1.2973C0.819605 22.4595 0.432434 22.0724 0.432434 21.5947Z" fill="#594A45"/>
<path d="M0.432434 21.5947C0.432434 22.0724 0.819605 22.4595 1.2973 22.4595H3.89189V20.7298H1.2973C0.819605 20.7298 0.432434 21.117 0.432434 21.5947Z" fill="#594A45"/>
<path d="M31.5676 13.8109C31.5676 14.2886 31.1804 14.6758 30.7027 14.6758H28.1081V16.4055H28.973C30.4059 16.4055 31.5676 15.2438 31.5676 13.8109Z" fill="#594A45"/>
<path d="M31.5676 13.8105C31.5676 12.3776 30.4059 11.2159 28.973 11.2159H28.1081V12.9457H30.7027C31.1804 12.9458 31.5676 13.333 31.5676 13.8105Z" fill="#594A45"/>
<path d="M31.5676 13.8107C31.5676 13.333 31.1804 12.9459 30.7027 12.9459H28.1081V14.6756H30.7027C31.1804 14.6756 31.5676 14.2883 31.5676 13.8107Z" fill="#594A45"/>
<path d="M31.5676 21.5947C31.5676 22.0724 31.1804 22.4595 30.7027 22.4595H28.1081V24.1893H28.973C30.4059 24.1893 31.5676 23.0276 31.5676 21.5947Z" fill="#594A45"/>
<path d="M31.5676 21.5945C31.5676 20.1616 30.4059 18.9999 28.973 18.9999H28.1081V20.7297H30.7027C31.1804 20.7297 31.5676 21.1168 31.5676 21.5945Z" fill="#594A45"/>
<path d="M31.5676 21.5947C31.5676 21.117 31.1804 20.7298 30.7027 20.7298H28.1081V22.4595H30.7027C31.1804 22.4595 31.5676 22.0724 31.5676 21.5947Z" fill="#594A45"/>
<path d="M31.5676 6.02692C31.5676 6.50461 31.1804 6.89178 30.7027 6.89178H28.1081V8.62151H28.973C30.4059 8.62151 31.5676 7.45985 31.5676 6.02692Z" fill="#594A45"/>
<path d="M31.5676 6.02703C31.5676 4.59409 30.4059 3.43243 28.973 3.43243H28.1081V5.16216H30.7027C31.1804 5.16216 31.5676 5.54933 31.5676 6.02703Z" fill="#594A45"/>
<path d="M31.5676 6.02697C31.5676 5.54928 31.1804 5.16211 30.7027 5.16211H28.1081V6.89184H30.7027C31.1804 6.89184 31.5676 6.50467 31.5676 6.02697Z" fill="#594A45"/>
<path d="M16.0003 29.3783C15.5226 29.3783 15.1354 28.9911 15.1354 28.5134V25.9188H13.4057V26.7837C13.4057 28.2166 14.5674 29.3783 16.0003 29.3783Z" fill="#594A45"/>
<path d="M16.0003 29.3783C17.4332 29.3783 18.5949 28.2166 18.5949 26.7837V25.9188H16.8651V28.5134C16.8651 28.9911 16.478 29.3783 16.0003 29.3783Z" fill="#594A45"/>
<path d="M16.0003 29.3783C16.478 29.3783 16.8652 28.9911 16.8652 28.5134V25.9188H15.1354V28.5134C15.1354 28.9911 15.5226 29.3783 16.0003 29.3783Z" fill="#594A45"/>
<path d="M8.21636 29.3783C7.73867 29.3783 7.35149 28.9911 7.35149 28.5134V25.9188H5.62177V26.7837C5.62177 28.2166 6.78342 29.3783 8.21636 29.3783Z" fill="#594A45"/>
<path d="M8.21649 29.3783C9.64943 29.3783 10.8111 28.2166 10.8111 26.7837V25.9188H9.08136V28.5134C9.08121 28.9911 8.69404 29.3783 8.21649 29.3783Z" fill="#594A45"/>
<path d="M8.21634 29.3783C8.69403 29.3783 9.0812 28.9911 9.0812 28.5134V25.9188H7.35147V28.5134C7.35147 28.9911 7.73879 29.3783 8.21634 29.3783Z" fill="#594A45"/>
<path d="M23.7839 29.3783C23.3062 29.3783 22.919 28.9911 22.919 28.5134V25.9188H21.1893V26.7837C21.1893 28.2166 22.351 29.3783 23.7839 29.3783Z" fill="#594A45"/>
<path d="M23.7839 29.3783C25.2169 29.3783 26.3785 28.2166 26.3785 26.7837V25.9188H24.6488V28.5134C24.6488 28.9911 24.2616 29.3783 23.7839 29.3783Z" fill="#594A45"/>
<path d="M23.7839 29.3783C24.2616 29.3783 24.6488 28.9911 24.6488 28.5134V25.9188H22.919V28.5134C22.919 28.9911 23.3064 29.3783 23.7839 29.3783Z" fill="#594A45"/>
<path d="M24.937 24.1892C25.7331 24.1892 26.3784 23.5439 26.3784 22.7477V3.43243H21.1892V19V24.1892H24.937Z" fill="#594A45"/>
<path d="M7.06305 24.1892H10.7498V19H10.8108V3.43243H5.62161V22.7477C5.62161 23.5439 6.26695 24.1892 7.06305 24.1892Z" fill="#594A45"/>
<path d="M10.7499 24.1891H21.1892V18.9999H10.8109H10.7499V24.1891Z" fill="#594A45"/>
<path d="M24.9369 24.6216H7.06305C6.02983 24.6216 5.18918 23.781 5.18918 22.7477V3.43243C5.18918 3.19359 5.38276 3 5.62161 3H10.8108C11.0496 3 11.2432 3.19359 11.2432 3.43243V18.5676H20.7567V3.43243C20.7567 3.19359 20.9503 3 21.1892 3H26.3784C26.6172 3 26.8108 3.19359 26.8108 3.43243V22.7477C26.8108 23.781 25.9701 24.6216 24.9369 24.6216ZM6.05404 3.86486V22.7477C6.05404 23.3041 6.5068 23.7568 7.06305 23.7568H24.9369C25.4932 23.7568 25.9459 23.3041 25.9459 22.7477V3.86486H21.6216V19C21.6216 19.2388 21.428 19.4324 21.1892 19.4324H10.8108C10.572 19.4324 10.3784 19.2388 10.3784 19V3.86486H6.05404Z" fill="#594A45"/>
<path d="M3.89189 24.6216H3.02703C1.35798 24.6216 0 23.2637 0 21.5945C0 19.9253 1.35798 18.5675 3.02703 18.5675H3.89189C4.13074 18.5675 4.32432 18.7611 4.32432 18.9999V24.1891C4.32432 24.428 4.13074 24.6216 3.89189 24.6216ZM3.02703 19.4324C1.83481 19.4324 0.864865 20.4023 0.864865 21.5945C0.864865 22.7867 1.83481 23.7567 3.02703 23.7567H3.45946V19.4324H3.02703Z" fill="#594A45"/>
<path d="M3.89189 16.8378H3.02703C1.35798 16.8378 0 15.48 0 13.8108C0 12.1416 1.35798 10.7838 3.02703 10.7838H3.89189C4.13074 10.7838 4.32432 10.9773 4.32432 11.2162V16.4054C4.32432 16.6442 4.13074 16.8378 3.89189 16.8378ZM3.02703 11.6486C1.83481 11.6486 0.864865 12.6186 0.864865 13.8108C0.864865 15.003 1.83481 15.9729 3.02703 15.9729H3.45946V11.6486H3.02703Z" fill="#594A45"/>
<path d="M3.89189 9.05405H3.02703C1.35798 9.05405 0 7.69622 0 6.02703C0 4.35784 1.35798 3 3.02703 3H3.89189C4.13074 3 4.32432 3.19359 4.32432 3.43243V8.62162C4.32432 8.86047 4.13074 9.05405 3.89189 9.05405ZM3.02703 3.86486C1.83481 3.86486 0.864865 4.83481 0.864865 6.02703C0.864865 7.21924 1.83481 8.18919 3.02703 8.18919H3.45946V3.86486H3.02703Z" fill="#594A45"/>
<path d="M28.973 24.6216H28.1081C27.8692 24.6216 27.6757 24.428 27.6757 24.1891V18.9999C27.6757 18.7611 27.8692 18.5675 28.1081 18.5675H28.973C30.642 18.5675 32 19.9253 32 21.5945C32 23.2637 30.642 24.6216 28.973 24.6216ZM28.5405 23.7567H28.973C30.1652 23.7567 31.1351 22.7867 31.1351 21.5945C31.1351 20.4023 30.1652 19.4324 28.973 19.4324H28.5405V23.7567Z" fill="#594A45"/>
<path d="M28.973 16.8378H28.1081C27.8692 16.8378 27.6757 16.6442 27.6757 16.4054V11.2162C27.6757 10.9773 27.8692 10.7838 28.1081 10.7838H28.973C30.642 10.7838 32 12.1416 32 13.8108C32 15.48 30.642 16.8378 28.973 16.8378ZM28.5405 15.9729H28.973C30.1652 15.9729 31.1351 15.003 31.1351 13.8108C31.1351 12.6186 30.1652 11.6486 28.973 11.6486H28.5405V15.9729Z" fill="#594A45"/>
<path d="M28.973 9.05405H28.1081C27.8692 9.05405 27.6757 8.86047 27.6757 8.62162V3.43243C27.6757 3.19359 27.8692 3 28.1081 3H28.973C30.642 3 32 4.35784 32 6.02703C32 7.69622 30.642 9.05405 28.973 9.05405ZM28.5405 8.18919H28.973C30.1652 8.18919 31.1351 7.21924 31.1351 6.02703C31.1351 4.83481 30.1652 3.86486 28.973 3.86486H28.5405V8.18919Z" fill="#594A45"/>
<path d="M8.21636 29.8107C6.54731 29.8107 5.18933 28.4529 5.18933 26.7837V25.9188C5.18933 25.68 5.38292 25.4864 5.62176 25.4864H10.811C11.0498 25.4864 11.2434 25.68 11.2434 25.9188V26.7837C11.2434 28.4529 9.8854 29.8107 8.21636 29.8107ZM6.0542 26.3513V26.7837C6.0542 27.9759 7.02414 28.9458 8.21636 28.9458C9.40857 28.9458 10.3785 27.9759 10.3785 26.7837V26.3513H6.0542Z" fill="#594A45"/>
<path d="M16.0001 29.8107C14.3311 29.8107 12.9731 28.4529 12.9731 26.7837V25.9188C12.9731 25.68 13.1667 25.4864 13.4055 25.4864H18.5947C18.8336 25.4864 19.0271 25.68 19.0271 25.9188V26.7837C19.0271 28.4529 17.6692 29.8107 16.0001 29.8107ZM13.8379 26.3513V26.7837C13.8379 27.9759 14.8079 28.9458 16.0001 28.9458C17.1923 28.9458 18.1623 27.9759 18.1623 26.7837V26.3513H13.8379Z" fill="#594A45"/>
<path d="M23.7839 29.8107C22.1149 29.8107 20.7569 28.4529 20.7569 26.7837V25.9188C20.7569 25.68 20.9505 25.4864 21.1893 25.4864H26.3785C26.6174 25.4864 26.811 25.68 26.811 25.9188V26.7837C26.811 28.4529 25.453 29.8107 23.7839 29.8107ZM21.6218 26.3513V26.7837C21.6218 27.9759 22.5917 28.9458 23.7839 28.9458C24.9761 28.9458 25.9461 27.9759 25.9461 26.7837V26.3513H21.6218Z" fill="#594A45"/>
</svg>
