<svg width="22" height="22" viewBox="0 0 22 22" fill="none" xmlns="http://www.w3.org/2000/svg">
<path d="M19.5219 5.6563C20.0138 6.80501 20.1343 8.07881 19.8663 9.29936C19.5983 10.5199 18.9554 11.6261 18.0275 12.4631C17.0996 13.3001 15.9331 13.8259 14.6915 13.9671C13.4499 14.1082 12.1952 13.8575 11.1031 13.25V13.25L5.84375 19.3438C5.42106 19.7665 4.84777 20.0039 4.25 20.0039C3.65222 20.0039 3.07894 19.7665 2.65625 19.3438C2.23356 18.9211 1.99609 18.3478 1.99609 17.75C1.99609 17.1523 2.23356 16.579 2.65625 16.1563L8.75 10.8969C8.14258 9.80485 7.89188 8.55017 8.03299 7.30854C8.1741 6.06691 8.69996 4.90049 9.53694 3.97257C10.3739 3.04466 11.4801 2.40171 12.7007 2.13374C13.9212 1.86578 15.195 1.98621 16.3437 2.47817L12.4062 6.4063L12.9406 9.05942L15.5937 9.5938L19.5219 5.6563Z" stroke="#594A45" stroke-width="2" stroke-linecap="round" stroke-linejoin="round"/>
</svg>
