<?xml version="1.0" standalone="no"?>
<!DOCTYPE svg PUBLIC "-//W3C//DTD SVG 1.1//EN" "http://www.w3.org/Graphics/SVG/1.1/DTD/svg11.dtd" >
<svg xmlns="http://www.w3.org/2000/svg" xmlns:xlink="http://www.w3.org/1999/xlink" version="1.1">
<metadata>
Created by FontForge 20170731 at Thu Mar 29 00:31:18 2012
 By Aleksey,,,
Copyright (c) 2011-2012, Nathan Willis (nwillis@glyphography.com), with Reserved Font Names "Della Respira"
</metadata>
<defs>
<font id="DellaRespira-Regular" horiz-adv-x="600" >
  <font-face 
    font-family="Della Respira"
    font-weight="500"
    font-stretch="normal"
    units-per-em="2048"
    panose-1="2 0 6 3 0 0 0 0 0 0"
    ascent="1638"
    descent="-410"
    x-height="953"
    cap-height="1638"
    bbox="-119 -616.766 3287 2201.5"
    underline-thickness="102"
    underline-position="-408"
    unicode-range="U+0020-FB06"
  />
<missing-glyph horiz-adv-x="748" 
d="M68 0v1365h544v-1365h-544zM136 68h408v1229h-408v-1229z" />
    <glyph glyph-name=".notdef" horiz-adv-x="748" 
d="M68 0v1365h544v-1365h-544zM136 68h408v1229h-408v-1229z" />
    <glyph glyph-name=".null" horiz-adv-x="0" 
 />
    <glyph glyph-name="nonmarkingreturn" horiz-adv-x="682" 
 />
    <glyph glyph-name="space" unicode=" " horiz-adv-x="512" 
 />
    <glyph glyph-name="exclam" unicode="!" horiz-adv-x="446" 
d="M235 6q-11 -10 -21 0l-90 93q-9 12 0 24l90 97q11 10 21 0l93 -97q10 -13 0 -24zM126.5 1466q16.5 14 57 23t81 0t56.5 -23t16 -23q-30 -310 -40.5 -545.5t-10.5 -570.5q0 -41 -62 -41t-62 41q0 345 -10 578.5t-41 537.5q-1 9 15.5 23z" />
    <glyph glyph-name="quotedbl" unicode="&#x22;" horiz-adv-x="773" 
d="M466 1450q-43 39 -26 62l112 121q13 11 26 0l116 -121q11 -16 0 -31l-66 -71l-182 -218q-21 -25 -58 14q-7 7 37.5 65.5t58.5 78.5q28 39 2 82q-2 1 -20 18zM146 1450q-43 39 -26 62l112 121q13 11 26 0l116 -121q11 -16 0 -31l-66 -71l-182 -218q-21 -25 -58 14
q-7 7 37.5 65.5t58.5 78.5q28 39 2 82q-2 1 -20 18z" />
    <glyph glyph-name="numbersign" unicode="#" horiz-adv-x="1203" 
d="M521 996l-89 -362h256l87 362h-254zM285 31q-6 -26 -30.5 -31.5t-58.5 11.5q-12 7 -8 26l96 395h-155q-12 0 -20 11t-4 23q43 91 60 119.5t19.5 33t3.5 5.5q2 2 5 6t10 4h129l88 362h-231q-12 0 -20 11t-4 23q43 91 60 119.5t19.5 33t3.5 5.5q2 2 5 6t10 4h206l103 427
q2 6 19.5 11t32.5 1t31 -16t14 -18l-99 -405h253l103 427q2 6 19 11t32 1t31.5 -16t14.5 -18l-98 -405h157q12 0 20 -11t4 -23l-76 -146q-11 -22 -22 -22h-132l-88 -362h234q12 0 20 -11t4 -23l-76 -146q-11 -22 -22 -22h-209l-97 -401q-6 -26 -31 -31.5t-59 11.5
q-12 7 -8 26l95 395h-256z" />
    <glyph glyph-name="dollar" unicode="$" horiz-adv-x="1137" 
d="M498 1018q24 -16 27.5 -18.5t9.5 -2.5t10.5 7.5t15.5 149.5l19 244q-89 23 -155.5 -42.5t-66.5 -135.5t34 -112l22 -24q13 -15 37 -33zM616 740l-49 -641q22 -15 95.5 19t99.5 60q98 100 98 238q0 84 -30 140t-98 120l-38 34q-43 38 -55.5 39t-18.5 -2q-4 -6 -4 -7z
M548 -188q0 -35 -22 -35q-38 0 -63 1q-12 0 -12 25l21 194q0 8 -11 12.5t-12 4.5q-292 86 -292 374q0 79 29 137q5 12 14.5 12t14.5 -4l187 -116q8 -5 8 -19.5t-9 -24t-17.5 -7.5t-19 5.5t-25.5 3.5t-35 -19t-20 -43q0 -75 49 -130.5t117 -74.5q9 -3 14 -3t11 2l57 700
q-26 21 -66 49l-69 49q-78 54 -109 100q-58 87 -58 179q0 171 100 239t259 84q4 93 5 112t50.5 19t49.5 -27q-2 -22 -7 -56l-8 -56q224 -52 228 -76q9 -55 28 -215q0 -23 -38 -23q-5 0 -27 27l-48 60q-26 34 -64 65.5t-65 37t-27 -8.5q-11 -142 -30 -427q181 -114 203 -134
l50 -47q27 -26 41 -47l31 -53q47 -81 47 -213q0 -199 -119.5 -323.5t-315.5 -124.5q-8 0 -17 -6z" />
    <glyph glyph-name="percent" unicode="%" horiz-adv-x="1324" 
d="M1217 1633q6 -5 8 -13v-164q0 -17 -9 -30l-1068 -1426q-8 -9 -21.5 -2t-15.5 20v164q2 21 8 30l944 1261q-131 -55 -272 -55t-258 39q37 -104 37 -223.5t-27 -215t-82 -157t-113.5 -61.5t-99.5 28.5t-69 77t-49 111.5t-27.5 132.5t-5.5 138.5q3 137 64.5 243.5
t175.5 106.5q86 -1 145 -82q114 -48 260.5 -48t258 34t144.5 96q66 0 72 -5zM863 776q55 62 128.5 62t128.5 -64q104 -120 104 -355t-109 -357q-55 -62 -126 -62t-126 63q-108 124 -108 358t108 355zM987 751q-96 0 -96 -328t96 -328t96 328t-96 328zM333 1551
q-96 0 -96 -328t96 -328t96 328t-96 328z" />
    <glyph glyph-name="ampersand" unicode="&#x26;" horiz-adv-x="1747" 
d="M767 1049q0 -28 -13 -28h-120q-117 0 -222 -76q-183 -133 -184 -353q0 -90 45 -174.5t116 -145t162.5 -97t166.5 -36.5t127 16t88.5 42t66.5 61q51 60 75.5 134.5t24 117t-38.5 46.5h-338q-113 0 -138.5 -19.5t-36 -34.5t-16 -15t-20 5t-14.5 9t14 35l32 74
q18 42 25 66.5t17 27.5h928q72 0 120 48q4 4 10.5 17t25 13t18.5 -14q-17 -117 -43 -187q-9 -23 -36 -25q-60 -4 -163 1.5t-156 -0.5t-53 -37q0 -139 -79 -288q-142 -268 -480 -268q-107 0 -220 44t-196.5 122t-132.5 192.5t-49 222t20 179.5q36 130 113 212t177 150v6
q-92 72 -118 124.5t-26 123.5q0 149 93.5 242t235.5 93q50 0 125 -27q15 -6 33 6t38.5 12t30.5 -19q4 -3 3 -21q-1 -23 24 -133l25 -109q10 -44 10 -56q0 -6 -25.5 -18.5t-29.5 -5.5l-66 145q-50 88 -147.5 88t-149.5 -51.5t-52 -142.5q0 -51 36 -95q75 -91 204 -91h120
q13 0 13 -28v-80z" />
    <glyph glyph-name="quotesingle" unicode="'" horiz-adv-x="475" 
d="M157 1450q-43 39 -26 62l112 121q13 11 26 0l116 -121q11 -16 0 -31l-66 -71l-182 -218q-21 -25 -58 14q-7 7 37.5 65.5t58.5 78.5q28 39 2 82q-2 1 -20 18z" />
    <glyph glyph-name="parenleft" unicode="(" horiz-adv-x="917" 
d="M283.5 991q-46.5 -153 -46.5 -309t31 -284q58 -237 211 -417.5t372 -307.5q42 -21 42 -29v-46q0 -6 -7.5 -9t-14.5 -1q-238 95 -422 266.5t-283.5 382.5t-99.5 427.5t99.5 428t283.5 383.5t422 267q7 2 14.5 -1t7.5 -9v-46q0 -15 -42 -29q-271 -158 -435 -392
q-86 -122 -132.5 -275z" />
    <glyph glyph-name="parenright" unicode=")" horiz-adv-x="917" 
d="M633.5 340q46.5 153 46.5 309t-31 284q-58 237 -211 417.5t-372 307.5q-42 21 -42 29v46q0 6 7.5 9t14.5 1q238 -95 422 -266.5t283.5 -382.5t99.5 -427.5t-99.5 -428t-283.5 -383.5t-422 -267q-7 -2 -14.5 1t-7.5 9v46q0 15 42 29q271 158 435 392q86 122 132.5 275z
" />
    <glyph glyph-name="asterisk" unicode="*" horiz-adv-x="840" 
d="M376 1460q-39 31 -39 75.5t29 73.5t70 29t70 -29t29 -75t-43 -76l-33 -167l132 110q7 49 49 73q23 14 49 14q57 0 82 -42.5t14 -82t-46 -60.5q-48 -26 -92 -5l-160 -54l159 -60q44 19 83.5 -3.5t50 -62t-9.5 -74.5t-60 -45.5t-79.5 12.5t-44.5 74l-127 112l28 -168
q39 -31 39 -75t-29 -73t-70 -29t-70 29t-29 74.5t43 75.5l33 168l-132 -110q-7 -49 -45.5 -71.5t-78 -11.5t-60.5 46t-10 74.5t52 63t86 1.5l161 54l-160 61q-44 -19 -83.5 3t-50 61.5t9.5 74.5t60 46t79.5 -12t44.5 -75l127 -111z" />
    <glyph glyph-name="plus" unicode="+" horiz-adv-x="1186" 
d="M1086 817q0 -14 -17 -14h-401v-401q0 -17 -14 -17h-122q-14 0 -14 17v401h-401q-17 0 -17 14v122q0 14 17 14h401v401q0 17 14 17h122q14 0 14 -17v-401h401q17 0 17 -14v-122z" />
    <glyph glyph-name="comma" unicode="," horiz-adv-x="475" 
d="M157 91q-43 39 -26 62l112 121q13 11 26 0l116 -121q11 -16 0 -31l-66 -71l-182 -218q-21 -25 -58 14q-7 7 37.5 66t58.5 79q28 39 2 81q-2 1 -20 18z" />
    <glyph glyph-name="hyphen" unicode="-" horiz-adv-x="513" 
d="M1 550q0 17 6 20l481 255q8 4 16 0t9 -12v-129q0 -17 -5 -20l-481 -255q-8 -4 -16.5 0t-9.5 12v129z" />
    <glyph glyph-name="period" unicode="." horiz-adv-x="448" 
d="M246 6q-14 -10 -26 0l-112 116q-11 16 0 31l112 121q13 11 26 0l116 -121q11 -16 0 -31z" />
    <glyph glyph-name="slash" unicode="/" horiz-adv-x="1105" 
d="M1025 1611q13 -6 5 -21l-816 -1602q-8 -14 -20 -8l-108 55q-13 6 -5 21l816 1602q8 14 20 8z" />
    <glyph glyph-name="zero" unicode="0" horiz-adv-x="997" 
d="M499 1529q64 0 112 -69.5t73 -180.5q48 -213 48 -495.5t-69 -495.5q-25 -77 -67.5 -128t-96.5 -51t-97 51q-74 89 -105 286t-31 346.5t11.5 262.5t36.5 224t73 180.5t112 69.5zM499 -19q97 0 180 82t135 209q112 270 112 558q0 203 -77.5 437t-199.5 333q-71 57 -150 57
t-150 -57q-124 -99 -200.5 -333t-76.5 -404t29.5 -317t82 -274t135.5 -209t180 -82z" />
    <glyph glyph-name="one" unicode="1" horiz-adv-x="579" 
d="M199 175v1138q0 46 -16 62t-46.5 17.5t-30.5 17.5q0 24 13 38l191 187q3 3 10 3h64q9 0 9 -18v-1445q0 -106 48 -124q29 -11 29 -23q0 -28 -13 -28h-323q-13 0 -13 18t8 23t21 10q30 12 40 42.5t9 81.5z" />
    <glyph glyph-name="two" unicode="2" horiz-adv-x="1076" 
d="M99 0q-10 0 -7 43t7 48q134 155 216 260q84 105 166 233q152 236 253 568q42 160 -42 292q-55 88 -141.5 87.5t-141.5 -71t-68 -163.5q-5 -38 7.5 -63.5t32.5 -51.5l23 -30q4 -6 -4.5 -25.5t-20.5 -16.5l-234 119q0 72 32.5 149t86.5 139t130 102t156 40
q170 0 274 -125.5t104 -314.5q0 -247 -249 -611q-68 -100 -136 -180l-122 -143q-56 -63 -91 -98l-35 -35q21 0 110 -3q125 -4 264 8t195 77q2 3 44 42q5 -4 23 -7.5t18 -19.5t-44.5 -132.5t-57.5 -116.5h-748z" />
    <glyph glyph-name="three" unicode="3" horiz-adv-x="1014" 
d="M825 1325q-1 -212 -259 -315v-7q154 -33 248 -140.5t94 -236.5t-46 -226q-86 -182 -300 -291t-466 -109q-16 0 -23 34t-2.5 55.5t8.5 25t10 7t9 6.5q26 -2 68 -2t118.5 17.5t153.5 56t138 93.5t99.5 138.5t38.5 181.5q0 136 -92 225t-224 89h-17q-24 0 -24 17l1 102
q0 17 28 17h7q102 0 170.5 80.5t68.5 176t-49 152t-136 56.5q-50 0 -88 -39.5t-38 -70t16 -53.5t16 -29t-15 -23t-22.5 -17t-18.5 8l-49 32q-69 44 -94 69t-25 30t1 6q40 92 127.5 153.5t226 61.5t240 -92t101.5 -239z" />
    <glyph glyph-name="four" unicode="4" horiz-adv-x="1043" 
d="M630 590h-504q-8 0 -8 6v105l561 924q11 12 14 13h121q10 0 10 -13v-900l3 -2q62 27 91 78q4 7 8 5l46 -22q2 -2 -22.5 -62t-69.5 -140q-6 -10 -20.5 -1t-31.5 9q-4 0 -4 -11v-404q0 -105 49 -124q29 -11 29 -23q0 -28 -13 -28h-325q-13 0 -13 18t8 23t21 10
q29 11 39.5 40.5t10.5 83.5v415zM267 718h363v612h-4l-359 -601q-7 -11 0 -11z" />
    <glyph glyph-name="five" unicode="5" horiz-adv-x="1023" 
d="M107 0q-20 0 -20 52t18 56q347 80 525 256q138 135 137 314.5t-211 229.5q-179 42 -438 -59q-9 -3 -12.5 6.5t-1.5 20.5l105 743q2 19 16 19q37 1 325.5 -2t328.5 23q4 3 14.5 14t36.5 11t26 -16l-1 -5q0 -26 -27.5 -66.5t-55.5 -66.5q-66 -62 -174 -62h-374l-60 -418
q6 -3 8 -2q169 55 290 55q158 0 267 -115.5t109 -282.5q0 -125 -56 -234.5t-142 -186t-199 -136.5q-202 -108 -425 -147q-3 -1 -9 -1z" />
    <glyph glyph-name="six" unicode="6" horiz-adv-x="1032" 
d="M346 815l3 77q0 9 10 16q93 56 180.5 56t147.5 -28q109 -53 170.5 -181.5t61.5 -251.5t-26 -210t-73.5 -157t-121.5 -112t-173 -42t-188 53t-143 141q-112 181 -111.5 409t106.5 432t293 364t428 257q7 2 14.5 -1t7.5 -9v-46q0 -9 -12 -14.5t-30 -14.5
q-613 -355 -613 -980q0 -99 28.5 -203t87.5 -182t123 -78q119 0 164 94t45 196t-13.5 176.5t-41.5 138.5t-77.5 102.5t-97 38.5t-90.5 -26t-51 -26t-8 11z" />
    <glyph glyph-name="seven" unicode="7" horiz-adv-x="967" 
d="M485 21q0 -21 -15 -21h-217q-65 0 -65 21.5t19 137.5q57 345 255 755l102 204q79 151 127 223l70 107q5 7 4 15.5t-7 8.5h-516q-35 0 -73 -52q-15 -20 -21 -24.5t-20 0.5q-42 12 -34 30q6 9 26 49l58 109q30 54 42 54q90 0 348.5 4t348.5 0q24 0 29 -20q4 -41 3.5 -43.5
t-6.5 -44.5q-1 -3 -14 -23q-177 -266 -333.5 -635t-188.5 -655q-11 -105 22 -143q15 -17 29 -17q27 0 27 -25v-15z" />
    <glyph glyph-name="eight" unicode="8" horiz-adv-x="1036" 
d="M336 638q-55 -90 -55 -215t72.5 -219.5t174 -94.5t174.5 89t73 209q0 159 -198 325l-88 71q-98 -75 -153 -165zM544 1000q97 70 148.5 140t51.5 168t-64.5 159.5t-158.5 61.5t-158.5 -60t-64.5 -153q0 -120 150 -242q36 -30 96 -74zM654 917q208 -161 259 -319
q22 -68 22 -170.5t-53.5 -210.5t-147 -172t-189.5 -64t-174 35t-137.5 95t-95.5 145.5t-36 173.5q0 167 78.5 268t201.5 189q-120 98 -185.5 192.5t-65.5 214.5q0 158 116 260.5t281.5 102.5t273 -103.5t107.5 -274.5t-176 -305z" />
    <glyph glyph-name="nine" unicode="9" horiz-adv-x="1028" 
d="M673 853q16 0 18 -12q4 -23 1 -36.5t-5 -32.5q-3 -27 -73 -48.5t-118 -21.5q-120 0 -210 66q-180 133 -180 416q-1 167 91 314q100 159 283 159q100 0 190 -58.5t143 -158.5q106 -199 106 -476q0 -133 -48 -279.5t-126 -274.5q-167 -272 -383 -410q-10 -6 -27.5 -4.5
t-20.5 1.5q-38 0 -38 23q0 17 17 27.5t21 13.5q196 168 303.5 403t107.5 524q0 189 -58 357q-28 82 -78.5 133t-106.5 51q-107 0 -147 -103q-34 -87 -34.5 -198t24 -202.5t80.5 -153.5t134 -62t118 32q13 10 16 11z" />
    <glyph glyph-name="colon" unicode=":" horiz-adv-x="448" 
d="M246 591q-14 -11 -26 0l-112 116q-11 15 0 31l112 121q13 11 26 0l116 -121q11 -16 0 -31zM246 6q-14 -10 -26 0l-112 116q-11 16 0 31l112 121q13 11 26 0l116 -121q11 -16 0 -31z" />
    <glyph glyph-name="semicolon" unicode=";" horiz-adv-x="475" 
d="M157 91q-43 39 -26 62l112 121q13 11 26 0l116 -121q11 -16 0 -31l-66 -71l-182 -218q-21 -25 -58 14q-7 7 37.5 66t58.5 79q28 39 2 81q-2 1 -20 18zM269 591q-14 -11 -26 0l-112 116q-11 15 0 31l112 121q13 11 26 0l116 -121q11 -16 0 -31z" />
    <glyph glyph-name="less" unicode="&#x3c;" horiz-adv-x="1093" 
d="M1027 1242q8 -11 -6 -21l-741 -519l741 -520q14 -10 6 -21l-70 -100q-9 -12 -22 -2l-862 604q-9 6 -9 38.5t9 38.5l862 604q13 10 22 -2z" />
    <glyph glyph-name="equal" unicode="=" horiz-adv-x="1136" 
d="M1061 517q0 -14 -17 -14h-952q-17 0 -17 14v122q0 14 17 14h952q17 0 17 -14v-122zM1061 817q0 -14 -17 -14h-952q-17 0 -17 14v122q0 14 17 14h952q17 0 17 -14v-122z" />
    <glyph glyph-name="greater" unicode="&#x3e;" horiz-adv-x="1093" 
d="M67 161q-8 11 6 21l741 519l-741 520q-14 10 -6 21l70 100q9 12 22 2l862 -604q9 -6 9 -38.5t-9 -38.5l-862 -604q-13 -10 -22 2z" />
    <glyph glyph-name="question" unicode="?" horiz-adv-x="788" 
d="M367 0q-11 -10 -21 0l-90 93q-9 12 0 24l90 97q10 10 21 0l93 -97q10 -13 0 -24zM280 192q-50 28 -50 106q0 156 87 306l162 270q87 149 87 310q0 78 -45.5 133.5t-113.5 55.5t-110 -54q-67 -87 -8 -146q10 -10 1.5 -43.5t-23.5 -31.5q-88 54 -135 99q-26 23 4 101
q48 126 166 170q46 18 101 17q140 0 230 -100.5t90.5 -244t-87.5 -270.5l-176 -249q-104 -145 -135 -302q-2 -20 -2.5 -24t2 -23.5t2.5 -24t1.5 -7t2.5 -3.5t-2 -4.5t-18 -27t-31 -13.5z" />
    <glyph glyph-name="at" unicode="@" horiz-adv-x="1892" 
d="M1067 576q17 12 33 21t34 27q2 1 0 29l-3 47q-10 194 -65 308q-43 90 -116 90q-202 0 -232 -246q-8 -69 -8 -145t53.5 -129t128.5 -53t109 16.5t41.5 19.5t24.5 15zM1426 277q57 -70 50 -79.5t-23 -25t-71 -56t-115 -71.5t-153.5 -56.5t-189.5 -25.5q-174 0 -331 69
t-269 185.5t-178 277t-66 332t68.5 327t182 269t269.5 181.5t310.5 68t287.5 -40q263 -79 438.5 -294.5t175.5 -506.5q0 -101 -36 -190.5t-96 -151t-144 -91t-162.5 -16t-135.5 60t-69 99.5l-36 -36q-128 -122 -312 -121q-107 0 -189 82.5t-82 177.5t15 175
q33 173 134 293.5t269 120.5q102 0 157 -52t75 -118q47 -150 56.5 -243t13.5 -125q9 -85 38.5 -136.5t95.5 -55.5q117 -7 190.5 87t73.5 212t-35 219.5t-102 192t-156.5 161.5t-207 112.5t-243.5 41.5q-204 0 -363 -87t-248 -246.5t-89 -339t58 -316t155 -232.5t227 -152
t253.5 -56t212.5 21q127 30 222 106l52 42q16 14 22 7z" />
    <glyph glyph-name="A" unicode="A" horiz-adv-x="1665" 
d="M115 153l658 1473q5 12 49 12t50 -12l678 -1473q39 -91 77 -109q13 -6 13 -25t-13 -19h-362q-13 0 -13 17.5t4.5 21t12.5 7t13 8.5q38 38 38 70.5t-7 53.5l-145 343h-721l-142 -343q-7 -21 -7 -32v-11v-2q0 -41 38 -79q4 -4 17 -10t13 -25t-13 -19h-315q-13 0 -13 17.5
t4.5 21t12.5 7.5q33 14 73 107zM518 680q-2 -3 -1 -7.5t4 -4.5h571q3 0 4 4.5t-1 7.5l-289 628h-7z" />
    <glyph glyph-name="B" unicode="B" horiz-adv-x="1272" 
d="M706 163q74 0 134 34.5t92 68.5q74 79 74 190q0 174 -114 265.5t-307 91.5h-134q-13 0 -13 28v113q0 28 13 28h134q157 0 230 83t73 179q0 60 -21.5 105.5t-69 81t-97.5 42.5l-22 3h-234q-23 0 -40 -14.5t-17 -36.5v-1211q0 -22 17 -36.5t40 -14.5h262zM669 0h-541
q-13 0 -13 17.5t4.5 21t12.5 7t20.5 16t26.5 46t14 67.5v1288q0 73 -48 121q-4 4 -17 10t-13 25t13 19h536q85 0 163 -33t132 -87q119 -119 119 -256q0 -104 -52 -177.5t-171 -161.5v-21q349 -143 349 -444q0 -160 -143 -304q-67 -68 -170 -111t-222 -43z" />
    <glyph glyph-name="C" unicode="C" horiz-adv-x="1767" 
d="M923 114q226 0 404.5 102t293.5 274q13 21 19.5 13t16.5 -22l31 -45q15 -25 11 -31q-60 -122 -201 -239q-261 -218 -575 -218q-182 0 -341 70.5t-268 188.5t-171.5 276.5t-62.5 328.5t67.5 325.5t180.5 269t268 182t313 68.5q188 0 379 -73l46 -17q10 -4 28 8t38 12
t31 -19q4 -3 3 -21q-2 -29 24 -133l25 -110q10 -43 10 -55q0 -6 -25.5 -18.5t-29.5 -5.5q-83 145 -208.5 200t-313 55t-338.5 -85t-233 -236.5t-82 -343.5q0 -126 58 -254.5t149.5 -226t212.5 -159t240 -61.5z" />
    <glyph glyph-name="D" unicode="D" horiz-adv-x="1482" 
d="M631 0h-503q-13 0 -13 17.5t4.5 21t12.5 7t20.5 16t26.5 46t14 67.5v1288q0 73 -48 121q-4 4 -17 10t-13 25t13 19h453q244 0 467 -132q158 -94 262 -265.5t104 -416.5q0 -156 -58 -304.5t-158.5 -263.5t-249 -185.5t-317.5 -70.5zM387 194q0 -37 61 -37h112
q406 1 564 277q92 161 92 390q0 279 -154 461q-77 91 -205 142.5t-295 51.5h-154q-8 0 -14.5 -6t-6.5 -15v-1264z" />
    <glyph glyph-name="E" unicode="E" horiz-adv-x="1344" 
d="M1008 980q73 0 121 48q4 4 10 17t25 13t19 -13v-290q0 -13 -17.5 -13t-21 4.5t-7 12.5t-16 20.5t-46 25.5t-67.5 13h-631v-656h664q113 0 138.5 19.5t36 34.5t16 15t20 -5t14.5 -9t-14 -39l-32 -81q-18 -46 -24.5 -69.5t-17.5 -27.5h-1060q-13 0 -13 17.5t4.5 21t12.5 7
t20.5 16t26.5 46t14 67.5v1288q0 73 -48 121q-4 4 -17 10t-13 25t13 19h1060q10 0 17 -25.5t25 -71.5l32 -81q14 -35 14 -39t-14.5 -9t-19 -5t-9.5 5.5t-11.5 15t-32 29t-138.5 19.5h-664v-496h631z" />
    <glyph glyph-name="F" unicode="F" horiz-adv-x="1344" 
d="M128 0q-13 0 -13 17.5t4.5 21t12.5 7t20.5 16t26.5 46t14 67.5v1288q0 73 -48 121q-4 4 -17 10t-13 25t13 19h1060q10 0 17 -25.5t25 -71.5l32 -81q14 -35 14 -39t-14.5 -9t-19.5 -5q-7 0 -16.5 14.5t-35 34.5t-139.5 20h-664v-496h631q73 0 121 48q4 4 10 17t25 13
t19 -13v-290q0 -13 -17.5 -13t-21 4.5t-7 12.5t-16 20.5t-46 25.5t-67.5 13h-631v-643q0 -73 48 -121q4 -4 17 -10t13 -25t-13 -19h-324z" />
    <glyph glyph-name="G" unicode="G" horiz-adv-x="1711" 
d="M1525 181q0 -10 -14.5 -10t-19.5 -2q-106 -85 -258 -146.5t-322 -61.5t-329 70.5t-268 188.5t-171.5 276.5t-62.5 328.5t67.5 325.5t180.5 269t268 182t313 68.5q188 0 379 -72l46 -18q10 -4 28 8t38.5 12t30.5 -19q4 -3 3 -21q-2 -28 24 -134l25 -108q10 -44 10 -56
q0 -6 -25.5 -18.5t-29.5 -5.5q-83 145 -208.5 200t-313 55t-338.5 -85t-233 -236.5t-82 -343.5q0 -126 58 -254.5t149.5 -225.5t212.5 -158.5t233 -61.5t247 56.5t168 95.5v409q0 73 -48 121q-4 4 -17 10t-13 25t13 19h324q13 0 13 -17.5t-4.5 -21t-12.5 -7t-20.5 -16
t-26.5 -46t-14 -67.5v-508z" />
    <glyph glyph-name="H" unicode="H" horiz-adv-x="1928" 
d="M128 1638h324q13 0 13 -17.5t-4.5 -21t-12.5 -7t-20.5 -16t-26.5 -46t-14 -67.5v-455h1134v455q0 73 -48 121q-4 4 -17 10t-13 25t13 19h324q13 0 13 -17.5t-4.5 -21t-12.5 -7t-20.5 -16t-26.5 -46t-14 -67.5v-1288q0 -73 48 -121q4 -4 17 -10t13 -25t-13 -19h-324
q-13 0 -13 17.5t4.5 21t12.5 7t20.5 16t26.5 46t14 67.5v667h-1134v-667q0 -73 48 -121q4 -4 17 -10t13 -25t-13 -19h-324q-13 0 -13 17.5t4.5 21t12.5 7t20.5 16t26.5 46t14 67.5v1288q0 73 -48 121q-4 4 -17 10t-13 25t13 19z" />
    <glyph glyph-name="I" unicode="I" 
d="M128 1638h324q13 0 13 -17.5t-4.5 -21t-12.5 -7t-20.5 -16t-26.5 -46t-14 -67.5v-1288q0 -73 48 -121q4 -4 17 -10t13 -25t-13 -19h-324q-13 0 -13 17.5t4.5 21t12.5 7t20.5 16t26.5 46t14 67.5v1288q0 73 -48 121q-4 4 -17 10t-13 25t13 19z" />
    <glyph glyph-name="J" unicode="J" horiz-adv-x="522" 
d="M331 1463v-1454q0 -16 -88 -124.5t-182.5 -205.5t-116.5 -97h-2q-40 12 -49 33q-2 6 21 36q214 280 223 481v1331q0 73 -48 121q-4 4 -17 10t-13 25t13 19h324q13 0 13 -17.5t-4.5 -21t-12.5 -7t-20.5 -16t-26.5 -46t-14 -67.5z" />
    <glyph glyph-name="K" unicode="K" horiz-adv-x="1322" 
d="M537 935l632 -782q28 -38 62 -67.5t37 -32.5t16 -9t13 -25t-13 -19h-362q-13 0 -13 17.5t4.5 21t12.5 7.5q37 16 31.5 48.5t-43.5 83.5l-510 631h-17v-634q0 -73 48 -121q4 -4 17 -10t13 -25t-13 -19h-324q-13 0 -13 17.5t4.5 21t12.5 7t20.5 16t26.5 46t14 67.5v1288
q0 73 -48 121q-4 4 -17 10t-13 25t13 19h324q13 0 13 -17.5t-4.5 -21t-12.5 -7t-20.5 -16t-26.5 -46t-14 -67.5v-418h17l453 432q64 61 68 66q27 32 -16 51q-13 6 -13 25t13 19h315q13 0 13 -18t-2.5 -21.5t-25.5 -13t-74 -62.5l-598 -572v-16z" />
    <glyph glyph-name="L" unicode="L" horiz-adv-x="1301" 
d="M193 175v1288q0 73 -48 121q-4 4 -17 10t-13 25t13 19h324q13 0 13 -17.5t-4.5 -21t-12.5 -7t-20.5 -16t-26.5 -46t-14 -67.5v-1301h664q113 0 147 26q18 12 28 27t15.5 15.5t20 -4.5t14.5 -9t-14 -39l-32 -81q-18 -45 -24.5 -68.5t-17.5 -28.5h-1060q-13 0 -13 17.5
t4.5 21t12.5 7t20.5 16t26.5 46t14 67.5z" />
    <glyph glyph-name="M" unicode="M" horiz-adv-x="2194" 
d="M387 1544q-63 21 -99 21q-54 0 -86 -5.5t-35 -0.5t-3 15t7 21t17 13q149 34 408 34l502 -820h10l480 820q259 0 408 -34q24 -5 24 -37q0 -18 -32 -12.5t-85 5.5t-113 -23l191 -1366q14 -107 65 -131q13 -6 13 -25t-13 -19h-333q-13 0 -13 17.5t4.5 21t12.5 7.5
q26 11 45.5 58.5t19.5 65t-1 23.5l-161 1188h-5l-494 -864q-3 -5 -36.5 -4t-35.5 4l-515 864h-9l-147 -1188q-5 -32 13 -75.5t30 -55.5t25 -18t13 -25t-13 -19h-305q-13 0 -13 17.5t4.5 21t12.5 7.5q47 20 61 129z" />
    <glyph glyph-name="N" unicode="N" horiz-adv-x="1921" 
d="M377 1638q9 0 17 -8l1118 -1186h7v1019q0 72 -49 121q-4 4 -17 10t-13 25t13 19h327q13 0 13 -17.5t-4.5 -21t-12.5 -7t-21 -16.5t-27.5 -46t-14.5 -67v-1410q0 -37 -9.5 -45t-30.5 -8t-34 12l-1257 1334v-1171q0 -77 44 -121q4 -4 17 -10t13 -25t-13 -19h-322
q-13 0 -13 17.5t4.5 21t12.5 7t13 8.5q50 50 50 121v1288q0 74 -47 121q-4 4 -17 10t-13 25t13 19h253z" />
    <glyph glyph-name="O" unicode="O" horiz-adv-x="1892" 
d="M743 170q98 -39 192 -39q320 0 509.5 187.5t189.5 503.5q0 109 -55.5 229t-148.5 219.5t-227.5 164.5t-304.5 65t-321 -86t-233 -238t-82 -352.5t146.5 -389.5t334.5 -264zM146 494.5q-66 160.5 -66 332t69.5 327t184 269t270 181.5t308.5 68t286 -40
q263 -79 438.5 -294.5t175.5 -506.5q0 -171 -62 -327t-173.5 -276.5t-281 -192.5t-357.5 -72t-345 69t-269 185.5t-178 277z" />
    <glyph glyph-name="P" unicode="P" horiz-adv-x="1256" 
d="M387 1424v-1249q0 -73 48 -121q4 -4 17 -10t13 -25t-13 -19h-324q-13 0 -13 17.5t4.5 21t12.5 7t20.5 16t26.5 46t14 67.5v1288q0 73 -48 121q-4 4 -17 10t-13 25t13 19h546q135 0 251.5 -52.5t189.5 -155t73 -244.5t-66 -238q-130 -186 -537 -185h-134q-13 0 -13 28v84
q0 28 13 28h134q413 0 413 293q0 107 -62 167q-102 99 -258 113h-230q-22 0 -41.5 -17.5t-19.5 -34.5z" />
    <glyph glyph-name="Q" unicode="Q" horiz-adv-x="1892" 
d="M146 494.5q-66 160.5 -66 332t69.5 327t184 269t270 181.5t308.5 68t286 -40q263 -79 438.5 -294.5t175.5 -506.5q0 -201 -83.5 -380t-236.5 -300q60 -84 156 -100q36 -6 75 13t46.5 19t20.5 -12.5t16.5 -22t-42.5 -82.5q-84 -132 -100 -137q-7 -2 -66.5 19.5t-139 80.5
t-121.5 124q-188 -90 -387.5 -90t-356.5 69t-269 185.5t-178 277zM743 170q98 -39 192 -39q320 0 509.5 187.5t189.5 503.5q0 109 -55.5 229t-148.5 219.5t-227.5 164.5t-304.5 65t-321 -86t-233 -238t-82 -352.5t146.5 -389.5t334.5 -264z" />
    <glyph glyph-name="R" unicode="R" horiz-adv-x="1428" 
d="M438 1474q-21 0 -36 -14.5t-15 -35.5v-1249q0 -73 48 -121q4 -4 17 -10t13 -25t-13 -19h-324q-13 0 -13 17.5t4.5 21t12.5 7t20.5 16t26.5 46t14 67.5v1288q0 73 -48 121q-4 4 -17 10t-13 24t13 18h513q220 -2 368.5 -94.5t148.5 -300.5q0 -245 -256 -359
q-94 -42 -143 -46.5t-49 -7.5l32 -18q20 -12 82 -61t123 -110.5t145 -170.5t124 -178l82 -146q45 -82 75 -90t30 -31t-13 -23h-324q-13 0 -13 17.5t4.5 21t12.5 7t13.5 9.5t5 23.5t-4.5 27.5q-73 188 -199 358q-234 316 -403 340q-24 4 -24 5q-2 18 -2 49v61q0 10 10 10
q246 0 384 99q106 75 106 202t-102 185.5t-231 58.5h-185z" />
    <glyph glyph-name="S" unicode="S" horiz-adv-x="1033" 
d="M347 12q-30 7 -66 18.5t-46 11.5h-12q-35 0 -54 -40q-1 -2 -2 -2h-29q-6 0 -7 5l-86 295q-5 21 30 21q14 0 19 -5.5t7 -7.5t9 -14q132 -163 387 -163q134 0 222.5 70.5t88.5 207.5q0 92 -29.5 137.5t-48.5 68.5q-40 49 -191.5 135t-245.5 154q-240 173 -240 356
t114.5 283t303.5 100q106 0 224 -57q56 -27 82 -36t36 10.5t12 19.5q45 5 45 -14l30 -321q0 -9 -46 -9q-7 0 -12 18q-31 102 -145 169.5t-228 67.5q-242 0 -242 -200q0 -145 262 -289l190 -102q175 -97 245.5 -209.5t70.5 -240.5v-10q-25 -172 -60 -234
q-58 -102 -165 -163.5t-243 -61.5q-75 3 -123 15z" />
    <glyph glyph-name="T" unicode="T" horiz-adv-x="1820" 
d="M1707 1638q10 0 17 -25.5t25 -71.5l32 -81q14 -35 14 -39t-14.5 -9t-18.5 -5q-7 0 -17.5 14.5t-36 34.5t-138.5 20h-563v-1301q0 -73 48 -121q4 -4 17 -10t13 -25t-13 -19h-324q-13 0 -13 17.5t4.5 21t12.5 7t20.5 16t26.5 46t14 67.5v1301h-563q-141 0 -170 -48
q-14 -20 -20 -20.5t-20.5 4.5t-14.5 9t14 39l32 81q18 45 24.5 68.5t17.5 28.5h1594z" />
    <glyph glyph-name="U" unicode="U" horiz-adv-x="1737" 
d="M195 1463q0 71 -50 121q-4 4 -17 10t-13 25t13 19h336q13 0 13 -17.5t-4.5 -21t-12.5 -7t-20.5 -16t-26.5 -46t-14 -67.5v-829q0 -231 142.5 -358.5t348.5 -127.5q121 0 227.5 61.5t169 163t62.5 215.5v875q0 73 -48 121q-4 4 -17 10t-13 25t13 19h312q13 0 13 -17.5
t-4.5 -21t-12.5 -7t-20.5 -16t-26.5 -46t-14 -67.5v-875q0 -172 -88.5 -316t-237 -226t-329 -82t-337 84t-250.5 238.5t-94 347.5v829z" />
    <glyph glyph-name="V" unicode="V" horiz-adv-x="1665" 
d="M866 330l494 1130q24 69 -31 124q-4 4 -17 10t-13 25t13 19h315q13 0 13 -17.5t-4.5 -21t-12.5 -7.5q-33 -15 -73 -107l-658 -1473q-5 -12 -49 -12t-50 12l-151 310l-262 566l-265 597q-39 91 -77 109q-13 6 -13 25t13 19h362q13 0 13 -17.5t-4.5 -21t-12.5 -7t-13 -8.5
q-55 -55 -31 -124l507 -1130h7z" />
    <glyph glyph-name="W" unicode="W" horiz-adv-x="2886" 
d="M1447 1365h-8q-82 -193 -259.5 -650t-287.5 -703q-5 -12 -49 -12t-50 12l-151 310l-262 566l-265 597q-39 91 -77 109q-13 6 -13 25t13 19h362q13 0 13 -17.5t-4.5 -21t-12.5 -7t-13 -8.5q-55 -55 -31 -124l507 -1130h7l435 1130q2 7 8 23t8 22.5t6 18.5t4 18v16
q0 23 -21 32.5t-21 19.5q0 28 13 28h331q13 0 13 -17.5t-4.5 -21t-12.5 -7t-14.5 -10t-9 -15.5t0.5 -23q3 -20 16 -52l12 -32l507 -1130h7l437 1130q24 69 -31 124q-4 4 -17 10t-13 25t13 19h315q13 0 13 -17.5t-4.5 -21t-12.5 -7.5q-33 -15 -73 -107q-108 -243 -299 -733.5
t-302 -739.5q-5 -12 -49 -12t-50 12l-228 472z" />
    <glyph glyph-name="X" unicode="X" horiz-adv-x="1675" 
d="M945 829l577 -676q28 -38 62 -67.5t37 -32.5t16 -9t13 -25t-13 -19h-362q-13 0 -13 17.5t4.5 21t12.5 7.5q37 16 31.5 48.5t-43.5 83.5l-423 497l-443 -497q-65 -81 -62.5 -97.5t9.5 -23.5t20 -13t13 -25t-13 -19h-315q-13 0 -13 17.5t4.5 21t12.5 7t11 6.5t36.5 28
t72.5 73l560 647l-584 685q-28 38 -62 67.5t-37 32.5t-16 9t-13 25t13 19h362q13 0 13 -17.5t-4.5 -21t-12.5 -7.5q-37 -16 -31.5 -48.5t43.5 -83.5l430 -505l436 505q65 81 62.5 97.5t-9.5 23.5t-20 13t-13 25t13 19h315q13 0 13 -17.5t-4.5 -21t-12.5 -7t-11 -6.5
t-36.5 -28t-72.5 -73z" />
    <glyph glyph-name="Y" unicode="Y" horiz-adv-x="1696" 
d="M744 691l-591 794q-28 38 -62 67.5t-37 32.5t-16 9t-13 25t13 19h362q13 0 13 -17.5t-4.5 -21t-12.5 -7.5q-37 -16 -31.5 -48.5t43.5 -83.5l441 -590h8l453 590q65 81 62.5 97.5t-9.5 23.5t-20 13t-13 25t13 19h315q13 0 13 -17.5t-4.5 -21t-12.5 -7t-11 -6.5t-16 -12
l-27 -21q-40 -32 -66 -68l-584 -758v-552q0 -73 48 -121q4 -4 17 -10t13 -25t-13 -19h-337q-13 0 -13 17.5t4.5 21t12.5 7t21 16.5t27 46t14 67v516z" />
    <glyph glyph-name="Z" unicode="Z" horiz-adv-x="1432" 
d="M1309 1638q55 0 55 -46q0 -20 -12 -37l-954 -1353q-11 -11 -5 -24t35 -13h698q113 0 138.5 19.5t35.5 34.5t16 15t20.5 -5t14.5 -9t-14 -40l-32 -82q-18 -47 -24.5 -71.5t-8.5 -25.5t-9 -1l-1151 3q-44 0 -44 65q0 14 21 43l919 1302q42 63 -10 63h-629q-113 0 -147 -26
q-18 -12 -28 -27t-15.5 -15.5t-20 4.5t-14.5 9.5t14 38.5l32 80q18 46 25 70t17 28h1077z" />
    <glyph glyph-name="bracketleft" unicode="[" 
d="M530 1652q0 -14 -17 -14h-263v-1946h263q17 0 17 -14v-77q0 -14 -17 -14h-399q-5 0 -9.5 4.5t-4.5 9.5v2128q0 5 4.5 9.5t9.5 4.5h399q17 0 17 -14v-77z" />
    <glyph glyph-name="backslash" unicode="\" horiz-adv-x="1105" 
d="M97 1611l108 55q12 6 20 -8l816 -1602q8 -15 -5 -21l-108 -55q-12 -6 -20 8l-816 1602q-8 15 5 21z" />
    <glyph glyph-name="bracketright" unicode="]" 
d="M70 -322q0 14 17 14h263v1946h-263q-17 0 -17 14v77q0 14 17 14h399q5 0 9.5 -4.5t4.5 -9.5v-2128q0 -5 -4.5 -9.5t-9.5 -4.5h-399q-17 0 -17 14v77z" />
    <glyph glyph-name="asciicircum" unicode="^" horiz-adv-x="708" 
d="M349 1389q8 5 17 0l249 -308q10 -9 6 -15q-24 -45 -52 -28l-211 150l-212 -150q-29 -18 -52 29q-3 6 5 14z" />
    <glyph glyph-name="underscore" unicode="_" horiz-adv-x="1074" 
d="M1049 -136q0 -14 -17 -14h-990q-17 0 -17 14v122q0 14 17 14h990q17 0 17 -14v-122z" />
    <glyph glyph-name="grave" unicode="`" horiz-adv-x="614" 
d="M339 1435l161 -361q7 -10 1 -16q-36 -39 -56 -16q-190 231 -250 291q-11 15 0 31l118 71q13 11 26 0z" />
    <glyph glyph-name="a" unicode="a" horiz-adv-x="1102" 
d="M212 253q0 -67 58 -100.5t118 -33.5t89.5 5t60.5 18q58 24 103 50l47 26l-58 266q-36 -14 -89 -31l-96 -30q-233 -70 -233 -170zM611 587q-30 274 -159 274q-79 0 -137.5 -56.5t-58.5 -132.5l9 -41q0 -8 -19.5 -25t-26.5 -11l-116 149q0 13 22.5 29t38.5 32l24 23
q52 52 73 66l49 32q72 47 160 47q129 0 196 -70q46 -48 64 -94.5t26 -75.5q17 -62 28 -144l11 -77q6 -46 12.5 -86t8.5 -54.5t10 -51t15 -60.5q21 -71 49 -106.5t62.5 -35.5t48.5 20q26 38 38 38q6 0 20 -14t14 -21t-31.5 -46.5t-71 -77.5t-56.5 -38q-64 0 -121.5 50.5
t-70.5 106.5q-33 -30 -112 -73q-156 -84 -250 -84t-158.5 27t-107 83t-42.5 117t17 102t44 70.5t67 55t81 42.5q86 35 190.5 62.5t159.5 48.5z" />
    <glyph glyph-name="b" unicode="b" horiz-adv-x="1148" 
d="M55 1471l1 18q0 5 5.5 8.5t6.5 4.5l180 133q4 3 21.5 3t25.5 -4.5t8 -26.5v-729q158 96 273 96q220 0 357 -145t137 -353.5t-144.5 -351t-366.5 -142.5q-173 0 -310 116l-124 74q-13 8 -13 19.5t13 32t13 30.5v1135q0 32 -16.5 46t-34.5 15t-23 6q-9 6 -9 15zM303 743
v-468q61 -86 128.5 -126.5t157 -40.5t158.5 49.5t109 123t40 149.5q0 158 -98 278.5t-286 120.5q-60 0 -116 -24.5t-93 -61.5z" />
    <glyph glyph-name="c" unicode="c" horiz-adv-x="1028" 
d="M903 259q16 16 58 -26q3 -3 -1 -9q-175 -242 -420 -242q-95 0 -184 38q-183 80 -261 256q-40 90 -40 213.5t62.5 238t181 180.5t282.5 66t281 -117q1 -1 19 -13q2 -2 0 -11l-54 -168q-5 -15 -12 -16.5t-25 4.5t-20 10t-7.5 48.5t-37.5 74.5q-82 78 -210 78
q-89 0 -163 -47.5t-113.5 -121t-39.5 -174.5t54 -194t145.5 -142.5t193 -49t174 29.5t137.5 94z" />
    <glyph glyph-name="d" unicode="d" horiz-adv-x="1093" 
d="M726 1471l1 18q0 5 5.5 8.5t6.5 4.5l180 133q4 3 21.5 3t25.5 -4.5t8 -26.5q0 -901 3 -1394q3 -16 -3 -15q-1 0 5.5 -5.5t24.5 -6.5t24 -5.5t6 -23t-5 -21.5l-166 -136q-4 -3 -25.5 -3t-26 4.5t-4.5 13t1.5 17t-1.5 21.5t-7.5 14.5t-16.5 -6.5l-27 -17q-102 -62 -206 -62
t-192.5 38t-155 102t-107 154t-40.5 213t63 239t181 181t272 65q61 0 128.5 -29.5t102.5 -64.5h11q0 326 -4 509q0 32 -16 46t-34 15t-24 6q-9 6 -9 15zM808 227l3 436q-47 82 -135 129t-198 47q-145 0 -233 -148q-46 -79 -46 -150q0 -185 115 -301.5t296 -116.5
q51 0 105.5 31t92.5 73z" />
    <glyph glyph-name="e" unicode="e" horiz-adv-x="1045" 
d="M770 695q-59 169 -255 169q-89 0 -163 -47.5t-113.5 -121t-39.5 -138.5t4 -64l565 197v6zM225 387q43 -118 145 -185t232 -67q165 0 301 155q21 20 62 -21q3 -3 -1 -9q-114 -158 -177 -202q-107 -76 -247 -76q-95 0 -184 38q-183 80 -261 256q-40 90 -40 213.5t62.5 238
t181 180.5t272.5 66q188 0 334 -174q74 -88 74 -140z" />
    <glyph glyph-name="f" unicode="f" horiz-adv-x="884" 
d="M692 1370l8 58q0 20 -31 51.5t-80.5 31.5t-104.5 -32.5t-98.5 -84t-71.5 -122t-28 -141.5v-178h387q41 0 51 -13v-88q-11 -13 -51 -13h-387v-707q0 -20 12.5 -45.5t39 -36.5t26.5 -22q0 -28 -13 -28h-295q-13 0 -13 18t8.5 23t21 10t20 12.5t13.5 17t9 16t4.5 19t2 17
t0 21t-0.5 21.5v664h-61q-40 0 -51 13v88q10 13 51 13h61v227q0 122 93 249q94 127 230 179q75 29 153 29q158 0 268 -110q26 -28 2 -51l-134 -124q-7 -6 -24 0.5t-17 17.5z" />
    <glyph glyph-name="g" unicode="g" horiz-adv-x="1009" 
d="M290 265q-29 -10 14.5 -40.5t137.5 -51t160.5 -31t139 -32t125 -48t86.5 -74.5t34 -112t-29 -116q-96 -174 -463 -174q-168 0 -301 80t-162 228v12q0 8 -1 12l173 148q8 0 21 -13t13 -21t-16 -24t-16 -88t60 -130.5t143 -80.5q179 -30 305 19q44 17 72 51.5t28 74
t-40 64.5q-55 34 -275.5 85t-329.5 96q-23 10 -23 15.5t30.5 63.5t68.5 115q-69 50 -110.5 126t-41.5 162q0 168 105.5 274t263 106t259.5 -99l4 1q38 81 40.5 85.5t6.5 4.5h167q7 0 14.5 -14.5t2.5 -17.5q-23 -11 -56 -25q-68 -29 -114 -120q46 -86 46 -182
q0 -158 -107.5 -264t-271.5 -106q-84 0 -163 41zM407 839q-192 0 -192 -209q0 -122 91.5 -204.5t200 -82.5t153.5 48t45 161t-85.5 200t-212.5 87z" />
    <glyph glyph-name="h" unicode="h" horiz-adv-x="1198" 
d="M94 1471l1 18q0 3 12 13l180 133q4 3 22 3t25 -4.5t7 -26.5v-759q34 20 51 29l31 16q141 70 261.5 70t237.5 -86q53 -39 86.5 -94.5t33.5 -115.5v-492q0 -5 -0.5 -21.5t0.5 -21.5q7 -64 42.5 -78.5t35.5 -25.5q0 -28 -13 -28h-295q-13 0 -13 18t8 23t21 10t21 13t14.5 18
t9 23t3 19.5t0 25.5t-0.5 25v467q0 61 -41 106q-76 83 -214.5 83t-278.5 -70v-586q0 -5 -0.5 -21.5t-0.5 -21.5q8 -64 43.5 -78.5t35.5 -25.5q0 -28 -13 -28h-295q-13 0 -13 18t8 23t21 10t20 12q31 31 30.5 69.5t-0.5 42.5v1214q0 32 -16 46t-34 15t-24 6q-9 6 -9 15z" />
    <glyph glyph-name="i" unicode="i" horiz-adv-x="507" 
d="M334 1451v-81q0 -10 -5 -14t-42.5 -18t-55.5 -23t-30.5 -13t-15.5 -0.5t-3 38.5v95q0 3 -0.5 9t0 8t1 6t4.5 8t41.5 18t55.5 23q41 19 45.5 14.5t4.5 -70.5zM106 0q-13 0 -13 18t8 23t21 10q49 20 50 96v557q0 32 -16 46t-34 15t-25 6t-7 20.5t1.5 17.5t5.5 4.5t5 3.5
l180 133q7 5 11 2.5t24 -8.5t20 -22v-779q0 -73 49 -92q29 -12 29 -23q0 -28 -13 -28h-296z" />
    <glyph glyph-name="j" unicode="j" horiz-adv-x="429" 
d="M355 175l3 -175q0 -29 -8.5 -47t-33 -47t-79 -110.5t-73 -100.5t-42.5 -40.5t-46 -21.5t-29.5 3.5t-9 9.5t-0.5 13q1 6 15 34q106 171 129 291q9 49 9 102v618q0 32 -16 46t-34 15t-25 6t-7 20.5t1.5 17.5t5.5 4.5t5 3.5l180 133q7 5 11 2.5t24 -8.5t20 -22v-747z
M352 1451v-81q0 -9 -4.5 -13.5t-42 -18.5t-56.5 -23q-40 -20 -44.5 -15t-4.5 40v112q0 9 4.5 13.5t42 18.5t56.5 23q40 20 44.5 15t4.5 -71z" />
    <glyph glyph-name="k" unicode="k" horiz-adv-x="955" 
d="M342 175l-1 -43q0 -22 10.5 -46.5t38.5 -35.5t29 -22q0 -28 -13 -28h-294q-13 0 -13 18t8 23t20.5 10t20 12.5t13.5 17t9.5 16t5 19t1.5 16.5v1257q0 33 -15.5 46.5t-33.5 14.5t-24 6q-9 6 -9 15l1 18q0 5 5.5 8.5t6.5 4.5l180 133q4 3 21.5 3t25 -4.5t7.5 -26.5v-1074h2
l326 311q17 17 17 33q0 25 -24 31t-23 17q0 28 13 28h230q13 0 13 -18t-6 -25.5t-18.5 -18t-16.5 -14.5l-300 -286v-3l298 -428q86 -105 86 -132.5t-13 -27.5h-251q-13 0 -13 17.5t13 25.5q40 23 40 35q0 20 -6 26l-266 380h-4l-97 -94v-215z" />
    <glyph glyph-name="l" unicode="l" horiz-adv-x="530" 
d="M94 1471l1 18q0 5 5.5 8.5t6.5 4.5l180 133q4 3 10 3q44 0 44 -31v-1432q0 -7 -0.5 -22t-0.5 -21q6 -66 42 -78q36 -15 36 -26q0 -28 -13 -28h-294q-13 0 -13 18t8 23t21 10t20.5 12.5t13.5 17t9 16t4.5 19t1.5 16.5v1257q0 33 -15.5 46.5t-33.5 14.5t-24 6q-9 6 -9 15z
" />
    <glyph glyph-name="m" unicode="m" horiz-adv-x="1657" 
d="M85 786l1 18q0 5 5.5 8.5t6.5 4.5l180 133q4 3 22 3t25 -4.5t7 -26.5v-74q182 115 332 115q69 0 128 -35t95 -96q371 238 548 44q79 -86 79 -209v-535q0 -22 12 -46.5t39 -35.5t27 -22q0 -28 -13 -28h-293q-13 0 -13 18t8.5 23t21 10t21 13t14.5 18t8.5 23t3 19.5t0 25.5
t-0.5 25v467q-1 98 -39 143.5t-122 45.5q-134 0 -270 -68q14 -47 14 -96v-535q0 -22 12 -46.5t39 -35.5t27 -22q0 -28 -13 -28h-294q-13 0 -13 18t8.5 23t21 10t21 13t14.5 17.5t9 23.5t3.5 19t0 26t-0.5 25v467q-1 99 -38.5 144t-147 45t-249.5 -70v-629q0 -22 10.5 -46.5
t38.5 -35.5t28 -22q0 -28 -13 -28h-294q-13 0 -13 18t8.5 23t21 10t20 12.5t13.5 17t9 16t4.5 19t2 17t0 21t-0.5 21.5v529q-3 59 -49 61q-32 1 -33 21z" />
    <glyph glyph-name="n" unicode="n" horiz-adv-x="1175" 
d="M102 0q-13 0 -13 18t8.5 23t21 10t19.5 12q31 31 30.5 69.5t-0.5 42.5v529q0 32 -16 46t-34 15t-23.5 5.5t-7 8.5t-2 7t0 9t0.5 9t1.5 5t5.5 4.5t5 3.5l180 133q4 3 22 3t26 -4.5t8 -26.5v-74l51 30l30 15q139 70 260 70t238 -86q53 -39 86.5 -94.5t33.5 -115.5v-535
q0 -22 12 -46.5t39 -35.5t27 -22q0 -28 -13 -28h-293q-13 0 -13 18t8.5 23t21 10t21 13t14.5 18t8.5 23.5t3 20t0 25t-0.5 24.5v467q0 60 -40 105q-77 84 -216 84t-279 -70v-629q0 -22 12 -46.5t39 -35.5t27 -22q0 -28 -13 -28h-296z" />
    <glyph glyph-name="o" unicode="o" horiz-adv-x="1104" 
d="M230 689.5q-31 -66.5 -31 -168.5t56.5 -204t155 -161.5t196 -59.5t159 44t94 114t32.5 154q0 177 -112.5 304t-301.5 127q-87 0 -152 -41.5t-96 -108zM95.5 276q-40.5 90 -40.5 213t63 239t181 181t245 65q232 0 369 -145.5t137.5 -353.5t-144.5 -350.5t-366 -142.5
q-94 0 -182.5 38t-155 102t-107 154z" />
    <glyph glyph-name="p" unicode="p" horiz-adv-x="1137" 
d="M94 786l1 18q0 5 5.5 8.5t6.5 4.5l180 133q4 3 22 3t25.5 -4.5t7.5 -26.5v-82q21 27 83 63q120 71 223 71q209 0 346 -145t137 -353.5t-144.5 -351t-366.5 -142.5q-150 0 -278 92v-312q0 -5 -0.5 -21.5t0.5 -20.5q7 -65 42.5 -79.5t35.5 -25.5q0 -28 -13 -28h-296
q-13 0 -13 18t8 23t21 10t20 12q31 31 30.5 69.5t-0.5 42.5v942q-1 33 -16.5 46.5t-33.5 14.5t-24 5q-9 7 -9 16zM750 791.5q-75 32.5 -180.5 32.5t-227.5 -120v-395q57 -98 153.5 -155.5t192.5 -57.5t157.5 44t94 114t32.5 154.5t-25.5 160t-73.5 133t-123 90z" />
    <glyph glyph-name="q" unicode="q" horiz-adv-x="1153" 
d="M768 -413q-13 0 -13 18t8 23t20.5 10t20 12.5t13.5 17t9.5 16t5 19t1.5 17.5v345q-127 -83 -293 -83q-94 0 -182.5 38t-155 102t-107 154t-40.5 213t63 239t181 181t281.5 65t295.5 -111q17 2 41 36q46 63 95.5 63t49.5 -32q0 -6 -13.5 -18t-32 -56t-18.5 -106v-988v-25
q-1 -25 4 -54.5t38.5 -43t33.5 -24.5q0 -28 -13 -28h-293zM410.5 182.5q98.5 -54.5 214.5 -54.5t208 98v446q-50 67 -146 117t-188.5 50t-158.5 -47t-103.5 -116t-37.5 -159t56.5 -185t155 -149.5z" />
    <glyph glyph-name="r" unicode="r" horiz-adv-x="790" 
d="M87 786l1 18q0 5 5.5 8.5t6.5 4.5l180 133q4 3 22.5 3t25.5 -4.5t7 -26.5v-172q6 10 16 22q72 90 150 139t178 49q32 0 35 -8q17 -46 28 -87l31 -118q3 -11 -15.5 -21.5t-28.5 -9.5t-21 19l-11 18q-54 50 -125.5 39.5t-135 -52.5t-93.5 -91q-1 -2 -4.5 -7.5t-3.5 -7.5
v-459q0 -5 -0.5 -21.5t-0.5 -21.5q8 -63 43 -78t36 -26q0 -28 -13 -28h-296q-13 0 -13 18t8 23t20.5 10t19.5 12q15 15 23.5 34.5t8 46.5t-0.5 31v529q-1 33 -16.5 46.5t-33.5 14.5t-24 5q-9 7 -9 16z" />
    <glyph glyph-name="s" unicode="s" horiz-adv-x="768" 
d="M678 749q0 -11 -20 -10.5t-24 0.5q-12 0 -18 17q-22 52 -92 85.5t-137 33.5t-116 -33t-49 -83.5t45 -84.5t91.5 -58.5t61.5 -33.5l95 -54q128 -70 170 -148q29 -54 29 -132.5t-45 -143.5q-87 -125 -291 -125q-104 0 -250 36q-4 2 -14 4t-18.5 6t-9.5 21t-13 70.5
t-12 68.5t2.5 18.5t5.5 6t9 5t9 3.5l9 3q23 7 42.5 -22.5t113 -66t161.5 -36.5t110.5 34.5t42.5 92.5q0 81 -97 132l-180 96q-73 41 -99 63q-62 54 -87 103t-25 111q0 122 90.5 183t248.5 61q70 0 154.5 -10t104.5 -31q3 -3 3.5 -76t-1.5 -106z" />
    <glyph glyph-name="t" unicode="t" horiz-adv-x="532" 
d="M218 1131q3 20 36.5 20t33.5 -20v-178h177q51 0 51 -13v-88q0 -13 -51 -13h-177v-621q0 -119 70 -133q53 -11 110 40q23 21 32.5 10t13.5 -17t4 -11.5v-8.5q1 -5 -11 -17l-21 -18q-104 -90 -202.5 -82t-138.5 115q-22 58 -22 141v602h-46q-51 0 -51 13v88q0 13 42 13
q74 0 106.5 52t43.5 126z" />
    <glyph glyph-name="u" unicode="u" horiz-adv-x="1199" 
d="M94 786l1 18q0 3 70.5 59.5t121.5 89.5h49q6 -6 6 -31v-611q0 -63 40 -112q80 -96 226 -96q100 0 225 66l44 23v618q0 73 -49 92q-13 5 -21 10t-8 23t13 18h225q6 0 6 -325l-1 -392q0 -56 34 -86q8 -7 26 -8t23.5 -5.5t6 -23t-4.5 -21.5l-195 -102q-4 -3 -26 -3t-26 4
t-4 27v87q-1 0 -16 -11q-187 -123 -314 -123q-85 0 -171 43.5t-142 117.5t-56 154v401q0 42 -16 60.5t-35 19t-24 4.5q-8 6 -8 15z" />
    <glyph glyph-name="v" unicode="v" horiz-adv-x="1037" 
d="M1006 953q13 0 13 -17q0 -24 -8 -40l-402 -806q-32 -64 -49.5 -77t-29.5 -13t-22.5 5t-20 17t-15 21t-15 27.5t-13.5 25.5l-409 783q-17 32 -17 53t13 21h260q13 0 13 -17.5t-13 -24.5q-40 -20 -41 -32q0 -28 4 -32l284 -548h29l273 548q4 4 4 22q0 24 -27 34.5t-27 21.5
q0 28 13 28h203z" />
    <glyph glyph-name="w" unicode="w" horiz-adv-x="1780" 
d="M1749 953q13 0 13 -17q0 -24 -8 -40l-402 -806q-32 -64 -49.5 -77t-29.5 -13t-22.5 5t-20 17t-15 21t-15 27.5t-13.5 25.5l-294 564l-284 -570q-32 -64 -49.5 -77t-29.5 -13t-22.5 5t-20 17t-15 21t-15 27.5t-13.5 25.5l-409 783q-17 32 -17 53t13 21h260q13 0 13 -17.5
t-13 -24.5q-40 -20 -41 -32q0 -28 4 -32l284 -548h29l251 504q3 6 3 24t-22 55t-22 54t13 17h229q13 0 13 -28q0 -7 -19.5 -27.5t-19.5 -30.5t4 -20l284 -548h29l273 548q4 4 4 22q0 24 -27 34.5t-27 21.5q0 28 13 28h203z" />
    <glyph glyph-name="x" unicode="x" horiz-adv-x="975" 
d="M926 953q13 0 13 -17q0 -22 -9 -40l-16 -32l-328 -379l340 -398l16 -31q9 -16 9 -36t-13 -20h-260q-13 0 -13 17t8 22t19 9q27 9 27 30.5t-4 25.5l-247 289l-263 -287q-4 -4 -4 -22q0 -25 27 -35t27 -21q0 -28 -13 -28h-203q-13 0 -13 17q0 24 8 40l17 32l343 391
l-330 386l-17 31q-9 16 -8.5 36t13.5 20h260q13 0 13 -17t-8.5 -22t-18.5 -9q-27 -9 -27 -30.5t4 -25.5l239 -279l246 277q4 4 4 22q0 24 -27 34.5t-27 21.5q0 28 13 28h203z" />
    <glyph glyph-name="y" unicode="y" horiz-adv-x="1041" 
d="M19 -413q-13 0 -13 22.5t4.5 28.5t19.5 11q217 79 423 436v7l-413 787q-17 32 -17 53t13 21h260q13 0 13 -17t-8.5 -22t-18.5 -9q-27 -9 -27 -31.5t4 -26.5l284 -548h29l273 548q4 4 4 22q0 24 -27 34.5t-27 21.5q0 28 13 28h203q13 0 13 -17q0 -22 -9 -40l-235 -473
q-58 -115 -94 -180l-92 -159q-55 -94 -102 -163l-108 -150q-60 -81 -124 -158q-23 -27 -39 -27z" />
    <glyph glyph-name="z" unicode="z" horiz-adv-x="963" 
d="M50 0q-24 0 -24 27.5t16 59.5l622 730q8 8 4 16t-16 8l-386 1q-39 0 -72 -30q-62 -58 -91 -63q-5 -1 -13 9.5t-9 19.5v7l65 156q6 12 41 12h709q24 0 24 -27.5t-16 -59.5l-622 -730q-8 -8 -4 -16t16 -8l460 -1q39 0 86 44t77 49q5 1 12.5 -9.5t9.5 -19.5v-7l-65 -156
q-6 -12 -41 -12h-783z" />
    <glyph glyph-name="braceleft" unicode="{" horiz-adv-x="709" 
d="M102 657q0 14 19 14h131q29 65 19.5 171.5t-31.5 176t-41 150t-21 142t31 135.5q61 120 182 168t250 2l-43 -86q-65 23 -129 -5t-98 -96q-65 -129 -30 -315q16 -77 30 -154q35 -186 -36 -324q-7 -13 -16 -24q10 -12 16 -23q72 -138 36 -324q-14 -77 -30 -154
q-35 -186 34 -323q30 -60 94 -88t129 -5l43 -86q-129 -46 -250 2t-176.5 158.5t-25.5 238.5l64 250q37 142 6 278q-3 12 -8 21h-104q-44 0 -44 14q-2 40 -1 86z" />
    <glyph glyph-name="bar" unicode="|" horiz-adv-x="350" 
d="M236 1744q14 0 14 -17v-1814q0 -17 -14 -17h-122q-14 0 -14 17v1814q0 17 14 17h122z" />
    <glyph glyph-name="braceright" unicode="}" horiz-adv-x="709" 
d="M608 571q0 -14 -16 -14h-132q-5 -9 -16 -55t-3 -136t30 -159.5t41 -150t21 -142t-31 -135.5q-61 -120 -182 -168t-250 -2l43 86q65 -23 129 5t98 96q65 129 30 315q-16 77 -30 154q-35 186 36 324q6 11 16 23q-9 11 -16 24q-72 138 -36 324q14 77 30 154q35 186 -34 323
q-30 60 -94 88t-129 5l-43 86q129 46 250 -2t176.5 -159t25.5 -239l-64 -250q-37 -142 -6 -277q3 -9 7 -18h107q43 0 43 -14q1 -46 -1 -86z" />
    <glyph glyph-name="asciitilde" unicode="~" horiz-adv-x="785" 
d="M384 1104l-72 60q-50 42 -63 44.5t-23.5 5.5t-20.5 -1t-21.5 -15t-18.5 -30.5t-10 -32t-6.5 -36t-7.5 -30t-27.5 3t-23.5 14.5q1 7 3.5 40.5t6 54.5t12 50.5t25.5 49t42 28.5t48.5 11t48.5 -6q54 -17 83 -39l115 -90q50 -42 62.5 -44.5t23 -5.5t20.5 1t21.5 15t18.5 30.5
t10 32t6.5 36t7.5 31t27.5 -3t23.5 -15.5q-1 -7 -3.5 -40.5t-6 -54.5t-12 -50.5t-25.5 -49t-42 -28.5q-53 -19 -88 -8l-51 18q-26 10 -83 54z" />
    <glyph glyph-name="exclamdown" unicode="&#xa1;" horiz-adv-x="410" 
d="M175 1488q11 10 21 0l90 -93q9 -12 0 -24l-90 -97q-11 -10 -21 0l-93 97q-10 13 0 24zM283.5 28q-16.5 -14 -57 -23t-81 0t-56.5 23t-16 23q30 310 40.5 545.5t10.5 570.5q0 41 62 41t62 -41q0 -345 10 -578.5t41 -537.5q1 -9 -15.5 -23z" />
    <glyph glyph-name="cent" unicode="&#xa2;" horiz-adv-x="1107" 
d="M496 165l58 699q-126 -7 -213 -104.5t-87 -225t66 -226.5t176 -143zM958 259q16 16 58 -26q3 -3 -1 -9q-137 -242 -420 -242h-12l-22 -240q-3 -28 -26.5 -37t-58.5 3q-14 6 -12 25l19 263q-158 40 -265.5 170.5t-107.5 296.5q0 210 123 349t330 159l22 278q7 3 25 15
t33 4t24.5 -15t16.5 -11l-22 -270q139 -12 255 -115q3 -3 9.5 -7t9 -6t0.5 -11l-54 -168q-5 -15 -12 -16.5t-24.5 4t-20.5 10t-7.5 48t-37.5 75.5q-58 52 -127 69q-38 -508 -56 -716q25 -4 89 -4q142 0 272 124z" />
    <glyph glyph-name="sterling" unicode="&#xa3;" horiz-adv-x="1256" 
d="M877 1370l8 58q0 20 -31 51.5t-89.5 31.5t-129.5 -53.5t-117.5 -143t-46.5 -183.5v-309h579v-150h-579v-304q0 -43 -15 -122.5t-33 -97.5h583q141 0 170 48q14 20 20 20.5t20.5 -4.5t14.5 -8.5t-14 -35.5l-31 -74q-19 -46 -26 -66q-7 -23 -17 -28h-1105q-13 0 -13 17.5
t4.5 21t12.5 7.5t26.5 22t26 50t10 33t11.5 1h113q15 0 31.5 87.5t16.5 132.5v300h-213v150h213v358q0 72 37 152t99 148t152.5 112.5t168.5 44.5q138 0 214 -42t102 -69t2 -50l-134 -124q-7 -6 -24 0.5t-17 17.5z" />
    <glyph glyph-name="currency" unicode="&#xa4;" horiz-adv-x="1174" 
d="M985 1306q15 6 26 -8l94 -98q7 -20 -10 -32q-95 -53 -243 -158q54 -79 54 -176t-54 -176q148 -105 243 -158q17 -12 10 -32l-94 -98q-11 -14 -26 -8l-194 230q-86 -70 -197 -70t-197 70l-194 -230q-15 -6 -26 8l-94 98q-7 20 10 32q95 53 243 158q-54 79 -54 176t54 176
q-148 105 -243 158q-17 12 -10 32l94 98q11 14 26 8l194 -230q86 70 197 70t197 -70zM403 834q0 -79 56 -135t135 -56t135 56t56 135t-56 135t-135 56t-135 -56t-56 -135z" />
    <glyph glyph-name="yen" unicode="&#xa5;" horiz-adv-x="1696" 
d="M1009 803l-59 -76v-74h399v-150h-399v-328q0 -73 48 -121q4 -4 17 -10t13 -25t-13 -19h-337q-13 0 -13 17.5t4.5 21t12.5 7.5t21 16.5t27 45.5t14 67v328h-381v150h381v38l-83 112h-298v150h186l-396 532q-29 39 -62 67q-34 30 -37 33t-16 9t-13 25t13 19h362
q13 0 13 -17.5t-4.5 -21t-12.5 -7.5q-37 -16 -31.5 -48.5t43.5 -83.5l379 -507h134l389 507q65 81 62.5 97.5t-9.5 23.5t-20 13t-13 25t13 19h315q13 0 13 -17.5t-4.5 -21t-12.5 -7t-11 -6.5t-36.5 -28t-72.5 -73l-410 -532h225v-150h-340z" />
    <glyph glyph-name="brokenbar" unicode="&#xa6;" horiz-adv-x="350" 
d="M236 745q14 0 14 -17v-815q0 -17 -14 -17h-122q-14 0 -14 17v815q0 17 14 17h122zM236 1744q14 0 14 -17v-815q0 -17 -14 -17h-122q-14 0 -14 17v815q0 17 14 17h122z" />
    <glyph glyph-name="section" unicode="&#xa7;" horiz-adv-x="768" 
d="M704 843q0 -188 -145 -275q71 -53 111 -117.5t40 -165t-44 -174.5q-86 -144 -291 -144q-96 0 -257 43q-12 3 -23 8t-12 24.5t-13 81.5t-12 93q0 18 43 31q14 5 24.5 -13t13.5 -21q39 -40 121 -76.5t150 -36.5t110.5 40.5t42.5 106.5q0 94 -98 153l-42 25
q-27 15 -106.5 65.5t-100.5 68.5l-42 38q-23 21 -34 37l-26 40q-39 62 -39 156q0 191 168 255q-131 93 -162 199q-13 45 -13 97q0 140 90.5 210.5t248.5 70.5q72 0 155 -11.5t104 -35.5q6 -6 2 -210q0 -21 -41 -11q-8 3 -16 16t-11 16q-110 124 -231 124q-60 0 -108.5 -37.5
t-48.5 -94.5q0 -84 108 -153q14 -9 46 -27l131 -78q161 -98 190 -200q17 -61 17 -118zM430 653q54 8 90 47t36 82.5t-8.5 68t-19.5 41.5q-22 30 -70 60l-83 49q-60 0 -108 -37.5t-48 -96t45.5 -98.5t93 -69t72.5 -47z" />
    <glyph glyph-name="dieresis" unicode="&#xa8;" horiz-adv-x="737" 
d="M557 1036q-12 -10 -22 0l-90 93q-9 12 0 24l90 97q11 11 22 0l92 -97q10 -13 0 -24zM217 1036q-12 -10 -22 0l-90 93q-9 12 0 24l90 97q11 11 22 0l92 -97q10 -13 0 -24z" />
    <glyph glyph-name="copyright" unicode="&#xa9;" horiz-adv-x="1672" 
d="M648 529.5q97 -98.5 192.5 -98.5t183.5 45.5t131 109.5q2 4 9.5 6.5t9.5 -0.5q29 -42 27 -45q-38 -76 -138.5 -144.5t-223.5 -68.5q-170 0 -280.5 118.5t-110.5 281.5t116 280t274 117q78 0 191 -41q7 -3 15.5 2.5t18 5.5t13 -5.5t2.5 -13.5q-2 -9 10 -62l12 -51
q5 -20 5 -24t-16 -11.5t-18 -4.5q-59 103 -232 103q-119 0 -203.5 -86.5t-84.5 -200.5t97 -212.5zM100 744q0 150 58.5 286t157 234.5t234.5 157t286 58.5t286 -58.5t234.5 -157t157 -234.5t58.5 -286t-58.5 -286t-157 -234.5t-234.5 -157t-286 -58.5t-286 58.5t-234.5 157
t-157 234.5t-58.5 286zM202 744q0 -172 85 -317.5t231 -230.5t318 -85t317.5 85t230.5 230.5t85 317.5t-85 317.5t-230.5 230.5t-317.5 85t-318 -85t-231 -230.5t-85 -317.5z" />
    <glyph glyph-name="ordfeminine" unicode="&#xaa;" horiz-adv-x="701" 
d="M214.5 1195q-24.5 -19 -24.5 -42.5t25.5 -39t71 -15.5t119.5 46l-27 118q-9 -4 -47 -16t-65.5 -22t-52 -29zM212 1366l5 -20q0 -4 -14 -14.5t-17 -7.5l-60 78q0 7 11.5 15t25.5 22q77 77 123.5 77t66.5 -4.5t35 -15t26 -21t19.5 -29.5t14.5 -33q10 -27 17 -79l12 -85
q14 -91 28 -121t35 -30t32.5 14.5t15.5 14.5t13.5 -11.5t9.5 -16.5t-34 -42t-46 -37q-32 0 -61 25t-35 53q-23 -20 -81 -49t-112 -29t-98 33.5t-44 95t53.5 98.5t95.5 49l75 22q34 10 44 12q-15 91 -32.5 106.5t-47.5 15.5t-52.5 -29t-23.5 -57z" />
    <glyph glyph-name="guillemotleft" unicode="&#xab;" horiz-adv-x="927" 
d="M108 1205h-1q-5 9 0 17h1l307 249q10 15 31 -3.5t19 -24.5l-6 -18l-150 -212l150 -211l6 -18q5 -14 -36 -34q-7 -4 -14 5zM476 1205h-1q-5 9 0 17h1l307 249q10 15 31 -3.5t19 -24.5l-6 -18l-150 -212l150 -211l6 -18q5 -14 -36 -34q-7 -4 -14 5z" />
    <glyph glyph-name="logicalnot" unicode="&#xac;" horiz-adv-x="1224" 
d="M1110 953q5 0 9.5 -4.5t4.5 -9.5v-537q0 -17 -14 -17h-122q-14 0 -14 17v401h-857q-17 0 -17 14v122q0 14 17 14h993z" />
    <glyph glyph-name="uni00AD" unicode="&#xad;" horiz-adv-x="1024" 
d="M1024 817q0 -14 -17 -14h-990q-17 0 -17 14v122q0 14 17 14h990q17 0 17 -14v-122z" />
    <glyph glyph-name="registered" unicode="&#xae;" horiz-adv-x="1672" 
d="M734 1046q-25 -5 -25 -25v-581q0 -33 25 -58q1 -1 7 -4t6 -12.5t-7 -9.5h-169q-6 0 -6 9t2 10.5t5.5 3t5.5 3.5q25 25 25 58v611q0 33 -25 58q-1 1 -7 4t-6 12t6 9h243q107 -2 177.5 -51t70.5 -136t-53 -132.5t-134 -61.5q-2 -1 -10.5 -1t-8.5 -2q142 -86 266 -315
q27 -50 40.5 -53.5t13.5 -14.5t-6 -11h-166q-7 0 -7 9t7 13q17 7 6 29q-82 202 -199 298q-34 28 -50.5 31.5t-16.5 4.5q-2 13 -2 34.5t6 21.5q202 0 202 136q0 113 -144 113h-72zM100 744q0 150 58.5 286t157 234.5t234.5 157t286 58.5t286 -58.5t234.5 -157t157 -234.5
t58.5 -286t-58.5 -286t-157 -234.5t-234.5 -157t-286 -58.5t-286 58.5t-234.5 157t-157 234.5t-58.5 286zM202 744q0 -172 85 -317.5t231 -230.5t318 -85t317.5 85t230.5 230.5t85 317.5t-85 317.5t-230.5 230.5t-317.5 85t-318 -85t-231 -230.5t-85 -317.5z" />
    <glyph glyph-name="macron" unicode="&#xaf;" horiz-adv-x="852" 
d="M762 1046q0 -14 -17 -14h-638q-17 0 -17 14v122q0 14 17 14h638q17 0 17 -14v-122z" />
    <glyph glyph-name="degree" unicode="&#xb0;" horiz-adv-x="548" 
d="M310 1107q88 0 88 103q0 48 -35 91t-84 43t-74 -28.5t-25 -74t42.5 -90t87.5 -44.5zM151.5 1088q-58.5 57 -58.5 142t56.5 141.5t143.5 56.5t142.5 -58t55.5 -141.5t-57.5 -140.5t-140.5 -57t-141.5 57z" />
    <glyph glyph-name="plusminus" unicode="&#xb1;" horiz-adv-x="1136" 
d="M1061 1121q0 -14 -17 -14h-401v-401q0 -17 -14 -17h-122q-14 0 -14 17v401h-401q-17 0 -17 14v122q0 14 17 14h401v401q0 17 14 17h122q14 0 14 -17v-401h401q17 0 17 -14v-122zM1061 395q0 -14 -17 -14h-952q-17 0 -17 14v122q0 14 17 14h952q17 0 17 -14v-122z" />
    <glyph glyph-name="uni00B2" unicode="&#xb2;" horiz-adv-x="636" 
d="M100 1032v62l152 180q166 205 166 334q0 94 -27.5 136.5t-57.5 42.5q-55 0 -91 -107q-14 -16 7 -42t23.5 -29.5t-2.5 -13.5q-9 -22 -116 39l-20 12q0 76 61 145.5t143.5 69.5t134.5 -63t52 -142q0 -143 -97 -289.5t-165 -219.5l-30 -32q62 0 108 9.5t57 11.5t48 10.5
t44.5 10t11 5t7 8.5t6.5 8q5 -2 9 -3t8 -2.5t4 -9t-22.5 -69.5t-29.5 -62h-384z" />
    <glyph glyph-name="uni00B3" unicode="&#xb3;" horiz-adv-x="608" 
d="M259 1488h-12q-10 0 -9 8q0 39 1 59q0 9 17 9q69 21 94.5 53t25.5 75.5t-19.5 74.5t-52.5 31t-51 -22t-18 -38t8 -28t8 -15t-7 -11.5t-15.5 -8.5t-90.5 68q-6 6 -3 10q35 54 72 80.5t106 26.5t114 -48.5t45 -139.5t-119 -135v-3q161 -33 161 -198q0 -140 -108 -222
t-288 -82q-7 0 -12 21.5t13 35.5q56 -6 125 25t121 93t52 128t-44.5 106t-113.5 47z" />
    <glyph glyph-name="acute" unicode="&#xb4;" horiz-adv-x="614" 
d="M292 1435q13 11 26 0l118 -71q11 -16 0 -31l-66 -71l-182 -218q-22 -25 -58 14q-6 6 1 16z" />
    <glyph glyph-name="uni00B5" unicode="&#xb5;" horiz-adv-x="1203" 
d="M94 786l1 18q0 3 56 47t83 63l53 36q11 8 34 -1t23 -27v-611q0 -62 40 -110q79 -98 224 -98q69 0 114 17q66 25 112 49l44 23v628q0 23 -12 47.5t-31 32t-27 12.5t-8 23t13 18h218q11 0 11 -27v-690q0 -56 34 -86q8 -7 26 -8t23.5 -5.5t6 -23t-4.5 -21.5l-195 -102
q-4 -3 -25.5 -3t-25.5 4t-4 27v87q-195 -134 -315 -134t-221 64v-273q0 -5 -0.5 -21.5t-0.5 -20.5q8 -65 43.5 -79.5t35.5 -25.5q0 -28 -13 -28h-295q-13 0 -13 18t8 23t21 10t20.5 12.5t13.5 17t9 16t4.5 19t1.5 17.5v967q0 43 -15.5 61t-34.5 18.5t-24 4.5q-8 6 -8 15z
" />
    <glyph glyph-name="paragraph" unicode="&#xb6;" horiz-adv-x="1445" 
d="M884 162v1302q0 45 -12 54.5t-34 9.5q-254 0 -411.5 -176.5t-157.5 -469.5q0 -180 82 -362.5t208.5 -298t249.5 -115.5q63 0 71 22q4 12 4 34zM1040 1464l2 -1302q0 -50 17 -54q6 -2 23.5 -2t23.5 2q18 5 17 54v1302q0 64 -41 64q-27 0 -34.5 -17t-7.5 -47zM1271 1464
l-3 -1441q0 -187 130 -317q22 -22 22 -42q0 -55 -30 -55q-22 0 -66.5 32t-89 78.5t-78 105t-33.5 103.5q0 72 -41 72h-205q-224 0 -443 150q-158 107 -262 301.5t-104 473.5q0 389 342 587q200 116 467 123q139 3 468 3q69 0 69 -21q0 -54 -14 -65q-29 -24 -92 -24
q-37 0 -37 -64z" />
    <glyph glyph-name="periodcentered" unicode="&#xb7;" horiz-adv-x="448" 
d="M246 685q-14 -11 -26 0l-112 116q-11 15 0 31l112 121q13 11 26 0l116 -121q11 -16 0 -31z" />
    <glyph glyph-name="cedilla" unicode="&#xb8;" horiz-adv-x="350" 
d="M223 -169.5q-31 29.5 -65 29.5t-77 -17q-5 0 -7.5 11.5t0.5 20.5l72 122q1 1 -1 3h77l-51 -90q5 1 14 1q58 0 100.5 -42t42.5 -108t-46.5 -117t-113.5 -51t-102 32.5t-44 80.5q0 7 14 11t15 2q5 -20 40 -38t69 -18q94 0 94 103q0 35 -31 64.5z" />
    <glyph glyph-name="uni00B9" unicode="&#xb9;" horiz-adv-x="393" 
d="M147 1119v569q1 38 -31 40q-16 0 -16 8q0 13 7 20l95 93q1 1 5 1h43q4 0 4 -8v-723q0 -55 24 -63q14 -6 14.5 -15t-6.5 -9h-172q-6 0 -6 9t4 11t10.5 4.5t15.5 11.5t9 51z" />
    <glyph glyph-name="ordmasculine" unicode="&#xba;" horiz-adv-x="698" 
d="M307 1422q-115 0 -115 -146q0 -70 60 -127.5t139 -57.5q46 0 77 45t31 109.5t-51.5 120.5t-140.5 56zM173 1085q-73 71 -73 176.5t71 177t179.5 71.5t178 -72t69.5 -176.5t-73 -176t-176 -71.5t-176 71z" />
    <glyph glyph-name="guillemotright" unicode="&#xbb;" horiz-adv-x="927" 
d="M830 1222h1q5 -8 0 -17h-1l-307 -249q-10 -15 -31 3.5t-19 24.5l6 18l150 212l-150 211l-6 18q-5 14 36 34q7 4 14 -5zM462 1222h1q5 -8 0 -17h-1l-307 -249q-10 -15 -31 3.5t-19 24.5l6 18l150 212l-150 211l-6 18q-5 14 36 34q7 4 14 -5z" />
    <glyph glyph-name="onequarter" unicode="&#xbc;" horiz-adv-x="929" 
d="M170 907v569q0 38 -32 40q-16 0 -15 8q0 13 7 20l95 93q1 1 5 1h43q4 0 4 -8v-723q0 -55 25 -63q14 -6 14 -15t-7 -9h-172q-6 0 -6 9t4 11q5 2 11 4q24 8 24 63zM550 366h157v258h-2l-155 -252q-2 -2 -2 -4t2 -2zM707 286h-252q-4 0 -4 4v60l281 462q4 6 7 6h70q6 0 6 -6
v-442q0 -1 4 0q23 8 42 38q2 3 4.5 1.5t10.5 -3.5t12 -4t-15 -50.5t-26 -61t-14 -8.5t-13 4t-5 -5v-194q1 -43 9 -51t18 -13t10.5 -14t-5.5 -9h-172q-7 0 -7 9t4 11t10 4q25 8 25 63v199zM25 182q1 15 8 30l724 1426q6 10 21 2.5t17 -20.5v-164q0 -10 -9 -30l-724 -1426
q-6 -10 -20.5 -2.5t-16.5 20.5v164z" />
    <glyph glyph-name="onehalf" unicode="&#xbd;" horiz-adv-x="929" 
d="M490 0v62l152 180q166 205 166 334q0 94 -28 136.5t-57 42.5q-55 0 -91 -107q-14 -16 7 -42t23 -29.5t-2 -13.5q-9 -22 -116 39l-20 12q0 76 61 146t143 69.5t134.5 -63.5t52.5 -142q0 -143 -97 -289.5t-165 -219.5l-30 -32q62 -1 108 9t57 12t47.5 10t44.5 10
q13 3 17.5 11t7.5 11q5 -2 9 -3q12 -3 12 -11t-22 -70t-30 -62h-384zM170 907v569q0 38 -32 40q-16 0 -15 8q0 13 7 20l95 93q1 1 5 1h43q4 0 4 -8v-723q0 -55 25 -63q14 -6 14 -15t-7 -9h-172q-6 0 -6 9t4 11q5 2 11 4q24 8 24 63zM25 182q1 15 8 30l724 1426q6 10 21 2.5
t17 -20.5v-164q0 -10 -9 -30l-724 -1426q-6 -10 -20.5 -2.5t-16.5 20.5v164z" />
    <glyph glyph-name="threequarters" unicode="&#xbe;" horiz-adv-x="929" 
d="M555 366h157v258h-2l-155 -252q-2 -2 -2 -4t2 -2zM712 286h-252q-4 0 -4 4v60l281 462q4 6 7 6h70q6 0 6 -6v-442q0 -1 4 0q23 8 42 38q2 3 4.5 1.5t10.5 -3.5t12 -4t-15 -50.5t-26 -61t-14 -8.5t-13 4t-5 -5v-194q1 -43 9 -51t18 -13t10.5 -14t-5.5 -9h-172q-7 0 -7 9
t4 11t10 4q25 8 25 63v199zM175 1266h-12q-10 0 -9 8q0 39 1 59q0 9 17 9q69 21 95 52.5t25 75.5q1 44 -19 75t-53 31t-51 -22t-18 -38t8 -28t8 -15t-7 -11t-15.5 -8.5t-90.5 67.5q-6 6 -3 10q35 55 72 81t106 26t114 -48t45 -139.5t-119 -135.5v-3q161 -32 161 -198
q0 -140 -108 -222t-288 -82q-7 0 -12 21.5t13 35.5q56 -6 125 25t121 93t52 128t-44 106t-114 47zM30 182q1 15 8 30l724 1426q6 10 21 2.5t17 -20.5v-164q0 -10 -9 -30l-724 -1426q-6 -10 -20.5 -2.5t-16.5 20.5v164z" />
    <glyph glyph-name="questiondown" unicode="&#xbf;" horiz-adv-x="788" 
d="M423 1481q11 10 21 0l90 -93q9 -12 0 -24l-90 -97q-10 -10 -21 0l-93 97q-10 13 0 24zM510 1289q50 -28 50 -106q0 -156 -87 -306l-162 -270q-87 -149 -87 -310q0 -78 45.5 -133.5t113.5 -55.5t110 54q67 87 8 146q-10 10 -1.5 43.5t23.5 31.5q88 -54 135 -99
q26 -23 -4 -101q-48 -126 -166 -170q-46 -18 -101 -17q-140 0 -230 100.5t-90.5 244t87.5 270.5l176 249q104 145 135 302q2 20 2.5 24t-2 23.5t-2.5 24t-1.5 7t-2.5 3.5t2 4.5t18 27t31 13.5z" />
    <glyph glyph-name="Agrave" unicode="&#xc0;" horiz-adv-x="1665" 
d="M729 2196l161 -361q7 -10 1 -16q-36 -39 -56 -16q-190 231 -250 291q-11 15 0 31l118 71q13 11 26 0zM115 153l658 1473q5 12 49 12t50 -12l678 -1473q39 -91 77 -109q13 -6 13 -25t-13 -19h-362q-13 0 -13 17.5t4.5 21t12.5 7t13 8.5q38 38 38 70.5t-7 53.5l-145 343
h-721l-142 -343q-7 -21 -7 -32v-11v-2q0 -41 38 -79q4 -4 17 -10t13 -25t-13 -19h-315q-13 0 -13 17.5t4.5 21t12.5 7.5q33 14 73 107zM518 680q-2 -3 -1 -7.5t4 -4.5h571q3 0 4 4.5t-1 7.5l-289 628h-7z" />
    <glyph glyph-name="Aacute" unicode="&#xc1;" horiz-adv-x="1665" 
d="M932 2196q13 11 26 0l118 -71q11 -16 0 -31l-66 -71l-182 -218q-22 -25 -58 14q-6 6 1 16zM115 153l658 1473q5 12 49 12t50 -12l678 -1473q39 -91 77 -109q13 -6 13 -25t-13 -19h-362q-13 0 -13 17.5t4.5 21t12.5 7t13 8.5q38 38 38 70.5t-7 53.5l-145 343h-721
l-142 -343q-7 -21 -7 -32v-11v-2q0 -41 38 -79q4 -4 17 -10t13 -25t-13 -19h-315q-13 0 -13 17.5t4.5 21t12.5 7.5q33 14 73 107zM518 680q-2 -3 -1 -7.5t4 -4.5h571q3 0 4 4.5t-1 7.5l-289 628h-7z" />
    <glyph glyph-name="Acircumflex" unicode="&#xc2;" horiz-adv-x="1665" 
d="M817 2151q8 5 17 0l249 -308q10 -9 6 -15q-24 -45 -52 -28l-211 150l-212 -150q-29 -18 -52 29q-3 6 5 14zM115 153l658 1473q5 12 49 12t50 -12l678 -1473q39 -91 77 -109q13 -6 13 -25t-13 -19h-362q-13 0 -13 17.5t4.5 21t12.5 7t13 8.5q38 38 38 70.5t-7 53.5
l-145 343h-721l-142 -343q-7 -21 -7 -32v-11v-2q0 -41 38 -79q4 -4 17 -10t13 -25t-13 -19h-315q-13 0 -13 17.5t4.5 21t12.5 7.5q33 14 73 107zM518 680q-2 -3 -1 -7.5t4 -4.5h571q3 0 4 4.5t-1 7.5l-289 628h-7z" />
    <glyph glyph-name="Atilde" unicode="&#xc3;" horiz-adv-x="1665" 
d="M813 1868l-72 60q-50 42 -63 44.5t-23.5 5.5t-20.5 -1t-21.5 -15t-18.5 -30.5t-10 -32t-6.5 -36t-7.5 -30t-27.5 3t-23.5 14.5q1 7 3.5 40.5t6 54.5t12 50.5t25.5 49t42 28.5t48.5 11t48.5 -6q54 -17 83 -39l115 -90q50 -42 62.5 -44.5t23 -5.5t20.5 1t21.5 15t18.5 30.5
t10 32t6.5 36t7.5 31t27.5 -3t23.5 -15.5q-1 -7 -3.5 -40.5t-6 -54.5t-12 -50.5t-25.5 -49t-42 -28.5q-53 -19 -88 -8l-51 18q-26 10 -83 54zM115 153l658 1473q5 12 49 12t50 -12l678 -1473q39 -91 77 -109q13 -6 13 -25t-13 -19h-362q-13 0 -13 17.5t4.5 21t12.5 7t13 8.5
q38 38 38 70.5t-7 53.5l-145 343h-721l-142 -343q-7 -21 -7 -32v-11v-2q0 -41 38 -79q4 -4 17 -10t13 -25t-13 -19h-315q-13 0 -13 17.5t4.5 21t12.5 7.5q33 14 73 107zM518 680q-2 -3 -1 -7.5t4 -4.5h571q3 0 4 4.5t-1 7.5l-289 628h-7z" />
    <glyph glyph-name="Adieresis" unicode="&#xc4;" horiz-adv-x="1665" 
d="M1011 1798q-12 -10 -22 0l-90 93q-9 12 0 24l90 97q11 11 22 0l92 -97q10 -13 0 -24zM671 1798q-12 -10 -22 0l-90 93q-9 12 0 24l90 97q11 11 22 0l92 -97q10 -13 0 -24zM115 153l658 1473q5 12 49 12t50 -12l678 -1473q39 -91 77 -109q13 -6 13 -25t-13 -19h-362
q-13 0 -13 17.5t4.5 21t12.5 7t13 8.5q38 38 38 70.5t-7 53.5l-145 343h-721l-142 -343q-7 -21 -7 -32v-11v-2q0 -41 38 -79q4 -4 17 -10t13 -25t-13 -19h-315q-13 0 -13 17.5t4.5 21t12.5 7.5q33 14 73 107zM518 680q-2 -3 -1 -7.5t4 -4.5h571q3 0 4 4.5t-1 7.5l-289 628
h-7z" />
    <glyph glyph-name="Aring" unicode="&#xc5;" horiz-adv-x="1665" 
d="M840 1735q88 0 88 103q0 48 -35 91t-84 43t-74 -28.5t-25 -74t42.5 -90t87.5 -44.5zM681.5 1716q-58.5 57 -58.5 142t56.5 141.5t143.5 56.5t142.5 -58t55.5 -141.5t-57.5 -140.5t-140.5 -57t-141.5 57zM115 153l658 1473q5 12 49 12t50 -12l678 -1473q39 -91 77 -109
q13 -6 13 -25t-13 -19h-362q-13 0 -13 17.5t4.5 21t12.5 7t13 8.5q38 38 38 70.5t-7 53.5l-145 343h-721l-142 -343q-7 -21 -7 -32v-11v-2q0 -41 38 -79q4 -4 17 -10t13 -25t-13 -19h-315q-13 0 -13 17.5t4.5 21t12.5 7.5q33 14 73 107zM518 680q-2 -3 -1 -7.5t4 -4.5h571
q3 0 4 4.5t-1 7.5l-289 628h-7z" />
    <glyph glyph-name="AE" unicode="&#xc6;" horiz-adv-x="2088" 
d="M1762 970q73 0 121 48q4 4 10 17t25 13t19 -13v-271q0 -13 -17.5 -13t-21 4.5t-7 12.5t-16 20.5t-46 26.5t-67.5 14l-631 -4v-663h664q113 0 147 26q18 12 28 27t15.5 15.5t20 -4.5t14.5 -9t-14 -39l-32 -81q-18 -45 -24.5 -68.5t-17.5 -28.5h-1060q-13 0 -13 17.5
t4.5 21t12.5 7t20.5 16t26.5 46t14 67.5v346h-490q-94 -211 -142 -343q-24 -69 31 -124q4 -4 17 -10t13 -25t-13 -19h-315q-13 0 -13 17.5t4.5 21t12.5 7.5q33 15 73 107l658 1473q5 12 49 12h1110q10 0 17 -25.5t25 -71.5l32 -81q14 -34 14 -38t-14.5 -9t-19.5 -5
q-6 0 -16 15t-35.5 35t-139.5 19h-664v-507h631zM937 668v768h-86l-161 -373l-172 -383q-2 -3 -1 -7.5t4 -4.5h416z" />
    <glyph glyph-name="Ccedilla" unicode="&#xc7;" horiz-adv-x="1767" 
d="M963 -207.5q-31 29.5 -65 29.5t-77 -17q-5 0 -7.5 11.5t0.5 20.5l66 112q-174 8 -324.5 81t-254 190.5t-162.5 272t-59 322t67.5 323t180.5 269t268 182t313 68.5q188 0 379 -73l46 -17q10 -4 28 8t38.5 12t30.5 -19q4 -3 3 -21q-2 -28 24 -133l25 -110q10 -44 10 -55
q0 -6 -25.5 -18.5t-29.5 -5.5q-83 145 -208.5 200t-313 55t-338.5 -85t-233 -236.5t-82 -343.5q0 -126 58 -254.5t149.5 -226t212.5 -159t240 -61.5q226 0 404.5 102t293.5 274q13 21 19.5 13t17 -22t16.5 -24l14 -21q16 -24 11 -31q-58 -118 -194 -233q-251 -212 -551 -223
l-43 -77q5 1 14 1q58 0 100.5 -42t42.5 -108t-46.5 -117t-113.5 -51t-102 32.5t-44 80.5q0 7 14 11t15 2q5 -20 40 -38t69 -18q94 0 94 103q0 35 -31 64.5z" />
    <glyph glyph-name="Egrave" unicode="&#xc8;" horiz-adv-x="1344" 
d="M555 2196l161 -361q7 -10 1 -16q-36 -39 -56 -16q-190 231 -250 291q-11 15 0 31l118 71q13 11 26 0zM1008 980q73 0 121 48q4 4 10 17t25 13t19 -13v-290q0 -13 -17.5 -13t-21 4.5t-7 12.5t-16 20.5t-46 25.5t-67.5 13h-631v-656h664q113 0 138.5 19.5t36 34.5t16 15
t20 -5t14.5 -9t-14 -39l-32 -81q-18 -46 -24.5 -69.5t-17.5 -27.5h-1060q-13 0 -13 17.5t4.5 21t12.5 7t20.5 16t26.5 46t14 67.5v1288q0 73 -48 121q-4 4 -17 10t-13 25t13 19h1060q10 0 17 -25.5t25 -71.5l32 -81q14 -35 14 -39t-14.5 -9t-19 -5t-9.5 5.5t-11.5 15t-32 29
t-138.5 19.5h-664v-496h631z" />
    <glyph glyph-name="Eacute" unicode="&#xc9;" horiz-adv-x="1344" 
d="M758 2196q13 11 26 0l118 -71q11 -16 0 -31l-66 -71l-182 -218q-22 -25 -58 14q-6 6 1 16zM1008 980q73 0 121 48q4 4 10 17t25 13t19 -13v-290q0 -13 -17.5 -13t-21 4.5t-7 12.5t-16 20.5t-46 25.5t-67.5 13h-631v-656h664q113 0 138.5 19.5t36 34.5t16 15t20 -5
t14.5 -9t-14 -39l-32 -81q-18 -46 -24.5 -69.5t-17.5 -27.5h-1060q-13 0 -13 17.5t4.5 21t12.5 7t20.5 16t26.5 46t14 67.5v1288q0 73 -48 121q-4 4 -17 10t-13 25t13 19h1060q10 0 17 -25.5t25 -71.5l32 -81q14 -35 14 -39t-14.5 -9t-19 -5t-9.5 5.5t-11.5 15t-32 29
t-138.5 19.5h-664v-496h631z" />
    <glyph glyph-name="Ecircumflex" unicode="&#xca;" horiz-adv-x="1344" 
d="M671 2151q8 5 17 0l249 -308q10 -9 6 -15q-24 -45 -52 -28l-211 150l-212 -150q-29 -18 -52 29q-3 6 5 14zM1008 980q73 0 121 48q4 4 10 17t25 13t19 -13v-290q0 -13 -17.5 -13t-21 4.5t-7 12.5t-16 20.5t-46 25.5t-67.5 13h-631v-656h664q113 0 138.5 19.5t36 34.5
t16 15t20 -5t14.5 -9t-14 -39l-32 -81q-18 -46 -24.5 -69.5t-17.5 -27.5h-1060q-13 0 -13 17.5t4.5 21t12.5 7t20.5 16t26.5 46t14 67.5v1288q0 73 -48 121q-4 4 -17 10t-13 25t13 19h1060q10 0 17 -25.5t25 -71.5l32 -81q14 -35 14 -39t-14.5 -9t-19 -5t-9.5 5.5t-11.5 15
t-32 29t-138.5 19.5h-664v-496h631z" />
    <glyph glyph-name="Edieresis" unicode="&#xcb;" horiz-adv-x="1344" 
d="M837 1798q-12 -10 -22 0l-90 93q-9 12 0 24l90 97q11 11 22 0l92 -97q10 -13 0 -24zM497 1798q-12 -10 -22 0l-90 93q-9 12 0 24l90 97q11 11 22 0l92 -97q10 -13 0 -24zM1008 980q73 0 121 48q4 4 10 17t25 13t19 -13v-290q0 -13 -17.5 -13t-21 4.5t-7 12.5t-16 20.5
t-46 25.5t-67.5 13h-631v-656h664q113 0 138.5 19.5t36 34.5t16 15t20 -5t14.5 -9t-14 -39l-32 -81q-18 -46 -24.5 -69.5t-17.5 -27.5h-1060q-13 0 -13 17.5t4.5 21t12.5 7t20.5 16t26.5 46t14 67.5v1288q0 73 -48 121q-4 4 -17 10t-13 25t13 19h1060q10 0 17 -25.5
t25 -71.5l32 -81q14 -35 14 -39t-14.5 -9t-19 -5t-9.5 5.5t-11.5 15t-32 29t-138.5 19.5h-664v-496h631z" />
    <glyph glyph-name="Igrave" unicode="&#xcc;" 
d="M197 2196l161 -361q7 -10 1 -16q-36 -39 -56 -16q-190 231 -250 291q-11 15 0 31l118 71q13 11 26 0zM128 1638h324q13 0 13 -17.5t-4.5 -21t-12.5 -7t-20.5 -16t-26.5 -46t-14 -67.5v-1288q0 -73 48 -121q4 -4 17 -10t13 -25t-13 -19h-324q-13 0 -13 17.5t4.5 21t12.5 7
t20.5 16t26.5 46t14 67.5v1288q0 73 -48 121q-4 4 -17 10t-13 25t13 19z" />
    <glyph glyph-name="Iacute" unicode="&#xcd;" 
d="M400 2196q13 11 26 0l118 -71q11 -16 0 -31l-66 -71l-182 -218q-22 -25 -58 14q-6 6 1 16zM128 1638h324q13 0 13 -17.5t-4.5 -21t-12.5 -7t-20.5 -16t-26.5 -46t-14 -67.5v-1288q0 -73 48 -121q4 -4 17 -10t13 -25t-13 -19h-324q-13 0 -13 17.5t4.5 21t12.5 7t20.5 16
t26.5 46t14 67.5v1288q0 73 -48 121q-4 4 -17 10t-13 25t13 19z" />
    <glyph glyph-name="Icircumflex" unicode="&#xce;" 
d="M285 2151q8 5 17 0l249 -308q10 -9 6 -15q-24 -45 -52 -28l-211 150l-212 -150q-29 -18 -52 29q-3 6 5 14zM128 1638h324q13 0 13 -17.5t-4.5 -21t-12.5 -7t-20.5 -16t-26.5 -46t-14 -67.5v-1288q0 -73 48 -121q4 -4 17 -10t13 -25t-13 -19h-324q-13 0 -13 17.5t4.5 21
t12.5 7t20.5 16t26.5 46t14 67.5v1288q0 73 -48 121q-4 4 -17 10t-13 25t13 19z" />
    <glyph glyph-name="Idieresis" unicode="&#xcf;" 
d="M479 1798q-12 -10 -22 0l-90 93q-9 12 0 24l90 97q11 11 22 0l92 -97q10 -13 0 -24zM139 1798q-12 -10 -22 0l-90 93q-9 12 0 24l90 97q11 11 22 0l92 -97q10 -13 0 -24zM128 1638h324q13 0 13 -17.5t-4.5 -21t-12.5 -7t-20.5 -16t-26.5 -46t-14 -67.5v-1288
q0 -73 48 -121q4 -4 17 -10t13 -25t-13 -19h-324q-13 0 -13 17.5t4.5 21t12.5 7t20.5 16t26.5 46t14 67.5v1288q0 73 -48 121q-4 4 -17 10t-13 25t13 19z" />
    <glyph glyph-name="Eth" unicode="&#xd0;" horiz-adv-x="1356" 
d="M258 194q0 -37 35 -37q70 0 176.5 0.5t218.5 35.5q210 65 307 233t97 398q0 278 -154 458q-78 90 -206 142.5t-262.5 54t-173 1.5t-38.5 -22v-542h348v-152h-348v-570zM505 0h-503q-13 0 -13 17.5t4.5 21t12.5 7.5t20.5 16t26.5 45.5t14 67.5v589h-78v152h78v547
q0 73 -48 121q-4 4 -17 10t-13 25t13 19h453q244 0 467 -132q158 -94 262 -265.5t104 -416.5q0 -156 -58 -304.5t-158.5 -263.5t-249 -185.5t-317.5 -70.5z" />
    <glyph glyph-name="Ntilde" unicode="&#xd1;" horiz-adv-x="1921" 
d="M943 1868l-72 60q-50 42 -63 44.5t-23.5 5.5t-20.5 -1t-21.5 -15t-18.5 -30.5t-10 -32t-6.5 -36t-7.5 -30t-27.5 3t-23.5 14.5q1 7 3.5 40.5t6 54.5t12 50.5t25.5 49t42 28.5t48.5 11t48.5 -6q54 -17 83 -39l115 -90q50 -42 62.5 -44.5t23 -5.5t20.5 1t21.5 15t18.5 30.5
t10 32t6.5 36t7.5 31t27.5 -3t23.5 -15.5q-1 -7 -3.5 -40.5t-6 -54.5t-12 -50.5t-25.5 -49t-42 -28.5q-53 -19 -88 -8l-51 18q-26 10 -83 54zM377 1638q9 0 17 -8l1118 -1186h7v1019q0 72 -49 121q-4 4 -17 10t-13 25t13 19h327q13 0 13 -17.5t-4.5 -21t-12.5 -7t-21 -16.5
t-27.5 -46t-14.5 -67v-1410q0 -37 -9.5 -45t-30.5 -8t-34 12l-1257 1334v-1171q0 -77 44 -121q4 -4 17 -10t13 -25t-13 -19h-322q-13 0 -13 17.5t4.5 21t12.5 7t13 8.5q50 50 50 121v1288q0 74 -47 121q-4 4 -17 10t-13 25t13 19h253z" />
    <glyph glyph-name="Ograve" unicode="&#xd2;" horiz-adv-x="1892" 
d="M831 2196l161 -361q7 -10 1 -16q-36 -39 -56 -16q-190 231 -250 291q-11 15 0 31l118 71q13 11 26 0zM743 170q98 -39 192 -39q320 0 509.5 187.5t189.5 503.5q0 109 -55.5 229t-148.5 219.5t-227.5 164.5t-304.5 65t-321 -86t-233 -238t-82 -352.5t146.5 -389.5
t334.5 -264zM146 494.5q-66 160.5 -66 332t69.5 327t184 269t270 181.5t308.5 68t286 -40q263 -79 438.5 -294.5t175.5 -506.5q0 -171 -62 -327t-173.5 -276.5t-281 -192.5t-357.5 -72t-345 69t-269 185.5t-178 277z" />
    <glyph glyph-name="Oacute" unicode="&#xd3;" horiz-adv-x="1892" 
d="M1034 2196q13 11 26 0l118 -71q11 -16 0 -31l-66 -71l-182 -218q-22 -25 -58 14q-6 6 1 16zM743 170q98 -39 192 -39q320 0 509.5 187.5t189.5 503.5q0 109 -55.5 229t-148.5 219.5t-227.5 164.5t-304.5 65t-321 -86t-233 -238t-82 -352.5t146.5 -389.5t334.5 -264z
M146 494.5q-66 160.5 -66 332t69.5 327t184 269t270 181.5t308.5 68t286 -40q263 -79 438.5 -294.5t175.5 -506.5q0 -171 -62 -327t-173.5 -276.5t-281 -192.5t-357.5 -72t-345 69t-269 185.5t-178 277z" />
    <glyph glyph-name="Ocircumflex" unicode="&#xd4;" horiz-adv-x="1892" 
d="M919 2151q8 5 17 0l249 -308q10 -9 6 -15q-24 -45 -52 -28l-211 150l-212 -150q-29 -18 -52 29q-3 6 5 14zM743 170q98 -39 192 -39q320 0 509.5 187.5t189.5 503.5q0 109 -55.5 229t-148.5 219.5t-227.5 164.5t-304.5 65t-321 -86t-233 -238t-82 -352.5t146.5 -389.5
t334.5 -264zM146 494.5q-66 160.5 -66 332t69.5 327t184 269t270 181.5t308.5 68t286 -40q263 -79 438.5 -294.5t175.5 -506.5q0 -171 -62 -327t-173.5 -276.5t-281 -192.5t-357.5 -72t-345 69t-269 185.5t-178 277z" />
    <glyph glyph-name="Otilde" unicode="&#xd5;" horiz-adv-x="1892" 
d="M915 1868l-72 60q-50 42 -63 44.5t-23.5 5.5t-20.5 -1t-21.5 -15t-18.5 -30.5t-10 -32t-6.5 -36t-7.5 -30t-27.5 3t-23.5 14.5q1 7 3.5 40.5t6 54.5t12 50.5t25.5 49t42 28.5t48.5 11t48.5 -6q54 -17 83 -39l115 -90q50 -42 62.5 -44.5t23 -5.5t20.5 1t21.5 15t18.5 30.5
t10 32t6.5 36t7.5 31t27.5 -3t23.5 -15.5q-1 -7 -3.5 -40.5t-6 -54.5t-12 -50.5t-25.5 -49t-42 -28.5q-53 -19 -88 -8l-51 18q-26 10 -83 54zM743 170q98 -39 192 -39q320 0 509.5 187.5t189.5 503.5q0 109 -55.5 229t-148.5 219.5t-227.5 164.5t-304.5 65t-321 -86
t-233 -238t-82 -352.5t146.5 -389.5t334.5 -264zM146 494.5q-66 160.5 -66 332t69.5 327t184 269t270 181.5t308.5 68t286 -40q263 -79 438.5 -294.5t175.5 -506.5q0 -171 -62 -327t-173.5 -276.5t-281 -192.5t-357.5 -72t-345 69t-269 185.5t-178 277z" />
    <glyph glyph-name="Odieresis" unicode="&#xd6;" horiz-adv-x="1892" 
d="M1113 1798q-12 -10 -22 0l-90 93q-9 12 0 24l90 97q11 11 22 0l92 -97q10 -13 0 -24zM773 1798q-12 -10 -22 0l-90 93q-9 12 0 24l90 97q11 11 22 0l92 -97q10 -13 0 -24zM743 170q98 -39 192 -39q320 0 509.5 187.5t189.5 503.5q0 109 -55.5 229t-148.5 219.5
t-227.5 164.5t-304.5 65t-321 -86t-233 -238t-82 -352.5t146.5 -389.5t334.5 -264zM146 494.5q-66 160.5 -66 332t69.5 327t184 269t270 181.5t308.5 68t286 -40q263 -79 438.5 -294.5t175.5 -506.5q0 -171 -62 -327t-173.5 -276.5t-281 -192.5t-357.5 -72t-345 69
t-269 185.5t-178 277z" />
    <glyph glyph-name="multiply" unicode="&#xd7;" horiz-adv-x="943" 
d="M874 1183q10 -9 -2 -21l-284 -284l284 -284q12 -12 2 -21l-87 -87q-9 -10 -21 2l-284 284l-284 -284q-12 -12 -21 -2l-87 87q-10 9 2 21l284 284l-284 284q-12 12 -2 21l87 87q9 10 21 -2l284 -284l284 284q12 12 21 2z" />
    <glyph glyph-name="Oslash" unicode="&#xd8;" horiz-adv-x="1942" 
d="M1495 1257l-937 -931q97 -90 209 -142.5t221 -52.5q320 0 509.5 187.5t189.5 503.5q0 106 -51 221.5t-141 213.5zM1384 1358q-188 142 -395.5 142t-358.5 -86t-233 -238t-82 -348t143 -390zM977 -37q-325 0 -564 220l-199 -198q-21 -21 -39 -12q-47 23 -90 75
q-3 7 1.5 15t5.5 12l221 219q-180 236 -180 537q0 167 69.5 322.5t184 269t270 181.5t320.5 68q307 0 547 -176l172 171q20 22 39 12q47 -23 90 -75q8 -14 -7 -27l-181 -179q228 -239 228 -567q0 -171 -62 -327t-173.5 -276.5t-281 -192.5t-371.5 -72z" />
    <glyph glyph-name="Ugrave" unicode="&#xd9;" horiz-adv-x="1737" 
d="M769 2196l161 -361q7 -10 1 -16q-36 -39 -56 -16q-190 231 -250 291q-11 15 0 31l118 71q13 11 26 0zM195 1463q0 71 -50 121q-4 4 -17 10t-13 25t13 19h336q13 0 13 -17.5t-4.5 -21t-12.5 -7t-20.5 -16t-26.5 -46t-14 -67.5v-829q0 -231 142.5 -358.5t348.5 -127.5
q121 0 227.5 61.5t169 163t62.5 215.5v875q0 73 -48 121q-4 4 -17 10t-13 25t13 19h312q13 0 13 -17.5t-4.5 -21t-12.5 -7t-20.5 -16t-26.5 -46t-14 -67.5v-875q0 -172 -88.5 -316t-237 -226t-329 -82t-337 84t-250.5 238.5t-94 347.5v829z" />
    <glyph glyph-name="Uacute" unicode="&#xda;" horiz-adv-x="1737" 
d="M972 2196q13 11 26 0l118 -71q11 -16 0 -31l-66 -71l-182 -218q-22 -25 -58 14q-6 6 1 16zM195 1463q0 71 -50 121q-4 4 -17 10t-13 25t13 19h336q13 0 13 -17.5t-4.5 -21t-12.5 -7t-20.5 -16t-26.5 -46t-14 -67.5v-829q0 -231 142.5 -358.5t348.5 -127.5
q121 0 227.5 61.5t169 163t62.5 215.5v875q0 73 -48 121q-4 4 -17 10t-13 25t13 19h312q13 0 13 -17.5t-4.5 -21t-12.5 -7t-20.5 -16t-26.5 -46t-14 -67.5v-875q0 -172 -88.5 -316t-237 -226t-329 -82t-337 84t-250.5 238.5t-94 347.5v829z" />
    <glyph glyph-name="Ucircumflex" unicode="&#xdb;" horiz-adv-x="1737" 
d="M857 2151q8 5 17 0l249 -308q10 -9 6 -15q-24 -45 -52 -28l-211 150l-212 -150q-29 -18 -52 29q-3 6 5 14zM195 1463q0 71 -50 121q-4 4 -17 10t-13 25t13 19h336q13 0 13 -17.5t-4.5 -21t-12.5 -7t-20.5 -16t-26.5 -46t-14 -67.5v-829q0 -231 142.5 -358.5t348.5 -127.5
q121 0 227.5 61.5t169 163t62.5 215.5v875q0 73 -48 121q-4 4 -17 10t-13 25t13 19h312q13 0 13 -17.5t-4.5 -21t-12.5 -7t-20.5 -16t-26.5 -46t-14 -67.5v-875q0 -172 -88.5 -316t-237 -226t-329 -82t-337 84t-250.5 238.5t-94 347.5v829z" />
    <glyph glyph-name="Udieresis" unicode="&#xdc;" horiz-adv-x="1737" 
d="M1051 1798q-12 -10 -22 0l-90 93q-9 12 0 24l90 97q11 11 22 0l92 -97q10 -13 0 -24zM711 1798q-12 -10 -22 0l-90 93q-9 12 0 24l90 97q11 11 22 0l92 -97q10 -13 0 -24zM195 1463q0 71 -50 121q-4 4 -17 10t-13 25t13 19h336q13 0 13 -17.5t-4.5 -21t-12.5 -7
t-20.5 -16t-26.5 -46t-14 -67.5v-829q0 -231 142.5 -358.5t348.5 -127.5q121 0 227.5 61.5t169 163t62.5 215.5v875q0 73 -48 121q-4 4 -17 10t-13 25t13 19h312q13 0 13 -17.5t-4.5 -21t-12.5 -7t-20.5 -16t-26.5 -46t-14 -67.5v-875q0 -172 -88.5 -316t-237 -226t-329 -82
t-337 84t-250.5 238.5t-94 347.5v829z" />
    <glyph glyph-name="Yacute" unicode="&#xdd;" horiz-adv-x="1696" 
d="M958 2196q13 11 26 0l118 -71q11 -16 0 -31l-66 -71l-182 -218q-22 -25 -58 14q-6 6 1 16zM744 691l-591 794q-28 38 -62 67.5t-37 32.5t-16 9t-13 25t13 19h362q13 0 13 -17.5t-4.5 -21t-12.5 -7.5q-37 -16 -31.5 -48.5t43.5 -83.5l441 -590h8l453 590q65 81 62.5 97.5
t-9.5 23.5t-20 13t-13 25t13 19h315q13 0 13 -17.5t-4.5 -21t-12.5 -7t-11 -6.5t-16 -12l-27 -21q-40 -32 -66 -68l-584 -758v-552q0 -73 48 -121q4 -4 17 -10t13 -25t-13 -19h-337q-13 0 -13 17.5t4.5 21t12.5 7t21 16.5t27 46t14 67v516z" />
    <glyph glyph-name="Thorn" unicode="&#xde;" horiz-adv-x="1356" 
d="M128 1638h324q13 0 13 -17.5t-4.5 -21t-12.5 -7t-20.5 -16t-26.5 -46t-14 -67.5v-185h287q296 0 440 -193q74 -98 74 -231.5t-50 -212.5t-124 -118q-109 -56 -219.5 -69.5t-209.5 -13.5h-134q-13 0 -13 28v84q0 28 13 28h134q306 0 383 141q30 55 30 121.5t-17.5 109.5
t-46.5 69q-100 92 -256 95h-230q-22 0 -41.5 -17.5t-19.5 -34.5v-889q0 -73 48 -121q4 -4 17 -10t13 -25t-13 -19h-324q-13 0 -13 17.5t4.5 21t12.5 7t20.5 16t26.5 46t14 67.5v1288q0 73 -48 121q-4 4 -17 10t-13 25t13 19z" />
    <glyph glyph-name="germandbls" unicode="&#xdf;" horiz-adv-x="1157" 
d="M111 0q-13 0 -13 18t8.5 23t21 10t20 12.5t13.5 17t9 16t4.5 19t2 17t0 21t-0.5 21.5v1005q0 122 93.5 249t229.5 179q75 29 145 29t129 -26t101 -66t67.5 -90t25 -96t-11.5 -84.5t-27 -62.5q-32 -52 -87 -85l-52 -32q-96 -57 -134 -116.5t-38 -100.5q0 -70 77 -121
l73 -49q43 -29 64 -49l115 -102q69 -64 89 -94.5t44 -75t23 -119.5q0 -146 -100 -217.5t-235 -71.5q-78 0 -155.5 16.5t-87.5 18.5q-44 6 -48 21q-27 70 -27 161q0 12 14 19.5t26 7.5q18 0 41.5 -29t111.5 -63.5t157 -34.5t112 35t43 92q0 123 -154 249q-29 23 -72 54
l-77 53q-83 56 -118 99q-66 81 -67 164q0 124 64.5 206.5t233.5 178.5q41 24 49.5 55t8 69t-17 73t-56.5 61t-97 26t-112 -32.5t-98.5 -84t-71.5 -122t-28 -141.5v-999q0 -24 12.5 -47.5t39 -34.5t26.5 -22q0 -28 -13 -28h-295z" />
    <glyph glyph-name="agrave" unicode="&#xe0;" horiz-adv-x="1102" 
d="M377 1497l161 -361q7 -10 1 -16q-36 -39 -56 -16q-190 231 -250 291q-11 15 0 31l118 71q13 11 26 0zM212 253q0 -67 58 -100.5t118 -33.5t89.5 5t60.5 18q58 24 103 50l47 26l-58 266q-36 -14 -89 -31l-96 -30q-233 -70 -233 -170zM611 587q-30 274 -159 274
q-79 0 -137.5 -56.5t-58.5 -132.5l9 -41q0 -8 -19.5 -25t-26.5 -11l-116 149q0 13 22.5 29t38.5 32l24 23q52 52 73 66l49 32q72 47 160 47q129 0 196 -70q46 -48 64 -94.5t26 -75.5q17 -62 28 -144l11 -77q6 -46 12.5 -86t8.5 -54.5t10 -51t15 -60.5q21 -71 49 -106.5
t62.5 -35.5t48.5 20q26 38 38 38q6 0 20 -14t14 -21t-31.5 -46.5t-71 -77.5t-56.5 -38q-64 0 -121.5 50.5t-70.5 106.5q-33 -30 -112 -73q-156 -84 -250 -84t-158.5 27t-107 83t-42.5 117t17 102t44 70.5t67 55t81 42.5q86 35 190.5 62.5t159.5 48.5z" />
    <glyph glyph-name="aacute" unicode="&#xe1;" horiz-adv-x="1102" 
d="M580 1497q13 11 26 0l118 -71q11 -16 0 -31l-66 -71l-182 -218q-22 -25 -58 14q-6 6 1 16zM212 253q0 -67 58 -100.5t118 -33.5t89.5 5t60.5 18q58 24 103 50l47 26l-58 266q-36 -14 -89 -31l-96 -30q-233 -70 -233 -170zM611 587q-30 274 -159 274q-79 0 -137.5 -56.5
t-58.5 -132.5l9 -41q0 -8 -19.5 -25t-26.5 -11l-116 149q0 13 22.5 29t38.5 32l24 23q52 52 73 66l49 32q72 47 160 47q129 0 196 -70q46 -48 64 -94.5t26 -75.5q17 -62 28 -144l11 -77q6 -46 12.5 -86t8.5 -54.5t10 -51t15 -60.5q21 -71 49 -106.5t62.5 -35.5t48.5 20
q26 38 38 38q6 0 20 -14t14 -21t-31.5 -46.5t-71 -77.5t-56.5 -38q-64 0 -121.5 50.5t-70.5 106.5q-33 -30 -112 -73q-156 -84 -250 -84t-158.5 27t-107 83t-42.5 117t17 102t44 70.5t67 55t81 42.5q86 35 190.5 62.5t159.5 48.5z" />
    <glyph glyph-name="acircumflex" unicode="&#xe2;" horiz-adv-x="1102" 
d="M465 1453q8 5 17 0l249 -308q10 -9 6 -15q-24 -45 -52 -28l-211 150l-212 -150q-29 -18 -52 29q-3 6 5 14zM212 253q0 -67 58 -100.5t118 -33.5t89.5 5t60.5 18q58 24 103 50l47 26l-58 266q-36 -14 -89 -31l-96 -30q-233 -70 -233 -170zM611 587q-30 274 -159 274
q-79 0 -137.5 -56.5t-58.5 -132.5l9 -41q0 -8 -19.5 -25t-26.5 -11l-116 149q0 13 22.5 29t38.5 32l24 23q52 52 73 66l49 32q72 47 160 47q129 0 196 -70q46 -48 64 -94.5t26 -75.5q17 -62 28 -144l11 -77q6 -46 12.5 -86t8.5 -54.5t10 -51t15 -60.5q21 -71 49 -106.5
t62.5 -35.5t48.5 20q26 38 38 38q6 0 20 -14t14 -21t-31.5 -46.5t-71 -77.5t-56.5 -38q-64 0 -121.5 50.5t-70.5 106.5q-33 -30 -112 -73q-156 -84 -250 -84t-158.5 27t-107 83t-42.5 117t17 102t44 70.5t67 55t81 42.5q86 35 190.5 62.5t159.5 48.5z" />
    <glyph glyph-name="atilde" unicode="&#xe3;" horiz-adv-x="1102" 
d="M462 1170l-72 60q-50 42 -63 44.5t-23.5 5.5t-20.5 -1t-21.5 -15t-18.5 -30.5t-10 -32t-6.5 -36t-7.5 -30t-27.5 3t-23.5 14.5q1 7 3.5 40.5t6 54.5t12 50.5t25.5 49t42 28.5t48.5 11t48.5 -6q54 -17 83 -39l115 -90q50 -42 62.5 -44.5t23 -5.5t20.5 1t21.5 15t18.5 30.5
t10 32t6.5 36t7.5 31t27.5 -3t23.5 -15.5q-1 -7 -3.5 -40.5t-6 -54.5t-12 -50.5t-25.5 -49t-42 -28.5q-53 -19 -88 -8l-51 18q-26 10 -83 54zM212 253q0 -67 58 -100.5t118 -33.5t89.5 5t60.5 18q58 24 103 50l47 26l-58 266q-36 -14 -89 -31l-96 -30q-233 -70 -233 -170z
M611 587q-30 274 -159 274q-79 0 -137.5 -56.5t-58.5 -132.5l9 -41q0 -8 -19.5 -25t-26.5 -11l-116 149q0 13 22.5 29t38.5 32l24 23q52 52 73 66l49 32q72 47 160 47q129 0 196 -70q46 -48 64 -94.5t26 -75.5q17 -62 28 -144l11 -77q6 -46 12.5 -86t8.5 -54.5t10 -51
t15 -60.5q21 -71 49 -106.5t62.5 -35.5t48.5 20q26 38 38 38q6 0 20 -14t14 -21t-31.5 -46.5t-71 -77.5t-56.5 -38q-64 0 -121.5 50.5t-70.5 106.5q-33 -30 -112 -73q-156 -84 -250 -84t-158.5 27t-107 83t-42.5 117t17 102t44 70.5t67 55t81 42.5q86 35 190.5 62.5
t159.5 48.5z" />
    <glyph glyph-name="adieresis" unicode="&#xe4;" horiz-adv-x="1102" 
d="M659 1100q-12 -10 -22 0l-90 93q-9 12 0 24l90 97q11 11 22 0l92 -97q10 -13 0 -24zM319 1100q-12 -10 -22 0l-90 93q-9 12 0 24l90 97q11 11 22 0l92 -97q10 -13 0 -24zM212 253q0 -67 58 -100.5t118 -33.5t89.5 5t60.5 18q58 24 103 50l47 26l-58 266q-36 -14 -89 -31
l-96 -30q-233 -70 -233 -170zM611 587q-30 274 -159 274q-79 0 -137.5 -56.5t-58.5 -132.5l9 -41q0 -8 -19.5 -25t-26.5 -11l-116 149q0 13 22.5 29t38.5 32l24 23q52 52 73 66l49 32q72 47 160 47q129 0 196 -70q46 -48 64 -94.5t26 -75.5q17 -62 28 -144l11 -77
q6 -46 12.5 -86t8.5 -54.5t10 -51t15 -60.5q21 -71 49 -106.5t62.5 -35.5t48.5 20q26 38 38 38q6 0 20 -14t14 -21t-31.5 -46.5t-71 -77.5t-56.5 -38q-64 0 -121.5 50.5t-70.5 106.5q-33 -30 -112 -73q-156 -84 -250 -84t-158.5 27t-107 83t-42.5 117t17 102t44 70.5t67 55
t81 42.5q86 35 190.5 62.5t159.5 48.5z" />
    <glyph glyph-name="aring" unicode="&#xe5;" horiz-adv-x="1102" 
d="M488 1172q88 0 88 103q0 48 -35 91t-84 43t-74 -28.5t-25 -74t42.5 -90t87.5 -44.5zM329.5 1153q-58.5 57 -58.5 142t56.5 141.5t143.5 56.5t142.5 -58t55.5 -141.5t-57.5 -140.5t-140.5 -57t-141.5 57zM212 253q0 -67 58 -100.5t118 -33.5t89.5 5t60.5 18q58 24 103 50
l47 26l-58 266q-36 -14 -89 -31l-96 -30q-233 -70 -233 -170zM611 587q-30 274 -159 274q-79 0 -137.5 -56.5t-58.5 -132.5l9 -41q0 -8 -19.5 -25t-26.5 -11l-116 149q0 13 22.5 29t38.5 32l24 23q52 52 73 66l49 32q72 47 160 47q129 0 196 -70q46 -48 64 -94.5t26 -75.5
q17 -62 28 -144l11 -77q6 -46 12.5 -86t8.5 -54.5t10 -51t15 -60.5q21 -71 49 -106.5t62.5 -35.5t48.5 20q26 38 38 38q6 0 20 -14t14 -21t-31.5 -46.5t-71 -77.5t-56.5 -38q-64 0 -121.5 50.5t-70.5 106.5q-33 -30 -112 -73q-156 -84 -250 -84t-158.5 27t-107 83t-42.5 117
t17 102t44 70.5t67 55t81 42.5q86 35 190.5 62.5t159.5 48.5z" />
    <glyph glyph-name="ae" unicode="&#xe6;" horiz-adv-x="1637" 
d="M212 253q0 -67 58 -100.5t118 -33.5t89.5 5t60.5 18q58 24 103 50l47 26l-58 266q-36 -14 -89 -31l-96 -30q-233 -70 -233 -170zM256 672l9 -41q0 -8 -19.5 -25t-26.5 -11l-116 149q0 13 22.5 29t48.5 41l44 44q65 62 122.5 88.5t148.5 26.5q181 0 252 -196
q68 94 176.5 145.5t244.5 51.5q190 0 335 -174q73 -88 73 -140l-754 -273q43 -117 145.5 -184.5t231.5 -67.5q166 0 301 155q15 15 62 -21q3 -2 -1 -9q-68 -126 -176.5 -202t-231.5 -76q-241 0 -393 184q-46 -48 -125 -95q-153 -92 -301.5 -92t-233.5 113q-42 56 -42 115
t17 99.5t44.5 70t67.5 55t81 42.5q92 38 193.5 65t155.5 48q-30 274 -159 274q-78 0 -137 -57t-59 -132zM1361 695q-59 169 -255 169q-87 0 -160.5 -47t-114.5 -121t-41 -139t4 -64l565 197v6z" />
    <glyph glyph-name="ccedilla" unicode="&#xe7;" horiz-adv-x="1029" 
d="M383 -298q0 8 14 11.5t15 1.5q5 -20 39.5 -38t66.5 -18q62 0 79.5 31t17.5 69t-31.5 67.5t-53.5 29.5t-33 -2t-20.5 -4t-17 -4.5t-12.5 -4.5t-7.5 -2t-5 11.5t0.5 20.5l67 113q-181 15 -313 152q-134 138 -134 356q0 120 63 235.5t181 181t274.5 65.5t288.5 -117
q3 -3 9.5 -7t9 -6t0.5 -11l-54 -168q-5 -15 -12 -16.5t-24.5 4t-20 10t-5.5 27.5q-7 64 -40 96q-84 78 -210 78q-87 0 -161 -47t-114.5 -121t-40.5 -174.5t54 -194t145.5 -143t193.5 -49.5t171.5 28.5t139.5 95.5q16 16 58 -26q3 -3 -1 -9q-128 -226 -384 -241l-44 -77
q5 1 14 1q58 0 100.5 -42t42.5 -108t-46.5 -117t-113.5 -51t-102 32.5t-44 80.5z" />
    <glyph glyph-name="egrave" unicode="&#xe8;" horiz-adv-x="1045" 
d="M411 1498l161 -361q7 -10 1 -16q-36 -39 -56 -16q-190 231 -250 291q-11 15 0 31l118 71q13 11 26 0zM770 695q-59 169 -255 169q-89 0 -163 -47.5t-113.5 -121t-39.5 -138.5t4 -64l565 197v6zM225 387q43 -118 145 -185t232 -67q165 0 301 155q21 20 62 -21q3 -3 -1 -9
q-114 -158 -177 -202q-107 -76 -247 -76q-95 0 -184 38q-183 80 -261 256q-40 90 -40 213.5t62.5 238t181 180.5t272.5 66q188 0 334 -174q74 -88 74 -140z" />
    <glyph glyph-name="eacute" unicode="&#xe9;" horiz-adv-x="1045" 
d="M700 1498q13 11 26 0l118 -71q11 -16 0 -31l-66 -71l-182 -218q-22 -25 -58 14q-6 6 1 16zM770 695q-59 169 -255 169q-89 0 -163 -47.5t-113.5 -121t-39.5 -138.5t4 -64l565 197v6zM225 387q43 -118 145 -185t232 -67q165 0 301 155q21 20 62 -21q3 -3 -1 -9
q-114 -158 -177 -202q-107 -76 -247 -76q-95 0 -184 38q-183 80 -261 256q-40 90 -40 213.5t62.5 238t181 180.5t272.5 66q188 0 334 -174q74 -88 74 -140z" />
    <glyph glyph-name="ecircumflex" unicode="&#xea;" horiz-adv-x="1045" 
d="M511 1453q8 5 17 0l249 -308q10 -9 6 -15q-24 -45 -52 -28l-211 150l-212 -150q-29 -18 -52 29q-3 6 5 14zM770 695q-59 169 -255 169q-89 0 -163 -47.5t-113.5 -121t-39.5 -138.5t4 -64l565 197v6zM225 387q43 -118 145 -185t232 -67q165 0 301 155q21 20 62 -21
q3 -3 -1 -9q-114 -158 -177 -202q-107 -76 -247 -76q-95 0 -184 38q-183 80 -261 256q-40 90 -40 213.5t62.5 238t181 180.5t272.5 66q188 0 334 -174q74 -88 74 -140z" />
    <glyph glyph-name="edieresis" unicode="&#xeb;" horiz-adv-x="1045" 
d="M715 1100q-12 -10 -22 0l-90 93q-9 12 0 24l90 97q11 11 22 0l92 -97q10 -13 0 -24zM375 1100q-12 -10 -22 0l-90 93q-9 12 0 24l90 97q11 11 22 0l92 -97q10 -13 0 -24zM770 695q-59 169 -255 169q-89 0 -163 -47.5t-113.5 -121t-39.5 -138.5t4 -64l565 197v6zM225 387
q43 -118 145 -185t232 -67q165 0 301 155q21 20 62 -21q3 -3 -1 -9q-114 -158 -177 -202q-107 -76 -247 -76q-95 0 -184 38q-183 80 -261 256q-40 90 -40 213.5t62.5 238t181 180.5t272.5 66q188 0 334 -174q74 -88 74 -140z" />
    <glyph glyph-name="igrave" unicode="&#xec;" horiz-adv-x="519" 
d="M123 1497l161 -361q7 -10 1 -16q-36 -39 -56 -16q-190 231 -250 291q-11 15 0 31l118 71q13 11 26 0zM104 0q-13 0 -13 18t8 23t20.5 10t19.5 12q31 31 31 69v572q0 32 -16.5 46t-34.5 15t-24.5 6t-6.5 20.5t1.5 17.5t5.5 4.5t5 3.5l180 133q7 5 11.5 2.5t23.5 -8.5
t20 -22v-747q0 -5 -0.5 -21.5t-0.5 -21.5q8 -63 43 -78t36 -26q0 -28 -13 -28h-296z" />
    <glyph glyph-name="iacute" unicode="&#xed;" horiz-adv-x="519" 
d="M326 1497q13 11 26 0l118 -71q11 -16 0 -31l-66 -71l-182 -218q-22 -25 -58 14q-6 6 1 16zM104 0q-13 0 -13 18t8 23t20.5 10t19.5 12q31 31 31 69v572q0 32 -16.5 46t-34.5 15t-24.5 6t-6.5 20.5t1.5 17.5t5.5 4.5t5 3.5l180 133q7 5 11.5 2.5t23.5 -8.5t20 -22v-747
q0 -5 -0.5 -21.5t-0.5 -21.5q8 -63 43 -78t36 -26q0 -28 -13 -28h-296z" />
    <glyph glyph-name="icircumflex" unicode="&#xee;" horiz-adv-x="519" 
d="M211 1453q8 5 17 0l249 -308q10 -9 6 -15q-24 -45 -52 -28l-211 150l-212 -150q-29 -18 -52 29q-3 6 5 14zM104 0q-13 0 -13 18t8 23t20.5 10t19.5 12q31 31 31 69v572q0 32 -16.5 46t-34.5 15t-24.5 6t-6.5 20.5t1.5 17.5t5.5 4.5t5 3.5l180 133q7 5 11.5 2.5t23.5 -8.5
t20 -22v-747q0 -5 -0.5 -21.5t-0.5 -21.5q8 -63 43 -78t36 -26q0 -28 -13 -28h-296z" />
    <glyph glyph-name="idieresis" unicode="&#xef;" horiz-adv-x="519" 
d="M405 1100q-12 -10 -22 0l-90 93q-9 12 0 24l90 97q11 11 22 0l92 -97q10 -13 0 -24zM65 1100q-12 -10 -22 0l-90 93q-9 12 0 24l90 97q11 11 22 0l92 -97q10 -13 0 -24zM104 0q-13 0 -13 18t8 23t20.5 10t19.5 12q31 31 31 69v572q0 32 -16.5 46t-34.5 15t-24.5 6
t-6.5 20.5t1.5 17.5t5.5 4.5t5 3.5l180 133q7 5 11.5 2.5t23.5 -8.5t20 -22v-747q0 -5 -0.5 -21.5t-0.5 -21.5q8 -63 43 -78t36 -26q0 -28 -13 -28h-296z" />
    <glyph glyph-name="eth" unicode="&#xf0;" horiz-adv-x="1111" 
d="M786 1293q265 -326 265 -814q0 -212 -144.5 -354.5t-366.5 -142.5q-94 0 -182.5 38t-155 102t-107 154t-40.5 213t63 238.5t181 181t259.5 65.5t252.5 -65q-58 188 -163 329l-256 -104q-36 -15 -52 -7l-33 82q3 14 17 20l247 101q-89 96 -178 163.5t-93 71.5h153
q138 -72 250 -181l214 86q37 16 52 7l33 -82q-4 -14 -16 -19zM230 689.5q-31 -66.5 -31 -168.5t56.5 -204t155 -161.5t196 -59.5t159 44t94 114t32.5 154q0 177 -112.5 304t-301.5 127q-87 0 -152 -41.5t-96 -108z" />
    <glyph glyph-name="ntilde" unicode="&#xf1;" horiz-adv-x="1175" 
d="M590 1170l-72 60q-50 42 -63 44.5t-23.5 5.5t-20.5 -1t-21.5 -15t-18.5 -30.5t-10 -32t-6.5 -36t-7.5 -30t-27.5 3t-23.5 14.5q1 7 3.5 40.5t6 54.5t12 50.5t25.5 49t42 28.5t48.5 11t48.5 -6q54 -17 83 -39l115 -90q50 -42 62.5 -44.5t23 -5.5t20.5 1t21.5 15t18.5 30.5
t10 32t6.5 36t7.5 31t27.5 -3t23.5 -15.5q-1 -7 -3.5 -40.5t-6 -54.5t-12 -50.5t-25.5 -49t-42 -28.5q-53 -19 -88 -8l-51 18q-26 10 -83 54zM102 0q-13 0 -13 18t8.5 23t21 10t19.5 12q31 31 30.5 69.5t-0.5 42.5v529q0 32 -16 46t-34 15t-23.5 5.5t-7 8.5t-2 7t0 9t0.5 9
t1.5 5t5.5 4.5t5 3.5l180 133q4 3 22 3t26 -4.5t8 -26.5v-74l51 30l30 15q139 70 260 70t238 -86q53 -39 86.5 -94.5t33.5 -115.5v-535q0 -22 12 -46.5t39 -35.5t27 -22q0 -28 -13 -28h-293q-13 0 -13 18t8.5 23t21 10t21 13t14.5 18t8.5 23.5t3 20t0 25t-0.5 24.5v467
q0 60 -40 105q-77 84 -216 84t-279 -70v-629q0 -22 12 -46.5t39 -35.5t27 -22q0 -28 -13 -28h-296z" />
    <glyph glyph-name="ograve" unicode="&#xf2;" horiz-adv-x="1104" 
d="M424 1497l161 -361q7 -10 1 -16q-36 -39 -56 -16q-190 231 -250 291q-11 15 0 31l118 71q13 11 26 0zM230 689.5q-31 -66.5 -31 -168.5t56.5 -204t155 -161.5t196 -59.5t159 44t94 114t32.5 154q0 177 -112.5 304t-301.5 127q-87 0 -152 -41.5t-96 -108zM95.5 276
q-40.5 90 -40.5 213t63 239t181 181t245 65q232 0 369 -145.5t137.5 -353.5t-144.5 -350.5t-366 -142.5q-94 0 -182.5 38t-155 102t-107 154z" />
    <glyph glyph-name="oacute" unicode="&#xf3;" horiz-adv-x="1104" 
d="M681 1497q13 11 26 0l118 -71q11 -16 0 -31l-66 -71l-182 -218q-22 -25 -58 14q-6 6 1 16zM230 689.5q-31 -66.5 -31 -168.5t56.5 -204t155 -161.5t196 -59.5t159 44t94 114t32.5 154q0 177 -112.5 304t-301.5 127q-87 0 -152 -41.5t-96 -108zM95.5 276
q-40.5 90 -40.5 213t63 239t181 181t245 65q232 0 369 -145.5t137.5 -353.5t-144.5 -350.5t-366 -142.5q-94 0 -182.5 38t-155 102t-107 154z" />
    <glyph glyph-name="ocircumflex" unicode="&#xf4;" horiz-adv-x="1104" 
d="M536 1453q8 5 17 0l249 -308q10 -9 6 -15q-24 -45 -52 -28l-211 150l-212 -150q-29 -18 -52 29q-3 6 5 14zM230 689.5q-31 -66.5 -31 -168.5t56.5 -204t155 -161.5t196 -59.5t159 44t94 114t32.5 154q0 177 -112.5 304t-301.5 127q-87 0 -152 -41.5t-96 -108zM95.5 276
q-40.5 90 -40.5 213t63 239t181 181t245 65q232 0 369 -145.5t137.5 -353.5t-144.5 -350.5t-366 -142.5q-94 0 -182.5 38t-155 102t-107 154z" />
    <glyph glyph-name="otilde" unicode="&#xf5;" horiz-adv-x="1104" 
d="M563 1170l-72 60q-50 42 -63 44.5t-23.5 5.5t-20.5 -1t-21.5 -15t-18.5 -30.5t-10 -32t-6.5 -36t-7.5 -30t-27.5 3t-23.5 14.5q1 7 3.5 40.5t6 54.5t12 50.5t25.5 49t42 28.5t48.5 11t48.5 -6q54 -17 83 -39l115 -90q50 -42 62.5 -44.5t23 -5.5t20.5 1t21.5 15t18.5 30.5
t10 32t6.5 36t7.5 31t27.5 -3t23.5 -15.5q-1 -7 -3.5 -40.5t-6 -54.5t-12 -50.5t-25.5 -49t-42 -28.5q-53 -19 -88 -8l-51 18q-26 10 -83 54zM230 689.5q-31 -66.5 -31 -168.5t56.5 -204t155 -161.5t196 -59.5t159 44t94 114t32.5 154q0 177 -112.5 304t-301.5 127
q-87 0 -152 -41.5t-96 -108zM95.5 276q-40.5 90 -40.5 213t63 239t181 181t245 65q232 0 369 -145.5t137.5 -353.5t-144.5 -350.5t-366 -142.5q-94 0 -182.5 38t-155 102t-107 154z" />
    <glyph glyph-name="odieresis" unicode="&#xf6;" horiz-adv-x="1104" 
d="M736 1100q-12 -10 -22 0l-90 93q-9 12 0 24l90 97q11 11 22 0l92 -97q10 -13 0 -24zM396 1100q-12 -10 -22 0l-90 93q-9 12 0 24l90 97q11 11 22 0l92 -97q10 -13 0 -24zM230 689.5q-31 -66.5 -31 -168.5t56.5 -204t155 -161.5t196 -59.5t159 44t94 114t32.5 154
q0 177 -112.5 304t-301.5 127q-87 0 -152 -41.5t-96 -108zM95.5 276q-40.5 90 -40.5 213t63 239t181 181t245 65q232 0 369 -145.5t137.5 -353.5t-144.5 -350.5t-366 -142.5q-94 0 -182.5 38t-155 102t-107 154z" />
    <glyph glyph-name="divide" unicode="&#xf7;" horiz-adv-x="1136" 
d="M580 1098q-14 -10 -26 0l-112 116q-11 16 0 31l112 121q13 11 26 0l116 -121q11 -16 0 -31zM580 389q-14 -11 -26 0l-112 116q-11 15 0 31l112 121q13 11 26 0l116 -121q11 -16 0 -31zM1061 817q0 -14 -17 -14h-952q-17 0 -17 14v122q0 14 17 14h952q17 0 17 -14v-122z
" />
    <glyph glyph-name="oslash" unicode="&#xf8;" horiz-adv-x="1131" 
d="M136 276q-40 90 -40 213t63 238.5t181 181t245 65.5q187 0 312 -94l76 76q17 19 42 10.5t39 -31t-1 -35.5l-86 -86q124 -141 124 -339q1 -208 -143.5 -350.5t-366.5 -142.5q-94 0 -182 38q-77 33 -137 85l-104 -105q-19 -19 -43.5 -10.5t-38 30t1.5 36.5l118 119
q-35 45 -60 101zM271 689.5q-31 -66.5 -31 -168.5t57 -204q7 -13 15 -26l462 465q-102 83 -255 83q-87 0 -152 -41.5t-96 -108zM841 687l-468 -471q35 -34 78 -60q99 -60 196.5 -60t159 44t94 114t32.5 154q0 160 -92 279z" />
    <glyph glyph-name="ugrave" unicode="&#xf9;" horiz-adv-x="1199" 
d="M452 1497l161 -361q7 -10 1 -16q-36 -39 -56 -16q-190 231 -250 291q-11 15 0 31l118 71q13 11 26 0zM94 786l1 18q0 3 70.5 59.5t121.5 89.5h49q6 -6 6 -31v-611q0 -63 40 -112q80 -96 226 -96q100 0 225 66l44 23v618q0 73 -49 92q-13 5 -21 10t-8 23t13 18h225
q6 0 6 -325l-1 -392q0 -56 34 -86q8 -7 26 -8t23.5 -5.5t6 -23t-4.5 -21.5l-195 -102q-4 -3 -26 -3t-26 4t-4 27v87q-1 0 -16 -11q-187 -123 -314 -123q-85 0 -171 43.5t-142 117.5t-56 154v401q0 42 -16 60.5t-35 19t-24 4.5q-8 6 -8 15z" />
    <glyph glyph-name="uacute" unicode="&#xfa;" horiz-adv-x="1199" 
d="M791 1497q13 11 26 0l118 -71q11 -16 0 -31l-66 -71l-182 -218q-22 -25 -58 14q-6 6 1 16zM94 786l1 18q0 3 70.5 59.5t121.5 89.5h49q6 -6 6 -31v-611q0 -63 40 -112q80 -96 226 -96q100 0 225 66l44 23v618q0 73 -49 92q-13 5 -21 10t-8 23t13 18h225q6 0 6 -325
l-1 -392q0 -56 34 -86q8 -7 26 -8t23.5 -5.5t6 -23t-4.5 -21.5l-195 -102q-4 -3 -26 -3t-26 4t-4 27v87q-1 0 -16 -11q-187 -123 -314 -123q-85 0 -171 43.5t-142 117.5t-56 154v401q0 42 -16 60.5t-35 19t-24 4.5q-8 6 -8 15z" />
    <glyph glyph-name="ucircumflex" unicode="&#xfb;" horiz-adv-x="1199" 
d="M584 1453q8 5 17 0l249 -308q10 -9 6 -15q-24 -45 -52 -28l-211 150l-212 -150q-29 -18 -52 29q-3 6 5 14zM94 786l1 18q0 3 70.5 59.5t121.5 89.5h49q6 -6 6 -31v-611q0 -63 40 -112q80 -96 226 -96q100 0 225 66l44 23v618q0 73 -49 92q-13 5 -21 10t-8 23t13 18h225
q6 0 6 -325l-1 -392q0 -56 34 -86q8 -7 26 -8t23.5 -5.5t6 -23t-4.5 -21.5l-195 -102q-4 -3 -26 -3t-26 4t-4 27v87q-1 0 -16 -11q-187 -123 -314 -123q-85 0 -171 43.5t-142 117.5t-56 154v401q0 42 -16 60.5t-35 19t-24 4.5q-8 6 -8 15z" />
    <glyph glyph-name="udieresis" unicode="&#xfc;" horiz-adv-x="1199" 
d="M784 1100q-12 -10 -22 0l-90 93q-9 12 0 24l90 97q11 11 22 0l92 -97q10 -13 0 -24zM444 1100q-12 -10 -22 0l-90 93q-9 12 0 24l90 97q11 11 22 0l92 -97q10 -13 0 -24zM94 786l1 18q0 3 70.5 59.5t121.5 89.5h49q6 -6 6 -31v-611q0 -63 40 -112q80 -96 226 -96
q100 0 225 66l44 23v618q0 73 -49 92q-13 5 -21 10t-8 23t13 18h225q6 0 6 -325l-1 -392q0 -56 34 -86q8 -7 26 -8t23.5 -5.5t6 -23t-4.5 -21.5l-195 -102q-4 -3 -26 -3t-26 4t-4 27v87q-1 0 -16 -11q-187 -123 -314 -123q-85 0 -171 43.5t-142 117.5t-56 154v401
q0 42 -16 60.5t-35 19t-24 4.5q-8 6 -8 15z" />
    <glyph glyph-name="yacute" unicode="&#xfd;" horiz-adv-x="1041" 
d="M759 1497q13 11 26 0l118 -71q11 -16 0 -31l-66 -71l-182 -218q-22 -25 -58 14q-6 6 1 16zM19 -413q-13 0 -13 22.5t4.5 28.5t19.5 11q217 79 423 436v7l-413 787q-17 32 -17 53t13 21h260q13 0 13 -17t-8.5 -22t-18.5 -9q-27 -9 -27 -31.5t4 -26.5l284 -548h29l273 548
q4 4 4 22q0 24 -27 34.5t-27 21.5q0 28 13 28h203q13 0 13 -17q0 -22 -9 -40l-235 -473q-58 -115 -94 -180l-92 -159q-55 -94 -102 -163l-108 -150q-60 -81 -124 -158q-23 -27 -39 -27z" />
    <glyph glyph-name="thorn" unicode="&#xfe;" horiz-adv-x="1137" 
d="M94 1471l1 18q0 5 5.5 8.5t6.5 4.5l180 133q4 3 25.5 3t25 -3.5t3.5 -27.5v-767q21 27 84 63q121 71 224 71t192.5 -39.5t152.5 -106.5q137 -144 137 -352.5t-144.5 -351t-366.5 -142.5q-151 0 -279 92v-312q0 -5 -0.5 -21.5t-0.5 -20.5q8 -65 43.5 -79.5t35.5 -25.5
q0 -28 -13 -28h-295q-13 0 -13 18t8 23t21 10t20 12q31 31 30.5 69.5t-0.5 42.5v1627q-1 33 -16.5 46.5t-33.5 14.5t-24 6q-9 6 -9 15zM750 791.5q-75 32.5 -181 32.5t-228 -120v-395q57 -98 154 -155.5t193 -57.5t157.5 44t94 114t32.5 154.5t-25.5 160t-73.5 133t-123 90z
" />
    <glyph glyph-name="ydieresis" unicode="&#xff;" horiz-adv-x="1041" 
d="M745 1100q-12 -10 -22 0l-90 93q-9 12 0 24l90 97q11 11 22 0l92 -97q10 -13 0 -24zM405 1100q-12 -10 -22 0l-90 93q-9 12 0 24l90 97q11 11 22 0l92 -97q10 -13 0 -24zM19 -413q-13 0 -13 22.5t4.5 28.5t19.5 11q217 79 423 436v7l-413 787q-17 32 -17 53t13 21h260
q13 0 13 -17t-8.5 -22t-18.5 -9q-27 -9 -27 -31.5t4 -26.5l284 -548h29l273 548q4 4 4 22q0 24 -27 34.5t-27 21.5q0 28 13 28h203q13 0 13 -17q0 -22 -9 -40l-235 -473q-58 -115 -94 -180l-92 -159q-55 -94 -102 -163l-108 -150q-60 -81 -124 -158q-23 -27 -39 -27z" />
    <glyph glyph-name="Amacron" unicode="&#x100;" horiz-adv-x="1665" 
d="M1158 1808q0 -14 -17 -14h-638q-17 0 -17 14v122q0 14 17 14h638q17 0 17 -14v-122zM115 153l658 1473q5 12 49 12t50 -12l678 -1473q39 -91 77 -109q13 -6 13 -25t-13 -19h-362q-13 0 -13 17.5t4.5 21t12.5 7t13 8.5q38 38 38 70.5t-7 53.5l-145 343h-721l-142 -343
q-7 -21 -7 -32v-11v-2q0 -41 38 -79q4 -4 17 -10t13 -25t-13 -19h-315q-13 0 -13 17.5t4.5 21t12.5 7.5q33 14 73 107zM518 680q-2 -3 -1 -7.5t4 -4.5h571q3 0 4 4.5t-1 7.5l-289 628h-7z" />
    <glyph glyph-name="amacron" unicode="&#x101;" horiz-adv-x="1102" 
d="M806 1110q0 -14 -17 -14h-638q-17 0 -17 14v122q0 14 17 14h638q17 0 17 -14v-122zM212 253q0 -67 58 -100.5t118 -33.5t89.5 5t60.5 18q58 24 103 50l47 26l-58 266q-36 -14 -89 -31l-96 -30q-233 -70 -233 -170zM611 587q-30 274 -159 274q-79 0 -137.5 -56.5
t-58.5 -132.5l9 -41q0 -8 -19.5 -25t-26.5 -11l-116 149q0 13 22.5 29t38.5 32l24 23q52 52 73 66l49 32q72 47 160 47q129 0 196 -70q46 -48 64 -94.5t26 -75.5q17 -62 28 -144l11 -77q6 -46 12.5 -86t8.5 -54.5t10 -51t15 -60.5q21 -71 49 -106.5t62.5 -35.5t48.5 20
q26 38 38 38q6 0 20 -14t14 -21t-31.5 -46.5t-71 -77.5t-56.5 -38q-64 0 -121.5 50.5t-70.5 106.5q-33 -30 -112 -73q-156 -84 -250 -84t-158.5 27t-107 83t-42.5 117t17 102t44 70.5t67 55t81 42.5q86 35 190.5 62.5t159.5 48.5z" />
    <glyph glyph-name="Abreve" unicode="&#x102;" horiz-adv-x="1665" 
d="M1022.5 1880q-81.5 -86 -194 -86t-200.5 88t-88 207q0 9 22.5 14.5t29.5 -1.5q44 -117 146 -167q40 -20 86 -20t88 19.5t79.5 61.5t53.5 86l7 20q6 6 29 1t23 -14q0 -123 -81.5 -209zM115 153l658 1473q5 12 49 12t50 -12l678 -1473q39 -91 77 -109q13 -6 13 -25t-13 -19
h-362q-13 0 -13 17.5t4.5 21t12.5 7t13 8.5q38 38 38 70.5t-7 53.5l-145 343h-721l-142 -343q-7 -21 -7 -32v-11v-2q0 -41 38 -79q4 -4 17 -10t13 -25t-13 -19h-315q-13 0 -13 17.5t4.5 21t12.5 7.5q33 14 73 107zM518 680q-2 -3 -1 -7.5t4 -4.5h571q3 0 4 4.5t-1 7.5
l-289 628h-7z" />
    <glyph glyph-name="abreve" unicode="&#x103;" horiz-adv-x="1102" 
d="M670.5 1182q-81.5 -86 -194 -86t-200.5 88t-88 207q0 9 22.5 14.5t29.5 -1.5q44 -117 146 -167q40 -20 86 -20t88 19.5t79.5 61.5t53.5 86l7 20q6 6 29 1t23 -14q0 -123 -81.5 -209zM212 253q0 -67 58 -100.5t118 -33.5t89.5 5t60.5 18q58 24 103 50l47 26l-58 266
q-36 -14 -89 -31l-96 -30q-233 -70 -233 -170zM611 587q-30 274 -159 274q-79 0 -137.5 -56.5t-58.5 -132.5l9 -41q0 -8 -19.5 -25t-26.5 -11l-116 149q0 13 22.5 29t38.5 32l24 23q52 52 73 66l49 32q72 47 160 47q129 0 196 -70q46 -48 64 -94.5t26 -75.5q17 -62 28 -144
l11 -77q6 -46 12.5 -86t8.5 -54.5t10 -51t15 -60.5q21 -71 49 -106.5t62.5 -35.5t48.5 20q26 38 38 38q6 0 20 -14t14 -21t-31.5 -46.5t-71 -77.5t-56.5 -38q-64 0 -121.5 50.5t-70.5 106.5q-33 -30 -112 -73q-156 -84 -250 -84t-158.5 27t-107 83t-42.5 117t17 102t44 70.5
t67 55t81 42.5q86 35 190.5 62.5t159.5 48.5z" />
    <glyph glyph-name="Aogonek" unicode="&#x104;" horiz-adv-x="1665" 
d="M518 680q-2 -3 -1 -7.5t4 -4.5h571q3 0 4 4.5t-1 7.5l-289 628h-7zM1572 -267q1 2 15 -2t14 -11q-9 -48 -59.5 -84.5t-112.5 -26t-103 68t-30 119t56 97.5t100 30l-43 76h-144q-13 0 -13 17.5t4.5 21t12.5 7.5t13 8q55 55 31 124l-145 343h-721l-142 -343
q-24 -69 31 -124q4 -4 17 -10t13 -25t-13 -19h-315q-13 0 -13 17.5t4.5 21t12.5 7.5q32 14 73 107l658 1473q5 12 49 12t50 -12l678 -1473q39 -91 77 -109q13 -6 13 -25t-13 -19h-144l66 -111q3 -9 0.5 -20.5t-7.5 -11.5q-32 11 -67 17t-67 -15.5t-40 -67t17 -75.5t64 -37
q73 -13 123 54z" />
    <glyph glyph-name="aogonek" unicode="&#x105;" horiz-adv-x="1102" 
d="M213 253q0 -67 57.5 -100.5t117.5 -33.5t89.5 5t60.5 18q58 24 103 50l48 26l-58 266q-36 -14 -90 -31l-96 -30q-167 -50 -213 -112q-19 -27 -19 -58zM612 587q-30 274 -159 274q-79 0 -137.5 -56.5t-58.5 -132.5l9 -41q0 -8 -20 -25t-26 -11l-116 149q0 13 22 29t38 32
l24 23q52 52 73 66l49 32q72 47 161 47q129 0 196 -70q46 -48 63.5 -94.5t25.5 -75.5q15 -56 28 -144l11 -77q6 -46 12.5 -86t8.5 -54.5t10 -51t15 -60.5q42 -142 117 -142q30 0 49.5 29t32.5 29q6 0 20 -14t14 -22t-50.5 -66.5t-83.5 -82.5l1 -1l72 -122q3 -9 0.5 -20.5
t-7.5 -11.5q-32 11 -67 17t-67.5 -15.5t-40.5 -67t17 -75.5t65 -37q73 -13 123 54q1 2 15 -1.5t14 -11.5q-9 -48 -59.5 -84.5t-112.5 -26t-103 68t-30.5 119t55.5 97.5t101 30l-48 84q-51 16 -93 60t-52 89q-33 -30 -113 -73q-156 -84 -250 -84t-158.5 27t-106.5 83t-42 117
t16.5 102t43.5 70.5t67 55t81 42.5q88 36 192 63t159 48z" />
    <glyph glyph-name="Cacute" unicode="&#x106;" horiz-adv-x="1767" 
d="M1028 2196q13 11 26 0l118 -71q11 -16 0 -31l-66 -71l-182 -218q-22 -25 -58 14q-6 6 1 16zM923 114q226 0 404.5 102t293.5 274q13 21 19.5 13t16.5 -22l31 -45q15 -25 11 -31q-60 -122 -201 -239q-261 -218 -575 -218q-182 0 -341 70.5t-268 188.5t-171.5 276.5
t-62.5 328.5t67.5 325.5t180.5 269t268 182t313 68.5q188 0 379 -73l46 -17q10 -4 28 8t38 12t31 -19q4 -3 3 -21q-2 -29 24 -133l25 -110q10 -43 10 -55q0 -6 -25.5 -18.5t-29.5 -5.5q-83 145 -208.5 200t-313 55t-338.5 -85t-233 -236.5t-82 -343.5q0 -126 58 -254.5
t149.5 -226t212.5 -159t240 -61.5z" />
    <glyph glyph-name="cacute" unicode="&#x107;" horiz-adv-x="1028" 
d="M680 1498q13 11 26 0l118 -71q11 -16 0 -31l-66 -71l-182 -218q-22 -25 -58 14q-6 6 1 16zM903 259q16 16 58 -26q3 -3 -1 -9q-175 -242 -420 -242q-95 0 -184 38q-183 80 -261 256q-40 90 -40 213.5t62.5 238t181 180.5t282.5 66t281 -117q1 -1 19 -13q2 -2 0 -11
l-54 -168q-5 -15 -12 -16.5t-25 4.5t-20 10t-7.5 48.5t-37.5 74.5q-82 78 -210 78q-89 0 -163 -47.5t-113.5 -121t-39.5 -174.5t54 -194t145.5 -142.5t193 -49t174 29.5t137.5 94z" />
    <glyph glyph-name="Ccircumflex" unicode="&#x108;" horiz-adv-x="1767" 
d="M913 2151q8 5 17 0l249 -308q10 -9 6 -15q-24 -45 -52 -28l-211 150l-212 -150q-29 -18 -52 29q-3 6 5 14zM923 114q226 0 404.5 102t293.5 274q13 21 19.5 13t16.5 -22l31 -45q15 -25 11 -31q-60 -122 -201 -239q-261 -218 -575 -218q-182 0 -341 70.5t-268 188.5
t-171.5 276.5t-62.5 328.5t67.5 325.5t180.5 269t268 182t313 68.5q188 0 379 -73l46 -17q10 -4 28 8t38 12t31 -19q4 -3 3 -21q-2 -29 24 -133l25 -110q10 -43 10 -55q0 -6 -25.5 -18.5t-29.5 -5.5q-83 145 -208.5 200t-313 55t-338.5 -85t-233 -236.5t-82 -343.5
q0 -126 58 -254.5t149.5 -226t212.5 -159t240 -61.5z" />
    <glyph glyph-name="ccircumflex" unicode="&#x109;" horiz-adv-x="1028" 
d="M565 1453q8 5 17 0l249 -308q10 -9 6 -15q-24 -45 -52 -28l-211 150l-212 -150q-29 -18 -52 29q-3 6 5 14zM903 259q16 16 58 -26q3 -3 -1 -9q-175 -242 -420 -242q-95 0 -184 38q-183 80 -261 256q-40 90 -40 213.5t62.5 238t181 180.5t282.5 66t281 -117q1 -1 19 -13
q2 -2 0 -11l-54 -168q-5 -15 -12 -16.5t-25 4.5t-20 10t-7.5 48.5t-37.5 74.5q-82 78 -210 78q-89 0 -163 -47.5t-113.5 -121t-39.5 -174.5t54 -194t145.5 -142.5t193 -49t174 29.5t137.5 94z" />
    <glyph glyph-name="Cdotaccent" unicode="&#x10a;" horiz-adv-x="1767" 
d="M940 1799q-14 -10 -26 0l-112 116q-11 16 0 31l112 121q13 11 26 0l116 -121q11 -16 0 -31zM923 114q226 0 404.5 102t293.5 274q13 21 19.5 13t16.5 -22l31 -45q15 -25 11 -31q-60 -122 -201 -239q-261 -218 -575 -218q-182 0 -341 70.5t-268 188.5t-171.5 276.5
t-62.5 328.5t67.5 325.5t180.5 269t268 182t313 68.5q188 0 379 -73l46 -17q10 -4 28 8t38 12t31 -19q4 -3 3 -21q-2 -29 24 -133l25 -110q10 -43 10 -55q0 -6 -25.5 -18.5t-29.5 -5.5q-83 145 -208.5 200t-313 55t-338.5 -85t-233 -236.5t-82 -343.5q0 -126 58 -254.5
t149.5 -226t212.5 -159t240 -61.5z" />
    <glyph glyph-name="cdotaccent" unicode="&#x10b;" horiz-adv-x="1028" 
d="M556 1101q-14 -10 -26 0l-112 116q-11 16 0 31l112 121q13 11 26 0l116 -121q11 -16 0 -31zM903 259q16 16 58 -26q3 -3 -1 -9q-175 -242 -420 -242q-95 0 -184 38q-183 80 -261 256q-40 90 -40 213.5t62.5 238t181 180.5t282.5 66t281 -117q1 -1 19 -13q2 -2 0 -11
l-54 -168q-5 -15 -12 -16.5t-25 4.5t-20 10t-7.5 48.5t-37.5 74.5q-82 78 -210 78q-89 0 -163 -47.5t-113.5 -121t-39.5 -174.5t54 -194t145.5 -142.5t193 -49t174 29.5t137.5 94z" />
    <glyph glyph-name="Ccaron" unicode="&#x10c;" horiz-adv-x="1767" 
d="M924 1796q-8 -5 -17 0l-249 308q-10 9 -6 15q24 45 52 28l211 -150l212 150q29 18 52 -29q3 -6 -5 -14zM923 114q226 0 404.5 102t293.5 274q13 21 19.5 13t16.5 -22l31 -45q15 -25 11 -31q-60 -122 -201 -239q-261 -218 -575 -218q-182 0 -341 70.5t-268 188.5
t-171.5 276.5t-62.5 328.5t67.5 325.5t180.5 269t268 182t313 68.5q188 0 379 -73l46 -17q10 -4 28 8t38 12t31 -19q4 -3 3 -21q-2 -29 24 -133l25 -110q10 -43 10 -55q0 -6 -25.5 -18.5t-29.5 -5.5q-83 145 -208.5 200t-313 55t-338.5 -85t-233 -236.5t-82 -343.5
q0 -126 58 -254.5t149.5 -226t212.5 -159t240 -61.5z" />
    <glyph glyph-name="ccaron" unicode="&#x10d;" horiz-adv-x="1028" 
d="M542 1098q-8 -5 -17 0l-249 308q-10 9 -6 15q24 45 52 28l211 -150l212 150q29 18 52 -29q3 -6 -5 -14zM903 259q16 16 58 -26q3 -3 -1 -9q-175 -242 -420 -242q-95 0 -184 38q-183 80 -261 256q-40 90 -40 213.5t62.5 238t181 180.5t282.5 66t281 -117q1 -1 19 -13
q2 -2 0 -11l-54 -168q-5 -15 -12 -16.5t-25 4.5t-20 10t-7.5 48.5t-37.5 74.5q-82 78 -210 78q-89 0 -163 -47.5t-113.5 -121t-39.5 -174.5t54 -194t145.5 -142.5t193 -49t174 29.5t137.5 94z" />
    <glyph glyph-name="Dcaron" unicode="&#x10e;" horiz-adv-x="1482" 
d="M654 1796q-8 -5 -17 0l-249 308q-10 9 -6 15q24 45 52 28l211 -150l212 150q29 18 52 -29q3 -6 -5 -14zM631 0h-503q-13 0 -13 17.5t4.5 21t12.5 7t20.5 16t26.5 46t14 67.5v1288q0 73 -48 121q-4 4 -17 10t-13 25t13 19h453q244 0 467 -132q158 -94 262 -265.5
t104 -416.5q0 -156 -58 -304.5t-158.5 -263.5t-249 -185.5t-317.5 -70.5zM387 194q0 -37 61 -37h112q406 1 564 277q92 161 92 390q0 279 -154 461q-77 91 -205 142.5t-295 51.5h-154q-8 0 -14.5 -6t-6.5 -15v-1264z" />
    <glyph glyph-name="dcaron" unicode="&#x10f;" horiz-adv-x="1093" 
d="M1304 1450q-43 39 -26 62l112 121q13 11 26 0l116 -121q11 -16 0 -31l-66 -71l-182 -218q-21 -25 -58 14q-7 7 37.5 66t58.5 79q28 39 2 81q-2 1 -20 18zM726 1471l1 18q0 5 5.5 8.5t6.5 4.5l180 133q4 3 21.5 3t25.5 -4.5t8 -26.5q0 -901 3 -1394q3 -16 -3 -15
q-1 0 5.5 -5.5t24.5 -6.5t24 -5.5t6 -23t-5 -21.5l-166 -136q-4 -3 -25.5 -3t-26 4.5t-4.5 13t1.5 17t-1.5 21.5t-7.5 14.5t-16.5 -6.5l-27 -17q-102 -62 -206 -62t-192.5 38t-155 102t-107 154t-40.5 213t63 239t181 181t272 65q61 0 128.5 -29.5t102.5 -64.5h11
q0 326 -4 509q0 32 -16 46t-34 15t-24 6q-9 6 -9 15zM808 227l3 436q-47 82 -135 129t-198 47q-145 0 -233 -148q-46 -79 -46 -150q0 -185 115 -301.5t296 -116.5q51 0 105.5 31t92.5 73z" />
    <glyph glyph-name="Dcroat" unicode="&#x110;" horiz-adv-x="1356" 
d="M505 0h-503q-13 0 -13 17.5t4.5 21t12.5 7.5t20.5 16t26.5 45.5t14 67.5v589h-78v152h78v547q0 73 -48 121q-4 4 -17 10t-13 25t13 19h453q244 0 467 -132q158 -94 262 -265.5t104 -416.5q0 -156 -58 -304.5t-158.5 -263.5t-249 -185.5t-317.5 -70.5zM258 194
q0 -37 35 -37q70 0 176.5 0.5t218.5 35.5q210 65 307 233t97 398q0 278 -154 458q-78 90 -206 142.5t-262.5 54t-173 1.5t-38.5 -22v-542h348v-152h-348v-570z" />
    <glyph glyph-name="Emacron" unicode="&#x112;" horiz-adv-x="1344" 
d="M984 1808q0 -14 -17 -14h-638q-17 0 -17 14v122q0 14 17 14h638q17 0 17 -14v-122zM1008 980q73 0 121 48q4 4 10 17t25 13t19 -13v-290q0 -13 -17.5 -13t-21 4.5t-7 12.5t-16 20.5t-46 25.5t-67.5 13h-631v-656h664q113 0 138.5 19.5t36 34.5t16 15t20 -5t14.5 -9
t-14 -39l-32 -81q-18 -46 -24.5 -69.5t-17.5 -27.5h-1060q-13 0 -13 17.5t4.5 21t12.5 7t20.5 16t26.5 46t14 67.5v1288q0 73 -48 121q-4 4 -17 10t-13 25t13 19h1060q10 0 17 -25.5t25 -71.5l32 -81q14 -35 14 -39t-14.5 -9t-19 -5t-9.5 5.5t-11.5 15t-32 29t-138.5 19.5
h-664v-496h631z" />
    <glyph glyph-name="emacron" unicode="&#x113;" horiz-adv-x="1045" 
d="M861 1110q0 -14 -17 -14h-638q-17 0 -17 14v122q0 14 17 14h638q17 0 17 -14v-122zM770 695q-59 169 -255 169q-89 0 -163 -47.5t-113.5 -121t-39.5 -138.5t4 -64l565 197v6zM225 387q43 -118 145 -185t232 -67q165 0 301 155q21 20 62 -21q3 -3 -1 -9
q-114 -158 -177 -202q-107 -76 -247 -76q-95 0 -184 38q-183 80 -261 256q-40 90 -40 213.5t62.5 238t181 180.5t272.5 66q188 0 334 -174q74 -88 74 -140z" />
    <glyph glyph-name="Ebreve" unicode="&#x114;" horiz-adv-x="1344" 
d="M848.5 1880q-81.5 -86 -194 -86t-200.5 88t-88 207q0 9 22.5 14.5t29.5 -1.5q44 -117 146 -167q40 -20 86 -20t88 19.5t79.5 61.5t53.5 86l7 20q6 6 29 1t23 -14q0 -123 -81.5 -209zM1008 980q73 0 121 48q4 4 10 17t25 13t19 -13v-290q0 -13 -17.5 -13t-21 4.5t-7 12.5
t-16 20.5t-46 25.5t-67.5 13h-631v-656h664q113 0 138.5 19.5t36 34.5t16 15t20 -5t14.5 -9t-14 -39l-32 -81q-18 -46 -24.5 -69.5t-17.5 -27.5h-1060q-13 0 -13 17.5t4.5 21t12.5 7t20.5 16t26.5 46t14 67.5v1288q0 73 -48 121q-4 4 -17 10t-13 25t13 19h1060
q10 0 17 -25.5t25 -71.5l32 -81q14 -35 14 -39t-14.5 -9t-19 -5t-9.5 5.5t-11.5 15t-32 29t-138.5 19.5h-664v-496h631z" />
    <glyph glyph-name="ebreve" unicode="&#x115;" horiz-adv-x="1045" 
d="M733.5 1182q-81.5 -86 -194 -86t-200.5 88t-88 207q0 9 22.5 14.5t29.5 -1.5q44 -117 146 -167q40 -20 86 -20t88 19.5t79.5 61.5t53.5 86l7 20q6 6 29 1t23 -14q0 -123 -81.5 -209zM770 695q-59 169 -255 169q-89 0 -163 -47.5t-113.5 -121t-39.5 -138.5t4 -64l565 197
v6zM225 387q43 -118 145 -185t232 -67q165 0 301 155q21 20 62 -21q3 -3 -1 -9q-114 -158 -177 -202q-107 -76 -247 -76q-95 0 -184 38q-183 80 -261 256q-40 90 -40 213.5t62.5 238t181 180.5t272.5 66q188 0 334 -174q74 -88 74 -140z" />
    <glyph glyph-name="Edotaccent" unicode="&#x116;" horiz-adv-x="1344" 
d="M670 1799q-14 -10 -26 0l-112 116q-11 16 0 31l112 121q13 11 26 0l116 -121q11 -16 0 -31zM1008 980q73 0 121 48q4 4 10 17t25 13t19 -13v-290q0 -13 -17.5 -13t-21 4.5t-7 12.5t-16 20.5t-46 25.5t-67.5 13h-631v-656h664q113 0 138.5 19.5t36 34.5t16 15t20 -5
t14.5 -9t-14 -39l-32 -81q-18 -46 -24.5 -69.5t-17.5 -27.5h-1060q-13 0 -13 17.5t4.5 21t12.5 7t20.5 16t26.5 46t14 67.5v1288q0 73 -48 121q-4 4 -17 10t-13 25t13 19h1060q10 0 17 -25.5t25 -71.5l32 -81q14 -35 14 -39t-14.5 -9t-19 -5t-9.5 5.5t-11.5 15t-32 29
t-138.5 19.5h-664v-496h631z" />
    <glyph glyph-name="edotaccent" unicode="&#x117;" horiz-adv-x="1045" 
d="M562 1101q-14 -10 -26 0l-112 116q-11 16 0 31l112 121q13 11 26 0l116 -121q11 -16 0 -31zM770 695q-59 169 -255 169q-89 0 -163 -47.5t-113.5 -121t-39.5 -138.5t4 -64l565 197v6zM225 387q43 -118 145 -185t232 -67q165 0 301 155q21 20 62 -21q3 -3 -1 -9
q-114 -158 -177 -202q-107 -76 -247 -76q-95 0 -184 38q-183 80 -261 256q-40 90 -40 213.5t62.5 238t181 180.5t272.5 66q188 0 334 -174q74 -88 74 -140z" />
    <glyph glyph-name="Eogonek" unicode="&#x118;" horiz-adv-x="1344" 
d="M829 -267q1 2 15 -2t14 -11q-9 -48 -59.5 -84.5t-112.5 -26t-103 68t-30 119t56 97.5t100 30l-44 76h-537q-13 0 -13 17.5t4.5 21t12.5 7.5t20.5 16t26.5 45.5t14 67.5v1288q0 73 -48 121q-4 4 -17 10t-13 25t13 19h1060q10 0 17 -26t25 -68l32 -74q14 -32 14 -35.5
t-14.5 -8.5t-19.5 -5q-6 0 -16 14.5t-35.5 34.5t-139.5 20h-664v-520h631q73 0 121 48q4 4 10 17t25 13t20 -13v-271q0 -13 -18 -13t-21.5 4.5t-7 12.5t-16 20.5t-46 25.5t-67.5 13h-631v-679h664q113 0 147 26q18 12 28 27t15.5 15.5t20 -4.5t14.5 -8.5t-14 -35.5l-32 -74
q-18 -42 -24.5 -65.5t-17.5 -28.5h-448l66 -111q3 -9 0.5 -20.5t-7.5 -11.5q-32 11 -67 17t-67 -15.5t-40 -67t17 -75.5t64 -37q73 -13 123 54z" />
    <glyph glyph-name="eogonek" unicode="&#x119;" horiz-adv-x="1046" 
d="M770 695q-59 169 -255 169q-87 0 -161 -47t-114.5 -121t-40.5 -139t4 -64l565 197v6zM672 -285q1 2 15 -1.5t14 -11.5q-9 -48 -59.5 -84.5t-112.5 -26t-103 68t-30 119t56 97.5t100 30l-44 77q-182 13 -317 150q-136 138 -136 358q0 121 63 236.5t181 181t272 65.5
q190 0 334 -174q73 -88 74 -140l-754 -273q43 -117 145 -184.5t232 -67.5q166 0 301 155q15 15 62 -21q3 -2 -1 -9q-63 -115 -160.5 -190t-221.5 -86l67 -113q3 -9 0.5 -20.5t-7.5 -11.5q-32 11 -67 17t-67.5 -15.5t-40.5 -67t17.5 -75.5t64.5 -37q73 -13 123 54z" />
    <glyph glyph-name="Ecaron" unicode="&#x11a;" horiz-adv-x="1344" 
d="M654 1796q-8 -5 -17 0l-249 308q-10 9 -6 15q24 45 52 28l211 -150l212 150q29 18 52 -29q3 -6 -5 -14zM1008 980q73 0 121 48q4 4 10 17t25 13t19 -13v-290q0 -13 -17.5 -13t-21 4.5t-7 12.5t-16 20.5t-46 25.5t-67.5 13h-631v-656h664q113 0 138.5 19.5t36 34.5t16 15
t20 -5t14.5 -9t-14 -39l-32 -81q-18 -46 -24.5 -69.5t-17.5 -27.5h-1060q-13 0 -13 17.5t4.5 21t12.5 7t20.5 16t26.5 46t14 67.5v1288q0 73 -48 121q-4 4 -17 10t-13 25t13 19h1060q10 0 17 -25.5t25 -71.5l32 -81q14 -35 14 -39t-14.5 -9t-19 -5t-9.5 5.5t-11.5 15t-32 29
t-138.5 19.5h-664v-496h631z" />
    <glyph glyph-name="ecaron" unicode="&#x11b;" horiz-adv-x="1045" 
d="M542 1098q-8 -5 -17 0l-249 308q-10 9 -6 15q24 45 52 28l211 -150l212 150q29 18 52 -29q3 -6 -5 -14zM770 695q-59 169 -255 169q-89 0 -163 -47.5t-113.5 -121t-39.5 -138.5t4 -64l565 197v6zM225 387q43 -118 145 -185t232 -67q165 0 301 155q21 20 62 -21
q3 -3 -1 -9q-114 -158 -177 -202q-107 -76 -247 -76q-95 0 -184 38q-183 80 -261 256q-40 90 -40 213.5t62.5 238t181 180.5t272.5 66q188 0 334 -174q74 -88 74 -140z" />
    <glyph glyph-name="Gcircumflex" unicode="&#x11c;" horiz-adv-x="1711" 
d="M913 2151q8 5 17 0l249 -308q10 -9 6 -15q-24 -45 -52 -28l-211 150l-212 -150q-29 -18 -52 29q-3 6 5 14zM1525 181q0 -10 -14.5 -10t-19.5 -2q-106 -85 -258 -146.5t-322 -61.5t-329 70.5t-268 188.5t-171.5 276.5t-62.5 328.5t67.5 325.5t180.5 269t268 182t313 68.5
q188 0 379 -72l46 -18q10 -4 28 8t38.5 12t30.5 -19q4 -3 3 -21q-2 -28 24 -134l25 -108q10 -44 10 -56q0 -6 -25.5 -18.5t-29.5 -5.5q-83 145 -208.5 200t-313 55t-338.5 -85t-233 -236.5t-82 -343.5q0 -126 58 -254.5t149.5 -225.5t212.5 -158.5t233 -61.5t247 56.5
t168 95.5v409q0 73 -48 121q-4 4 -17 10t-13 25t13 19h324q13 0 13 -17.5t-4.5 -21t-12.5 -7t-20.5 -16t-26.5 -46t-14 -67.5v-508z" />
    <glyph glyph-name="gcircumflex" unicode="&#x11d;" horiz-adv-x="1009" 
d="M471 1453q8 5 17 0l249 -308q10 -9 6 -15q-24 -45 -52 -28l-211 150l-212 -150q-29 -18 -52 29q-3 6 5 14zM290 265q-29 -10 14.5 -40.5t137.5 -51t160.5 -31t139 -32t125 -48t86.5 -74.5t34 -112t-29 -116q-96 -174 -463 -174q-168 0 -301 80t-162 228v12q0 8 -1 12
l173 148q8 0 21 -13t13 -21t-16 -24t-16 -88t60 -130.5t143 -80.5q179 -30 305 19q44 17 72 51.5t28 74t-40 64.5q-55 34 -275.5 85t-329.5 96q-23 10 -23 15.5t30.5 63.5t68.5 115q-69 50 -110.5 126t-41.5 162q0 168 105.5 274t263 106t259.5 -99l4 1q38 81 40.5 85.5
t6.5 4.5h167q7 0 14.5 -14.5t2.5 -17.5q-23 -11 -56 -25q-68 -29 -114 -120q46 -86 46 -182q0 -158 -107.5 -264t-271.5 -106q-84 0 -163 41zM407 839q-192 0 -192 -209q0 -122 91.5 -204.5t200 -82.5t153.5 48t45 161t-85.5 200t-212.5 87z" />
    <glyph glyph-name="Gbreve" unicode="&#x11e;" horiz-adv-x="1711" 
d="M1118.5 1880q-81.5 -86 -194 -86t-200.5 88t-88 207q0 9 22.5 14.5t29.5 -1.5q44 -117 146 -167q40 -20 86 -20t88 19.5t79.5 61.5t53.5 86l7 20q6 6 29 1t23 -14q0 -123 -81.5 -209zM1525 181q0 -10 -14.5 -10t-19.5 -2q-106 -85 -258 -146.5t-322 -61.5t-329 70.5
t-268 188.5t-171.5 276.5t-62.5 328.5t67.5 325.5t180.5 269t268 182t313 68.5q188 0 379 -72l46 -18q10 -4 28 8t38.5 12t30.5 -19q4 -3 3 -21q-2 -28 24 -134l25 -108q10 -44 10 -56q0 -6 -25.5 -18.5t-29.5 -5.5q-83 145 -208.5 200t-313 55t-338.5 -85t-233 -236.5
t-82 -343.5q0 -126 58 -254.5t149.5 -225.5t212.5 -158.5t233 -61.5t247 56.5t168 95.5v409q0 73 -48 121q-4 4 -17 10t-13 25t13 19h324q13 0 13 -17.5t-4.5 -21t-12.5 -7t-20.5 -16t-26.5 -46t-14 -67.5v-508z" />
    <glyph glyph-name="gbreve" unicode="&#x11f;" horiz-adv-x="1009" 
d="M677.5 1182q-81.5 -86 -194 -86t-200.5 88t-88 207q0 9 22.5 14.5t29.5 -1.5q44 -117 146 -167q40 -20 86 -20t88 19.5t79.5 61.5t53.5 86l7 20q6 6 29 1t23 -14q0 -123 -81.5 -209zM290 265q-29 -10 14.5 -40.5t137.5 -51t160.5 -31t139 -32t125 -48t86.5 -74.5t34 -112
t-29 -116q-96 -174 -463 -174q-168 0 -301 80t-162 228v12q0 8 -1 12l173 148q8 0 21 -13t13 -21t-16 -24t-16 -88t60 -130.5t143 -80.5q179 -30 305 19q44 17 72 51.5t28 74t-40 64.5q-55 34 -275.5 85t-329.5 96q-23 10 -23 15.5t30.5 63.5t68.5 115q-69 50 -110.5 126
t-41.5 162q0 168 105.5 274t263 106t259.5 -99l4 1q38 81 40.5 85.5t6.5 4.5h167q7 0 14.5 -14.5t2.5 -17.5q-23 -11 -56 -25q-68 -29 -114 -120q46 -86 46 -182q0 -158 -107.5 -264t-271.5 -106q-84 0 -163 41zM407 839q-192 0 -192 -209q0 -122 91.5 -204.5t200 -82.5
t153.5 48t45 161t-85.5 200t-212.5 87z" />
    <glyph glyph-name="Gdotaccent" unicode="&#x120;" horiz-adv-x="1711" 
d="M940 1799q-14 -10 -26 0l-112 116q-11 16 0 31l112 121q13 11 26 0l116 -121q11 -16 0 -31zM1525 181q0 -10 -14.5 -10t-19.5 -2q-106 -85 -258 -146.5t-322 -61.5t-329 70.5t-268 188.5t-171.5 276.5t-62.5 328.5t67.5 325.5t180.5 269t268 182t313 68.5q188 0 379 -72
l46 -18q10 -4 28 8t38.5 12t30.5 -19q4 -3 3 -21q-2 -28 24 -134l25 -108q10 -44 10 -56q0 -6 -25.5 -18.5t-29.5 -5.5q-83 145 -208.5 200t-313 55t-338.5 -85t-233 -236.5t-82 -343.5q0 -126 58 -254.5t149.5 -225.5t212.5 -158.5t233 -61.5t247 56.5t168 95.5v409
q0 73 -48 121q-4 4 -17 10t-13 25t13 19h324q13 0 13 -17.5t-4.5 -21t-12.5 -7t-20.5 -16t-26.5 -46t-14 -67.5v-508z" />
    <glyph glyph-name="gdotaccent" unicode="&#x121;" horiz-adv-x="1009" 
d="M498 1101q-14 -10 -26 0l-112 116q-11 16 0 31l112 121q13 11 26 0l116 -121q11 -16 0 -31zM290 265q-29 -10 14.5 -40.5t137.5 -51t160.5 -31t139 -32t125 -48t86.5 -74.5t34 -112t-29 -116q-96 -174 -463 -174q-168 0 -301 80t-162 228v12q0 8 -1 12l173 148
q8 0 21 -13t13 -21t-16 -24t-16 -88t60 -130.5t143 -80.5q179 -30 305 19q44 17 72 51.5t28 74t-40 64.5q-55 34 -275.5 85t-329.5 96q-23 10 -23 15.5t30.5 63.5t68.5 115q-69 50 -110.5 126t-41.5 162q0 168 105.5 274t263 106t259.5 -99l4 1q38 81 40.5 85.5t6.5 4.5h167
q7 0 14.5 -14.5t2.5 -17.5q-23 -11 -56 -25q-68 -29 -114 -120q46 -86 46 -182q0 -158 -107.5 -264t-271.5 -106q-84 0 -163 41zM407 839q-192 0 -192 -209q0 -122 91.5 -204.5t200 -82.5t153.5 48t45 161t-85.5 200t-212.5 87z" />
    <glyph glyph-name="Gcommaaccent" unicode="&#x122;" horiz-adv-x="1711" 
d="M853 -349q-43 39 -26 62l112 121q13 11 26 0l116 -121q11 -16 0 -31l-66 -71l-182 -218q-21 -25 -58 14q-7 7 37.5 66t58.5 79q28 39 2 81q-2 1 -20 18zM1525 181q0 -10 -14.5 -10t-19.5 -2q-106 -85 -258 -146.5t-322 -61.5t-329 70.5t-268 188.5t-171.5 276.5
t-62.5 328.5t67.5 325.5t180.5 269t268 182t313 68.5q188 0 379 -72l46 -18q10 -4 28 8t38.5 12t30.5 -19q4 -3 3 -21q-2 -28 24 -134l25 -108q10 -44 10 -56q0 -6 -25.5 -18.5t-29.5 -5.5q-83 145 -208.5 200t-313 55t-338.5 -85t-233 -236.5t-82 -343.5q0 -126 58 -254.5
t149.5 -225.5t212.5 -158.5t233 -61.5t247 56.5t168 95.5v409q0 73 -48 121q-4 4 -17 10t-13 25t13 19h324q13 0 13 -17.5t-4.5 -21t-12.5 -7t-20.5 -16t-26.5 -46t-14 -67.5v-508z" />
    <glyph glyph-name="Hcircumflex" unicode="&#x124;" horiz-adv-x="1928" 
d="M949 2151q8 5 17 0l249 -308q10 -9 6 -15q-24 -45 -52 -28l-211 150l-212 -150q-29 -18 -52 29q-3 6 5 14zM128 1638h324q13 0 13 -17.5t-4.5 -21t-12.5 -7t-20.5 -16t-26.5 -46t-14 -67.5v-455h1134v455q0 73 -48 121q-4 4 -17 10t-13 25t13 19h324q13 0 13 -17.5
t-4.5 -21t-12.5 -7t-20.5 -16t-26.5 -46t-14 -67.5v-1288q0 -73 48 -121q4 -4 17 -10t13 -25t-13 -19h-324q-13 0 -13 17.5t4.5 21t12.5 7t20.5 16t26.5 46t14 67.5v667h-1134v-667q0 -73 48 -121q4 -4 17 -10t13 -25t-13 -19h-324q-13 0 -13 17.5t4.5 21t12.5 7t20.5 16
t26.5 46t14 67.5v1288q0 73 -48 121q-4 4 -17 10t-13 25t13 19z" />
    <glyph glyph-name="hcircumflex" unicode="&#x125;" horiz-adv-x="1198" 
d="M601 2117q8 5 17 0l249 -308q10 -9 6 -15q-24 -45 -52 -28l-211 150l-212 -150q-29 -18 -52 29q-3 6 5 14zM94 1471l1 18q0 3 12 13l180 133q4 3 22 3t25 -4.5t7 -26.5v-759q34 20 51 29l31 16q141 70 261.5 70t237.5 -86q53 -39 86.5 -94.5t33.5 -115.5v-492
q0 -5 -0.5 -21.5t0.5 -21.5q7 -64 42.5 -78.5t35.5 -25.5q0 -28 -13 -28h-295q-13 0 -13 18t8 23t21 10t21 13t14.5 18t9 23t3 19.5t0 25.5t-0.5 25v467q0 61 -41 106q-76 83 -214.5 83t-278.5 -70v-586q0 -5 -0.5 -21.5t-0.5 -21.5q8 -64 43.5 -78.5t35.5 -25.5
q0 -28 -13 -28h-295q-13 0 -13 18t8 23t21 10t20 12q31 31 30.5 69.5t-0.5 42.5v1214q0 32 -16 46t-34 15t-24 6q-9 6 -9 15z" />
    <glyph glyph-name="Itilde" unicode="&#x128;" 
d="M281 1868l-72 60q-50 42 -63 44.5t-23.5 5.5t-20.5 -1t-21.5 -15t-18.5 -30.5t-10 -32t-6.5 -36t-7.5 -30t-27.5 3t-23.5 14.5q1 7 3.5 40.5t6 54.5t12 50.5t25.5 49t42 28.5t48.5 11t48.5 -6q54 -17 83 -39l115 -90q50 -42 62.5 -44.5t23 -5.5t20.5 1t21.5 15t18.5 30.5
t10 32t6.5 36t7.5 31t27.5 -3t23.5 -15.5q-1 -7 -3.5 -40.5t-6 -54.5t-12 -50.5t-25.5 -49t-42 -28.5q-53 -19 -88 -8l-51 18q-26 10 -83 54zM128 1638h324q13 0 13 -17.5t-4.5 -21t-12.5 -7t-20.5 -16t-26.5 -46t-14 -67.5v-1288q0 -73 48 -121q4 -4 17 -10t13 -25t-13 -19
h-324q-13 0 -13 17.5t4.5 21t12.5 7t20.5 16t26.5 46t14 67.5v1288q0 73 -48 121q-4 4 -17 10t-13 25t13 19z" />
    <glyph glyph-name="itilde" unicode="&#x129;" horiz-adv-x="519" 
d="M208 1170l-72 60q-50 42 -63 44.5t-23.5 5.5t-20.5 -1t-21.5 -15t-18.5 -30.5t-10 -32t-6.5 -36t-7.5 -30t-27.5 3t-23.5 14.5q1 7 3.5 40.5t6 54.5t12 50.5t25.5 49t42 28.5t48.5 11t48.5 -6q54 -17 83 -39l115 -90q50 -42 62.5 -44.5t23 -5.5t20.5 1t21.5 15t18.5 30.5
t10 32t6.5 36t7.5 31t27.5 -3t23.5 -15.5q-1 -7 -3.5 -40.5t-6 -54.5t-12 -50.5t-25.5 -49t-42 -28.5q-53 -19 -88 -8l-51 18q-26 10 -83 54zM104 0q-13 0 -13 18t8 23t20.5 10t19.5 12q31 31 31 69v572q0 32 -16.5 46t-34.5 15t-24.5 6t-6.5 20.5t1.5 17.5t5.5 4.5t5 3.5
l180 133q7 5 11.5 2.5t23.5 -8.5t20 -22v-747q0 -5 -0.5 -21.5t-0.5 -21.5q8 -63 43 -78t36 -26q0 -28 -13 -28h-296z" />
    <glyph glyph-name="Imacron" unicode="&#x12a;" 
d="M626 1808q0 -14 -17 -14h-638q-17 0 -17 14v122q0 14 17 14h638q17 0 17 -14v-122zM128 1638h324q13 0 13 -17.5t-4.5 -21t-12.5 -7t-20.5 -16t-26.5 -46t-14 -67.5v-1288q0 -73 48 -121q4 -4 17 -10t13 -25t-13 -19h-324q-13 0 -13 17.5t4.5 21t12.5 7t20.5 16t26.5 46
t14 67.5v1288q0 73 -48 121q-4 4 -17 10t-13 25t13 19z" />
    <glyph glyph-name="imacron" unicode="&#x12b;" horiz-adv-x="519" 
d="M553 1110q0 -14 -17 -14h-638q-17 0 -17 14v122q0 14 17 14h638q17 0 17 -14v-122zM104 0q-13 0 -13 18t8 23t20.5 10t19.5 12q31 31 31 69v572q0 32 -16.5 46t-34.5 15t-24.5 6t-6.5 20.5t1.5 17.5t5.5 4.5t5 3.5l180 133q7 5 11.5 2.5t23.5 -8.5t20 -22v-747
q0 -5 -0.5 -21.5t-0.5 -21.5q8 -63 43 -78t36 -26q0 -28 -13 -28h-296z" />
    <glyph glyph-name="Ibreve" unicode="&#x12c;" 
d="M490.5 1880q-81.5 -86 -194 -86t-200.5 88t-88 207q0 9 22.5 14.5t29.5 -1.5q44 -117 146 -167q40 -20 86 -20t88 19.5t79.5 61.5t53.5 86l7 20q6 6 29 1t23 -14q0 -123 -81.5 -209zM128 1638h324q13 0 13 -17.5t-4.5 -21t-12.5 -7t-20.5 -16t-26.5 -46t-14 -67.5v-1288
q0 -73 48 -121q4 -4 17 -10t13 -25t-13 -19h-324q-13 0 -13 17.5t4.5 21t12.5 7t20.5 16t26.5 46t14 67.5v1288q0 73 -48 121q-4 4 -17 10t-13 25t13 19z" />
    <glyph glyph-name="ibreve" unicode="&#x12d;" horiz-adv-x="519" 
d="M417.5 1182q-81.5 -86 -194 -86t-200.5 88t-88 207q0 9 22.5 14.5t29.5 -1.5q44 -117 146 -167q40 -20 86 -20t88 19.5t79.5 61.5t53.5 86l7 20q6 6 29 1t23 -14q0 -123 -81.5 -209zM104 0q-13 0 -13 18t8 23t20.5 10t19.5 12q31 31 31 69v572q0 32 -16.5 46t-34.5 15
t-24.5 6t-6.5 20.5t1.5 17.5t5.5 4.5t5 3.5l180 133q7 5 11.5 2.5t23.5 -8.5t20 -22v-747q0 -5 -0.5 -21.5t-0.5 -21.5q8 -63 43 -78t36 -26q0 -28 -13 -28h-296z" />
    <glyph glyph-name="Iogonek" unicode="&#x12e;" 
d="M422 -267q1 2 15 -2t14 -11q-9 -48 -59.5 -84.5t-112.5 -26t-103 68t-30 119t56 97.5t100 30l-43 76h-131q-13 0 -13 17.5t4.5 21t12.5 7t20.5 16t26.5 46t14 67.5v1288q0 73 -48 121q-4 4 -17 10t-13 25t13 19h324q13 0 13 -17.5t-4.5 -21t-12.5 -7t-20.5 -16t-26.5 -46
t-14 -67.5v-1288q0 -73 48 -121q4 -4 17 -10t13 -25t-13 -19h-119l66 -111q3 -9 0.5 -20.5t-7.5 -11.5q-32 11 -67 17t-67 -15.5t-40 -67t17 -75.5t64 -37q73 -13 123 54z" />
    <glyph glyph-name="iogonek" unicode="&#x12f;" horiz-adv-x="508" 
d="M106 0q-13 0 -13 18t8 23t21 10q49 19 50 96v557q0 32 -16 46t-34 15t-25 6t-7 20.5t1.5 17.5t5.5 4.5t5 3.5l180 133q4 3 22 3t25 -4.5t7 -26.5v-779q0 -73 49 -92q29 -12 29 -23q0 -28 -13 -28h-104l66 -111q3 -9 0.5 -20.5t-7.5 -11.5q-32 11 -67 17t-67.5 -15.5
t-40.5 -67t17.5 -75.5t64.5 -37q73 -13 123 54q1 2 15 -1.5t14 -11.5q-9 -48 -59.5 -84.5t-112.5 -26t-103 68t-30 119t56 97.5t100 30l-44 76h-116zM334 1451v-81q0 -9 -4.5 -13.5t-42 -18.5t-56 -23t-31 -13t-15.5 -0.5t-3 38.5v112q0 9 4.5 13.5t42 18.5t55.5 23
q41 19 45.5 14.5t4.5 -70.5z" />
    <glyph glyph-name="Idotaccent" unicode="&#x130;" 
d="M312 1799q-14 -10 -26 0l-112 116q-11 16 0 31l112 121q13 11 26 0l116 -121q11 -16 0 -31zM128 1638h324q13 0 13 -17.5t-4.5 -21t-12.5 -7t-20.5 -16t-26.5 -46t-14 -67.5v-1288q0 -73 48 -121q4 -4 17 -10t13 -25t-13 -19h-324q-13 0 -13 17.5t4.5 21t12.5 7t20.5 16
t26.5 46t14 67.5v1288q0 73 -48 121q-4 4 -17 10t-13 25t13 19z" />
    <glyph glyph-name="dotlessi" unicode="&#x131;" horiz-adv-x="519" 
d="M104 0q-13 0 -13 18t8 23t20.5 10t19.5 12q31 31 31 69v572q0 32 -16.5 46t-34.5 15t-24.5 6t-6.5 20.5t1.5 17.5t5.5 4.5t5 3.5l180 133q7 5 11.5 2.5t23.5 -8.5t20 -22v-747q0 -5 -0.5 -21.5t-0.5 -21.5q8 -63 43 -78t36 -26q0 -28 -13 -28h-296z" />
    <glyph glyph-name="IJ" unicode="&#x132;" horiz-adv-x="1142" 
d="M931 1463v-1454q0 -16 -88 -124.5t-182.5 -205.5t-116.5 -97h-2q-40 12 -49 33q-2 6 21 36q214 280 223 481v1331q0 73 -48 121q-4 4 -17 10t-13 25t13 19h324q13 0 13 -17.5t-4.5 -21t-12.5 -7t-20.5 -16t-26.5 -46t-14 -67.5zM108 1638h324q13 0 13 -17.5t-4.5 -21
t-12.5 -7t-20.5 -16t-26.5 -46t-14 -67.5v-1288q0 -73 48 -121q4 -4 17 -10t13 -25t-13 -19h-324q-13 0 -13 17.5t4.5 21t12.5 7t20.5 16t26.5 46t14 67.5v1288q0 73 -48 121q-4 4 -17 10t-13 25t13 19z" />
    <glyph glyph-name="ij" unicode="&#x133;" horiz-adv-x="854" 
d="M769 175l3 -175q0 -29 -8.5 -47t-33 -47t-79 -110.5t-73 -100.5t-42.5 -40.5t-46 -21.5t-29.5 3.5t-9 9.5t-0.5 13q1 6 15 34q106 171 129 291q9 49 9 102v618q0 32 -16 46t-34 15t-25 6t-7 20.5t1.5 17.5t5.5 4.5t5 3.5l180 133q7 5 11 2.5t24 -8.5t20 -22v-747z
M766 1451v-81q0 -9 -4.5 -13.5t-42 -18.5t-56.5 -23q-40 -20 -44.5 -15t-4.5 40v112q0 9 4.5 13.5t42 18.5t56.5 23q40 20 44.5 15t4.5 -71zM310 1451v-81q0 -10 -5 -14t-42.5 -18t-55.5 -23t-30.5 -13t-15.5 -0.5t-3 38.5v95q0 3 -0.5 9t0 8t1 6t4.5 8t41.5 18t55.5 23
q41 19 45.5 14.5t4.5 -70.5zM82 0q-13 0 -13 18t8 23t21 10q49 20 50 96v557q0 32 -16 46t-34 15t-25 6t-7 20.5t1.5 17.5t5.5 4.5t5 3.5l180 133q7 5 11 2.5t24 -8.5t20 -22v-779q0 -73 49 -92q29 -12 29 -23q0 -28 -13 -28h-296z" />
    <glyph glyph-name="Jcircumflex" unicode="&#x134;" horiz-adv-x="522" 
d="M227 2151q8 5 17 0l249 -308q10 -9 6 -15q-24 -45 -52 -28l-211 150l-212 -150q-29 -18 -52 29q-3 6 5 14zM331 1463v-1454q0 -16 -88 -124.5t-182.5 -205.5t-116.5 -97h-2q-40 12 -49 33q-2 6 21 36q214 280 223 481v1331q0 73 -48 121q-4 4 -17 10t-13 25t13 19h324
q13 0 13 -17.5t-4.5 -21t-12.5 -7t-20.5 -16t-26.5 -46t-14 -67.5z" />
    <glyph glyph-name="jcircumflex" unicode="&#x135;" horiz-adv-x="454" 
d="M257 1453q8 5 17 0l249 -308q10 -9 6 -15q-24 -45 -52 -28l-211 150l-212 -150q-29 -18 -52 29q-3 6 5 14zM213 704q0 32 -16.5 46t-34.5 15t-24.5 6t-6.5 20.5t1.5 17.5t5.5 4.5t5 3.5l180 133q7 5 12 2.5t17 -4.5q25 -4 26 -26v-747q0 -18 2 -85t-3 -98.5t-44 -88.5
q-128 -190 -146 -208.5t-42 -40t-46 -21.5t-29.5 3.5t-9.5 9.5t-1 13q2 11 16 34q106 171 128 291q9 49 10 102v618z" />
    <glyph glyph-name="Kcommaaccent" unicode="&#x136;" horiz-adv-x="1322" 
d="M636 -310q-43 39 -26 62l112 121q13 11 26 0l116 -121q11 -16 0 -31l-66 -71l-182 -218q-21 -25 -58 14q-7 7 37.5 66t58.5 79q28 39 2 81q-2 1 -20 18zM537 935l632 -782q28 -38 62 -67.5t37 -32.5t16 -9t13 -25t-13 -19h-362q-13 0 -13 17.5t4.5 21t12.5 7.5
q37 16 31.5 48.5t-43.5 83.5l-510 631h-17v-634q0 -73 48 -121q4 -4 17 -10t13 -25t-13 -19h-324q-13 0 -13 17.5t4.5 21t12.5 7t20.5 16t26.5 46t14 67.5v1288q0 73 -48 121q-4 4 -17 10t-13 25t13 19h324q13 0 13 -17.5t-4.5 -21t-12.5 -7t-20.5 -16t-26.5 -46t-14 -67.5
v-418h17l453 432q64 61 68 66q27 32 -16 51q-13 6 -13 25t13 19h315q13 0 13 -18t-2.5 -21.5t-25.5 -13t-74 -62.5l-598 -572v-16z" />
    <glyph glyph-name="kcommaaccent" unicode="&#x137;" horiz-adv-x="955" 
d="M449 -310q-43 39 -26 62l112 121q13 11 26 0l116 -121q11 -16 0 -31l-66 -71l-182 -218q-21 -25 -58 14q-7 7 37.5 66t58.5 79q28 39 2 81q-2 1 -20 18zM342 175l-1 -43q0 -22 10.5 -46.5t38.5 -35.5t29 -22q0 -28 -13 -28h-294q-13 0 -13 18t8 23t20.5 10t20 12.5
t13.5 17t9.5 16t5 19t1.5 16.5v1257q0 33 -15.5 46.5t-33.5 14.5t-24 6q-9 6 -9 15l1 18q0 5 5.5 8.5t6.5 4.5l180 133q4 3 21.5 3t25 -4.5t7.5 -26.5v-1074h2l326 311q17 17 17 33q0 25 -24 31t-23 17q0 28 13 28h230q13 0 13 -18t-6 -25.5t-18.5 -18t-16.5 -14.5
l-300 -286v-3l298 -428q86 -105 86 -132.5t-13 -27.5h-251q-13 0 -13 17.5t13 25.5q40 23 40 35q0 20 -6 26l-266 380h-4l-97 -94v-215z" />
    <glyph glyph-name="Lacute" unicode="&#x139;" horiz-adv-x="1301" 
d="M400 2196q13 11 26 0l118 -71q11 -16 0 -31l-66 -71l-182 -218q-22 -25 -58 14q-6 6 1 16zM193 175v1288q0 73 -48 121q-4 4 -17 10t-13 25t13 19h324q13 0 13 -17.5t-4.5 -21t-12.5 -7t-20.5 -16t-26.5 -46t-14 -67.5v-1301h664q113 0 147 26q18 12 28 27t15.5 15.5
t20 -4.5t14.5 -9t-14 -39l-32 -81q-18 -45 -24.5 -68.5t-17.5 -28.5h-1060q-13 0 -13 17.5t4.5 21t12.5 7t20.5 16t26.5 46t14 67.5z" />
    <glyph glyph-name="lacute" unicode="&#x13a;" horiz-adv-x="530" 
d="M362 2162q13 11 26 0l118 -71q11 -16 0 -31l-66 -71l-182 -218q-22 -25 -58 14q-6 6 1 16zM94 1471l1 18q0 5 5.5 8.5t6.5 4.5l180 133q4 3 10 3q44 0 44 -31v-1432q0 -7 -0.5 -22t-0.5 -21q6 -66 42 -78q36 -15 36 -26q0 -28 -13 -28h-294q-13 0 -13 18t8 23t21 10
t20.5 12.5t13.5 17t9 16t4.5 19t1.5 16.5v1257q0 33 -15.5 46.5t-33.5 14.5t-24 6q-9 6 -9 15z" />
    <glyph glyph-name="Lcommaaccent" unicode="&#x13b;" horiz-adv-x="1301" 
d="M588 -310q-43 39 -26 62l112 121q13 11 26 0l116 -121q11 -16 0 -31l-66 -71l-182 -218q-21 -25 -58 14q-7 7 37.5 66t58.5 79q28 39 2 81q-2 1 -20 18zM193 175v1288q0 73 -48 121q-4 4 -17 10t-13 25t13 19h324q13 0 13 -17.5t-4.5 -21t-12.5 -7t-20.5 -16t-26.5 -46
t-14 -67.5v-1301h664q113 0 147 26q18 12 28 27t15.5 15.5t20 -4.5t14.5 -9t-14 -39l-32 -81q-18 -45 -24.5 -68.5t-17.5 -28.5h-1060q-13 0 -13 17.5t4.5 21t12.5 7t20.5 16t26.5 46t14 67.5z" />
    <glyph glyph-name="lcommaaccent" unicode="&#x13c;" horiz-adv-x="530" 
d="M183 -310q-43 39 -26 62l112 121q13 11 26 0l116 -121q11 -16 0 -31l-66 -71l-182 -218q-21 -25 -58 14q-7 7 37.5 66t58.5 79q28 39 2 81q-2 1 -20 18zM94 1471l1 18q0 5 5.5 8.5t6.5 4.5l180 133q4 3 10 3q44 0 44 -31v-1432q0 -7 -0.5 -22t-0.5 -21q6 -66 42 -78
q36 -15 36 -26q0 -28 -13 -28h-294q-13 0 -13 18t8 23t21 10t20.5 12.5t13.5 17t9 16t4.5 19t1.5 16.5v1257q0 33 -15.5 46.5t-33.5 14.5t-24 6q-9 6 -9 15z" />
    <glyph glyph-name="Lcaron" unicode="&#x13d;" horiz-adv-x="1301" 
d="M667 1484q-43 39 -26 62l112 121q13 11 26 0l116 -121q11 -16 0 -31l-66 -71l-182 -218q-21 -25 -58 14q-7 7 37.5 66t58.5 79q28 39 2 81q-2 1 -20 18zM193 175v1288q0 73 -48 121q-4 4 -17 10t-13 25t13 19h324q13 0 13 -17.5t-4.5 -21t-12.5 -7t-20.5 -16t-26.5 -46
t-14 -67.5v-1301h664q113 0 147 26q18 12 28 27t15.5 15.5t20 -4.5t14.5 -9t-14 -39l-32 -81q-18 -45 -24.5 -68.5t-17.5 -28.5h-1060q-13 0 -13 17.5t4.5 21t12.5 7t20.5 16t26.5 46t14 67.5z" />
    <glyph glyph-name="lcaron" unicode="&#x13e;" horiz-adv-x="563" 
d="M497 1450q-43 39 -26 62l112 121q13 11 26 0l116 -121q11 -16 0 -31l-66 -71l-182 -218q-21 -25 -58 14q-7 7 37.5 66t58.5 79q28 39 2 81q-2 1 -20 18zM69 1471l1 18q0 5 5.5 8.5t6.5 4.5l180 133q4 3 10 3q44 0 44 -31v-1432q0 -7 -0.5 -22t-0.5 -21q6 -66 42 -78
q36 -15 36 -26q0 -28 -13 -28h-294q-13 0 -13 18t8 23t21 10t20.5 12.5t13.5 17t9 16t4.5 19t1.5 16.5v1257q0 33 -15.5 46.5t-33.5 14.5t-24 6q-9 6 -9 15z" />
    <glyph glyph-name="Ldot" unicode="&#x13f;" horiz-adv-x="1301" 
d="M717 702q-14 -11 -26 0l-112 116q-11 15 0 31l112 121q13 11 26 0l116 -121q11 -16 0 -31zM193 175v1288q0 73 -48 121q-4 4 -17 10t-13 25t13 19h324q13 0 13 -17.5t-4.5 -21t-12.5 -7t-20.5 -16t-26.5 -46t-14 -67.5v-1301h664q113 0 147 26q18 12 28 27t15.5 15.5
t20 -4.5t14.5 -9t-14 -39l-32 -81q-18 -45 -24.5 -68.5t-17.5 -28.5h-1060q-13 0 -13 17.5t4.5 21t12.5 7t20.5 16t26.5 46t14 67.5z" />
    <glyph glyph-name="ldot" unicode="&#x140;" horiz-adv-x="722" 
d="M557 685q-14 -11 -26 0l-112 116q-11 15 0 31l112 121q13 11 26 0l116 -121q11 -16 0 -31zM69 1471l1 18q0 5 5.5 8.5t6.5 4.5l180 133q4 3 10 3q44 0 44 -31v-1432q0 -7 -0.5 -22t-0.5 -21q6 -66 42 -78q36 -15 36 -26q0 -28 -13 -28h-294q-13 0 -13 18t8 23t21 10
t20.5 12.5t13.5 17t9 16t4.5 19t1.5 16.5v1257q0 33 -15.5 46.5t-33.5 14.5t-24 6q-9 6 -9 15z" />
    <glyph glyph-name="Lslash" unicode="&#x141;" horiz-adv-x="1301" 
d="M68 706q0 17 6 20l119 63v674q0 73 -48 121q-4 4 -17 10t-13 25t13 19h324q13 0 13 -17.5t-4.5 -21t-12.5 -7t-20.5 -16t-26.5 -46t-14 -67.5v-571l168 89q8 4 16 0t9 -12v-129q0 -17 -5 -20l-188 -100v-572h664q113 0 147 26q18 12 28 27t15.5 15.5t20 -4.5t14.5 -8.5
t-14 -35.5l-32 -74q-18 -42 -24.5 -65.5t-17.5 -28.5h-1060q-13 0 -13 17.5t4.5 21t12.5 7.5t20.5 16t26.5 45.5t14 67.5v442l-99 -52q-8 -4 -16.5 0t-9.5 12v129z" />
    <glyph glyph-name="Nacute" unicode="&#x143;" horiz-adv-x="1921" 
d="M1062 2196q13 11 26 0l118 -71q11 -16 0 -31l-66 -71l-182 -218q-22 -25 -58 14q-6 6 1 16zM377 1638q9 0 17 -8l1118 -1186h7v1019q0 72 -49 121q-4 4 -17 10t-13 25t13 19h327q13 0 13 -17.5t-4.5 -21t-12.5 -7t-21 -16.5t-27.5 -46t-14.5 -67v-1410q0 -37 -9.5 -45
t-30.5 -8t-34 12l-1257 1334v-1171q0 -77 44 -121q4 -4 17 -10t13 -25t-13 -19h-322q-13 0 -13 17.5t4.5 21t12.5 7t13 8.5q50 50 50 121v1288q0 74 -47 121q-4 4 -17 10t-13 25t13 19h253z" />
    <glyph glyph-name="nacute" unicode="&#x144;" horiz-adv-x="1175" 
d="M708 1497q13 11 26 0l118 -71q11 -16 0 -31l-66 -71l-182 -218q-22 -25 -58 14q-6 6 1 16zM102 0q-13 0 -13 18t8.5 23t21 10t19.5 12q31 31 30.5 69.5t-0.5 42.5v529q0 32 -16 46t-34 15t-23.5 5.5t-7 8.5t-2 7t0 9t0.5 9t1.5 5t5.5 4.5t5 3.5l180 133q4 3 22 3t26 -4.5
t8 -26.5v-74l51 30l30 15q139 70 260 70t238 -86q53 -39 86.5 -94.5t33.5 -115.5v-535q0 -22 12 -46.5t39 -35.5t27 -22q0 -28 -13 -28h-293q-13 0 -13 18t8.5 23t21 10t21 13t14.5 18t8.5 23.5t3 20t0 25t-0.5 24.5v467q0 60 -40 105q-77 84 -216 84t-279 -70v-629
q0 -22 12 -46.5t39 -35.5t27 -22q0 -28 -13 -28h-296z" />
    <glyph glyph-name="Ncommaaccent" unicode="&#x145;" horiz-adv-x="1921" 
d="M830 -310q-43 39 -26 62l112 121q13 11 26 0l116 -121q11 -16 0 -31l-66 -71l-182 -218q-21 -25 -58 14q-7 7 37.5 66t58.5 79q28 39 2 81q-2 1 -20 18zM377 1638q9 0 17 -8l1118 -1186h7v1019q0 72 -49 121q-4 4 -17 10t-13 25t13 19h327q13 0 13 -17.5t-4.5 -21
t-12.5 -7t-21 -16.5t-27.5 -46t-14.5 -67v-1410q0 -37 -9.5 -45t-30.5 -8t-34 12l-1257 1334v-1171q0 -77 44 -121q4 -4 17 -10t13 -25t-13 -19h-322q-13 0 -13 17.5t4.5 21t12.5 7t13 8.5q50 50 50 121v1288q0 74 -47 121q-4 4 -17 10t-13 25t13 19h253z" />
    <glyph glyph-name="ncommaaccent" unicode="&#x146;" horiz-adv-x="1175" 
d="M530 -310q-43 39 -26 62l112 121q13 11 26 0l116 -121q11 -16 0 -31l-66 -71l-182 -218q-21 -25 -58 14q-7 7 37.5 66t58.5 79q28 39 2 81q-2 1 -20 18zM102 0q-13 0 -13 18t8.5 23t21 10t19.5 12q31 31 30.5 69.5t-0.5 42.5v529q0 32 -16 46t-34 15t-23.5 5.5t-7 8.5
t-2 7t0 9t0.5 9t1.5 5t5.5 4.5t5 3.5l180 133q4 3 22 3t26 -4.5t8 -26.5v-74l51 30l30 15q139 70 260 70t238 -86q53 -39 86.5 -94.5t33.5 -115.5v-535q0 -22 12 -46.5t39 -35.5t27 -22q0 -28 -13 -28h-293q-13 0 -13 18t8.5 23t21 10t21 13t14.5 18t8.5 23.5t3 20t0 25
t-0.5 24.5v467q0 60 -40 105q-77 84 -216 84t-279 -70v-629q0 -22 12 -46.5t39 -35.5t27 -22q0 -28 -13 -28h-296z" />
    <glyph glyph-name="Ncaron" unicode="&#x147;" horiz-adv-x="1921" 
d="M958 1796q-8 -5 -17 0l-249 308q-10 9 -6 15q24 45 52 28l211 -150l212 150q29 18 52 -29q3 -6 -5 -14zM377 1638q9 0 17 -8l1118 -1186h7v1019q0 72 -49 121q-4 4 -17 10t-13 25t13 19h327q13 0 13 -17.5t-4.5 -21t-12.5 -7t-21 -16.5t-27.5 -46t-14.5 -67v-1410
q0 -37 -9.5 -45t-30.5 -8t-34 12l-1257 1334v-1171q0 -77 44 -121q4 -4 17 -10t13 -25t-13 -19h-322q-13 0 -13 17.5t4.5 21t12.5 7t13 8.5q50 50 50 121v1288q0 74 -47 121q-4 4 -17 10t-13 25t13 19h253z" />
    <glyph glyph-name="ncaron" unicode="&#x148;" horiz-adv-x="1175" 
d="M604 1098q-8 -5 -17 0l-249 308q-10 9 -6 15q24 45 52 28l211 -150l212 150q29 18 52 -29q3 -6 -5 -14zM102 0q-13 0 -13 18t8.5 23t21 10t19.5 12q31 31 30.5 69.5t-0.5 42.5v529q0 32 -16 46t-34 15t-23.5 5.5t-7 8.5t-2 7t0 9t0.5 9t1.5 5t5.5 4.5t5 3.5l180 133
q4 3 22 3t26 -4.5t8 -26.5v-74l51 30l30 15q139 70 260 70t238 -86q53 -39 86.5 -94.5t33.5 -115.5v-535q0 -22 12 -46.5t39 -35.5t27 -22q0 -28 -13 -28h-293q-13 0 -13 18t8.5 23t21 10t21 13t14.5 18t8.5 23.5t3 20t0 25t-0.5 24.5v467q0 60 -40 105q-77 84 -216 84
t-279 -70v-629q0 -22 12 -46.5t39 -35.5t27 -22q0 -28 -13 -28h-296z" />
    <glyph glyph-name="Omacron" unicode="&#x14c;" horiz-adv-x="1892" 
d="M1260 1808q0 -14 -17 -14h-638q-17 0 -17 14v122q0 14 17 14h638q17 0 17 -14v-122zM743 170q98 -39 192 -39q320 0 509.5 187.5t189.5 503.5q0 109 -55.5 229t-148.5 219.5t-227.5 164.5t-304.5 65t-321 -86t-233 -238t-82 -352.5t146.5 -389.5t334.5 -264zM146 494.5
q-66 160.5 -66 332t69.5 327t184 269t270 181.5t308.5 68t286 -40q263 -79 438.5 -294.5t175.5 -506.5q0 -171 -62 -327t-173.5 -276.5t-281 -192.5t-357.5 -72t-345 69t-269 185.5t-178 277z" />
    <glyph glyph-name="omacron" unicode="&#x14d;" horiz-adv-x="1104" 
d="M907 1110q0 -14 -17 -14h-638q-17 0 -17 14v122q0 14 17 14h638q17 0 17 -14v-122zM230 689.5q-31 -66.5 -31 -168.5t56.5 -204t155 -161.5t196 -59.5t159 44t94 114t32.5 154q0 177 -112.5 304t-301.5 127q-87 0 -152 -41.5t-96 -108zM95.5 276q-40.5 90 -40.5 213
t63 239t181 181t245 65q232 0 369 -145.5t137.5 -353.5t-144.5 -350.5t-366 -142.5q-94 0 -182.5 38t-155 102t-107 154z" />
    <glyph glyph-name="Obreve" unicode="&#x14e;" horiz-adv-x="1892" 
d="M1124.5 1880q-81.5 -86 -194 -86t-200.5 88t-88 207q0 9 22.5 14.5t29.5 -1.5q44 -117 146 -167q40 -20 86 -20t88 19.5t79.5 61.5t53.5 86l7 20q6 6 29 1t23 -14q0 -123 -81.5 -209zM743 170q98 -39 192 -39q320 0 509.5 187.5t189.5 503.5q0 109 -55.5 229
t-148.5 219.5t-227.5 164.5t-304.5 65t-321 -86t-233 -238t-82 -352.5t146.5 -389.5t334.5 -264zM146 494.5q-66 160.5 -66 332t69.5 327t184 269t270 181.5t308.5 68t286 -40q263 -79 438.5 -294.5t175.5 -506.5q0 -171 -62 -327t-173.5 -276.5t-281 -192.5t-357.5 -72
t-345 69t-269 185.5t-178 277z" />
    <glyph glyph-name="obreve" unicode="&#x14f;" horiz-adv-x="1104" 
d="M771.5 1182q-81.5 -86 -194 -86t-200.5 88t-88 207q0 9 22.5 14.5t29.5 -1.5q44 -117 146 -167q40 -20 86 -20t88 19.5t79.5 61.5t53.5 86l7 20q6 6 29 1t23 -14q0 -123 -81.5 -209zM230 689.5q-31 -66.5 -31 -168.5t56.5 -204t155 -161.5t196 -59.5t159 44t94 114
t32.5 154q0 177 -112.5 304t-301.5 127q-87 0 -152 -41.5t-96 -108zM95.5 276q-40.5 90 -40.5 213t63 239t181 181t245 65q232 0 369 -145.5t137.5 -353.5t-144.5 -350.5t-366 -142.5q-94 0 -182.5 38t-155 102t-107 154z" />
    <glyph glyph-name="OE" unicode="&#x152;" horiz-adv-x="2209" 
d="M1883 981q73 0 121 48q4 4 10 17t25 13t19 -13v-292q0 -13 -17.5 -13t-21 4.5t-7 12.5t-16 20.5t-46 26.5t-67.5 14l-631 -4v-653h664q141 0 170 48q14 20 20 20.5t20.5 -4.5t14.5 -9t-14 -39l-32 -81q-18 -45 -24.5 -68.5t-17.5 -28.5h-1129q-234 0 -427.5 107.5
t-305 298.5t-111.5 444.5t168 461.5t416 286q126 40 260 40h1129q10 0 17 -26t25 -70l32 -78q14 -34 14 -38t-14.5 -9t-19 -5t-9.5 5.5t-11.5 15t-32 29.5t-138.5 19h-664v-500h631zM1058 160v1316h-134q-299 0 -480.5 -177t-181.5 -468q0 -127 57 -250t149 -215t216 -149
t251 -57h123z" />
    <glyph glyph-name="oe" unicode="&#x153;" horiz-adv-x="1883" 
d="M1608 695q-59 169 -255 169q-87 0 -161 -47t-114.5 -121t-40.5 -139t4 -64l565 197v6zM1063 387q43 -117 145 -184.5t232 -67.5q166 0 301 155q15 15 62 -21q3 -2 -1 -9q-68 -126 -177 -202t-238.5 -76t-238.5 60.5t-176 162.5q-67 -104 -180 -163.5t-229.5 -59.5
t-205 38t-155 102t-107 154t-40.5 213t63 239t181 181t258 65t245 -59.5t170 -161.5q66 105 178.5 163t258.5 58q190 0 334 -174q73 -88 74 -140zM230 689.5q-31 -66.5 -31 -168.5t56.5 -204t155 -161.5t196 -59.5t159 44t94 114t32.5 154q0 177 -112.5 304t-301.5 127
q-87 0 -152 -41.5t-96 -108z" />
    <glyph glyph-name="longs" unicode="&#x17f;" horiz-adv-x="854" 
d="M658 1370l8 58q0 20 -31 51.5t-80.5 31.5t-104.5 -32.5t-98.5 -84t-71.5 -122t-28 -141.5v-999q0 -20 12.5 -45.5t39 -36.5t26.5 -22q0 -28 -13 -28h-295q-13 0 -13 18t8.5 23t21 10t20 12.5t13.5 17t9 16t4.5 19t2 17t0 21t-0.5 21.5v1005q0 122 93.5 249t229.5 179
q75 29 153 29q158 0 268 -110q26 -28 2 -51l-134 -124q-7 -6 -24 0.5t-17 17.5z" />
    <glyph glyph-name="uni0237" unicode="&#x237;" horiz-adv-x="454" 
d="M213 704q0 32 -16.5 46t-34.5 15t-24.5 6t-6.5 20.5t1.5 17.5t5.5 4.5t5 3.5l180 133q7 5 12 2.5t17 -4.5q25 -4 26 -26v-747q0 -18 2 -85t-3 -98.5t-44 -88.5q-128 -190 -146 -208.5t-42 -40t-46 -21.5t-29.5 3.5t-9.5 9.5t-1 13q2 11 16 34q106 171 128 291
q9 49 10 102v618z" />
    <glyph glyph-name="caron" unicode="&#x2c7;" horiz-adv-x="708" 
d="M360 1035q-8 -5 -17 0l-249 308q-10 9 -6 15q24 45 52 28l211 -150l212 150q29 18 52 -29q3 -6 -5 -14z" />
    <glyph glyph-name="breve" unicode="&#x2d8;" horiz-adv-x="744" 
d="M572.5 1118q-81.5 -86 -194 -86t-200.5 88t-88 207q0 9 22.5 14.5t29.5 -1.5q44 -117 146 -167q40 -20 86 -20t88 19.5t79.5 61.5t53.5 86l7 20q6 6 29 1t23 -14q0 -123 -81.5 -209z" />
    <glyph glyph-name="ring" unicode="&#x2da;" horiz-adv-x="578" 
d="M307 355q88 0 88 103q0 48 -35 91t-84 43t-74 -28.5t-25 -74t42.5 -90t87.5 -44.5zM148.5 336q-58.5 57 -58.5 142t56.5 141.5t143.5 56.5t142.5 -58t55.5 -141.5t-57.5 -140.5t-140.5 -57t-141.5 57z" />
    <glyph glyph-name="ogonek" unicode="&#x2db;" horiz-adv-x="415" 
d="M301 -281q1 2 15 -2t14 -11q-9 -48 -59.5 -84.5t-112.5 -26t-103 68t-30 119t56 97.5t100 30l-51 90h77q-2 -2 -1 -3l72 -122q3 -9 0.5 -20.5t-7.5 -11.5q-32 11 -67 17t-67 -15.5t-40 -67t17 -75.5t64 -37q73 -13 123 54z" />
    <glyph glyph-name="endash" unicode="&#x2013;" horiz-adv-x="1024" 
d="M1024 703q0 -14 -17 -14h-990q-17 0 -17 14v122q0 14 17 14h990q17 0 17 -14v-122z" />
    <glyph glyph-name="emdash" unicode="&#x2014;" horiz-adv-x="2048" 
d="M2048 703q0 -14 -17 -14h-2014q-17 0 -17 14v122q0 14 17 14h2014q17 0 17 -14v-122z" />
    <glyph glyph-name="quoteleft" unicode="&#x2018;" horiz-adv-x="475" 
d="M296 1369q43 -39 26 -62l-112 -121q-13 -11 -26 0l-116 121q-11 16 0 31l66 71l182 218q21 25 58 -14q7 -7 -37.5 -65.5t-58.5 -78.5q-28 -39 -2 -82q2 -1 20 -18z" />
    <glyph glyph-name="quotedblleft" unicode="&#x201c;" horiz-adv-x="773" 
d="M286 1369q43 -39 26 -62l-112 -121q-13 -11 -26 0l-116 121q-11 16 0 31l66 71l182 218q21 25 58 -14q7 -7 -37.5 -65.5t-58.5 -78.5q-28 -39 -2 -82q2 -1 20 -18zM606 1369q43 -39 26 -62l-112 -121q-13 -11 -26 0l-116 121q-11 16 0 31l66 71l182 218q21 25 58 -14
q7 -7 -37.5 -65.5t-58.5 -78.5q-28 -39 -2 -82q2 -1 20 -18z" />
    <glyph glyph-name="bullet" unicode="&#x2022;" horiz-adv-x="448" 
d="M246 685q-14 -11 -26 0l-112 116q-11 15 0 31l112 121q13 11 26 0l116 -121q11 -16 0 -31z" />
    <glyph glyph-name="guilsinglleft" unicode="&#x2039;" horiz-adv-x="539" 
d="M98 1205h-1q-5 9 0 17h1l307 249q10 15 31 -3.5t19 -24.5l-6 -18l-150 -212l150 -211l6 -18q5 -14 -36 -34q-7 -4 -14 5z" />
    <glyph glyph-name="guilsinglright" unicode="&#x203a;" horiz-adv-x="539" 
d="M452 1222h1q5 -8 0 -17h-1l-307 -249q-10 -15 -31 3.5t-19 24.5l6 18l150 212l-150 211l-6 18q-5 14 36 34q7 4 14 -5z" />
    <glyph glyph-name="fraction" unicode="&#x2044;" horiz-adv-x="820" 
d="M25 182q1 15 8 30l724 1426q6 10 21 2.5t17 -20.5v-164q0 -10 -9 -30l-724 -1426q-6 -10 -20.5 -2.5t-16.5 20.5v164z" />
    <glyph glyph-name="Euro" unicode="&#x20ac;" horiz-adv-x="1850" 
d="M1006 114q226 0 404.5 102t293.5 274q13 21 20 13q18 -23 32 -46l14 -21q16 -24 12 -31q-60 -121 -201 -239q-262 -218 -570.5 -218t-526.5 179t-291 453h-153v150h127q-4 37 -4 77.5t3 72.5h-126v150h152q49 177 167 319.5t287 225t336 82.5q198 0 388 -73l46 -17
q11 -4 28.5 8t38 12t31.5 -19q4 -3 3 -21q-2 -29 23 -133l26 -110q10 -44 10 -55q0 -6 -25.5 -18.5t-29.5 -5.5q-83 145 -208.5 200t-306.5 55q-234 0 -401.5 -122t-228.5 -328h650v-150h-677q-3 -32 -3 -71.5t7 -78.5h673v-150h-631q80 -195 253.5 -330.5t357.5 -135.5z
" />
    <glyph glyph-name="minus" unicode="&#x2212;" horiz-adv-x="1186" 
d="M1086 817q0 -14 -17 -14h-952q-17 0 -17 14v122q0 14 17 14h952q17 0 17 -14v-122z" />
    <glyph glyph-name="ndieresis" unicode="&#xe211;" horiz-adv-x="1175" 
d="M792 1036q-12 -10 -22 0l-90 93q-9 12 0 24l90 97q11 11 22 0l92 -97q10 -13 0 -24zM452 1036q-12 -10 -22 0l-90 93q-9 12 0 24l90 97q11 11 22 0l92 -97q10 -13 0 -24zM76 0q-13 0 -13 18t8.5 23t21 10t19.5 12q31 31 30.5 69.5t-0.5 42.5v529q0 32 -16 46t-34 15
t-23.5 5.5t-7 8.5t-2 7t0 9t0.5 9t1.5 5t5.5 4.5t5 3.5l180 133q4 3 22 3t26 -4.5t8 -26.5v-74l51 30l30 15q139 70 260 70t238 -86q53 -39 86.5 -94.5t33.5 -115.5v-535q0 -22 12 -46.5t39 -35.5t27 -22q0 -28 -13 -28h-293q-13 0 -13 18t8.5 23t21 10t21 13t14.5 18
t8.5 23.5t3 20t0 25t-0.5 24.5v467q0 60 -40 105q-77 84 -216 84t-279 -70v-629q0 -22 12 -46.5t39 -35.5t27 -22q0 -28 -13 -28h-296z" />
    <glyph glyph-name="J.swash" unicode="&#xe21c;" horiz-adv-x="1164" 
d="M951 380q0 -48 -47 -121q-78 -123 -197.5 -211t-273.5 -87q-101 0 -192 45.5t-146 122t-55 159.5t9 128.5t23.5 93.5t12.5 62q-3 14 -8.5 25t-0.5 21q17 22 27 14l257 -197q10 -8 -0.5 -22t-16 -14t-14 2.5t-29 -0.5t-52 -24.5t-31.5 -54.5q0 -81 59.5 -138.5
t139.5 -57.5t146 40t108 104q88 136 87 298v895q0 73 -48 121q-4 4 -17 10t-13 25t13 19h324q13 0 13 -17.5t-4.5 -21t-12.5 -7t-20.5 -16t-26.5 -46t-14 -67.5v-1083z" />
    <glyph glyph-name="Q.uswash" unicode="&#xe21e;" horiz-adv-x="1892" 
d="M2946 -212q21 0 21 -21.5t-35 -43.5q-255 -145 -590 -145t-602 186q-25 18 -128 108t-175 142t-100 39q-188 -90 -387.5 -90t-356.5 69t-269 185.5t-178 277t-66 332t69.5 327t184 269t270 181.5t308.5 68t286 -40q263 -79 438.5 -294.5t175.5 -506.5q0 -203 -91 -393.5
t-250 -306.5l38 -13q87 -30 156 -67t220.5 -143t306 -171.5t346 -65.5t383.5 105q22 12 25 12zM743 170q98 -39 192 -39q320 0 509.5 187.5t189.5 503.5q0 109 -55.5 229t-148.5 219.5t-227.5 164.5t-304.5 65t-321 -86t-233 -238t-82 -352.5t146.5 -389.5t334.5 -264z" />
    <glyph glyph-name="Q.Uswash" unicode="&#xe21f;" horiz-adv-x="1892" 
d="M1895 -275q-314 198 -345.5 216t-98.5 60q-96 60 -114 52q-188 -90 -387.5 -90t-356.5 69t-269 185.5t-178 277t-66 332t69.5 327t184 269t270 181.5t308.5 68t286 -40q263 -79 438.5 -294.5t175.5 -506.5q0 -196 -85 -383.5t-210 -278.5q1 -1 6 -8.5t16.5 -19t72 -28.5
t158.5 -73l219 -124q407 -230 787 -230q236 0 450 120q25 14 31.5 14t18 -11t11.5 -20q0 -35 -25 -47q-161 -82 -298 -125t-339.5 -43t-405 37.5t-324.5 113.5zM743 170q98 -39 192 -39q320 0 509.5 187.5t189.5 503.5q0 109 -55.5 229t-148.5 219.5t-227.5 164.5t-304.5 65
t-321 -86t-233 -238t-82 -352.5t146.5 -389.5t334.5 -264z" />
    <glyph glyph-name="R.swash" unicode="&#xe220;" horiz-adv-x="1869" 
d="M438 1474q-21 0 -36 -14.5t-15 -35.5v-1249q0 -73 48 -121q4 -4 17 -10t13 -25t-13 -19h-324q-13 0 -13 17.5t4.5 21t12.5 7t20.5 16t26.5 46t14 67.5v1288q0 73 -48 121q-4 4 -17 10t-13 24t13 18h513q220 -2 368.5 -94.5t148.5 -300.5q0 -107 -72.5 -189t-152 -126
t-131.5 -66l-20 -8q188 -54 453 -208q389 -226 553 -512q56 -97 56 -104q0 -28 -13 -28h-324q-13 0 -13 17.5t4.5 21t12.5 7t13.5 9.5t5 23.5t-4.5 27.5q-56 137 -260 305t-436 282.5t-371 115.5q-2 18 -2 59v51q0 10 10 10q246 0 384 99q106 76 106 202.5t-101.5 185
t-231.5 58.5h-185z" />
    <glyph glyph-name="Y.swash" unicode="&#xe221;" horiz-adv-x="1696" 
d="M744 695q0 26 -56.5 146.5t-167.5 293t-227 283.5q-40 38 -109 84l-115 73q-46 28 -46 35q0 28 13 28q143 0 307 -98q95 -58 249 -226q73 -80 132 -172l119 -189h20q4 6 32 53l45 74q66 104 109 159l89 109q73 85 155 147.5t133 86.5q118 56 232 56q13 0 13 -28
q0 -7 -46 -35l-115 -73q-69 -46 -109 -84q-116 -111 -227 -283.5t-167.5 -293t-56.5 -146.5v-520q0 -73 48 -121q4 -4 17 -10t13 -25t-13 -19h-337q-13 0 -13 17.5t4.5 21t12.5 7t21 16.5t27 46t14 67v520z" />
    <glyph glyph-name="ct" unicode="&#xf520;" horiz-adv-x="1474" 
d="M1028 956q22 15 22 98t-42.5 149t-101 66t-96.5 -18q-69 -33 -90.5 -107t-21.5 -141t17.5 -107.5t35 -73.5t17.5 -45.5t-19 -25t-26 -12.5t-11 5q-50 71 -92.5 95.5t-117.5 24.5t-148.5 -47t-114 -121t-40.5 -174.5t54 -194t145.5 -143t193.5 -49.5q195 0 313 127
q13 14 56 -29q3 -2 -1 -9q-137 -242 -420 -242q-94 0 -182.5 38t-155 102t-107 154t-40.5 212t64.5 239t179.5 182t259 65q20 0 20 124q0 73 46 140t121 107.5t165 40.5t167 -60q154 -121 154 -373h177q51 0 51 -13v-88q0 -13 -51 -13h-177v-621q0 -119 70 -133
q53 -11 110 40q23 21 32 10t13 -17t4.5 -11.5t0.5 -8.5t-5 -9t-6 -8l-21 -18q-104 -90 -200 -82t-135 115q-21 58 -21 141v602h-46q-51 0 -51 13v89q0 10 12 11z" />
    <glyph glyph-name="uniFB00" unicode="&#xfb00;" horiz-adv-x="1483" 
d="M714 1316l8 58q0 55 -38.5 96t-91.5 41t-108 -32.5t-98.5 -84t-71.5 -122t-28 -141.5v-178h430v227q0 53 22 116q-24 6 -24 20zM56 0q-13 0 -13 18t8.5 23t21 10t20 12.5t13.5 17t9 16t4.5 19t2 17t0 21t-0.5 21.5v664h-61q-40 0 -51 13v88q10 13 51 13h61v227
q0 122 93.5 249t229.5 179q75 29 143.5 29t121.5 -13q75 -17 127 -53t56 -52q137 118 297.5 118t270.5 -110q26 -28 2 -51l-134 -124q-7 -6 -24 0.5t-17 17.5l8 58q0 20 -31 51.5t-80.5 31.5t-104.5 -32.5t-98.5 -84t-71.5 -122t-28 -141.5v-178h387q41 0 51 -13v-88
q-11 -13 -51 -13h-387v-707q0 -20 12.5 -45.5t39 -36.5t26.5 -22q0 -28 -13 -28h-295q-13 0 -13 18t8.5 23t21 10t20 12.5t13.5 17t9 16t4.5 19t2 17t0 21t-0.5 21.5v664h-430v-707q0 -20 12.5 -45.5t39 -36.5t26.5 -22q0 -28 -13 -28h-295z" />
    <glyph glyph-name="uniFB01" unicode="&#xfb01;" horiz-adv-x="1095" 
d="M811 953l56 33q44 0 44 -31v-823q0 -20 12.5 -45.5t39 -36.5t26.5 -22q0 -28 -13 -28h-296q-13 0 -13 18t8.5 23t21 10t19.5 12q31 31 30.5 69.5t-0.5 42.5v615q0 49 -31 49h-429v-707q0 -20 12.5 -45.5t39 -36.5t26.5 -22q0 -28 -13 -28h-295q-13 0 -13 18t8.5 23t21 10
t20 12.5t13.5 17t9 16t4.5 19t2 17t0 21t-0.5 21.5v664h-61q-40 0 -51 13v88q10 13 51 13h61v227q0 122 93.5 249t229.5 179q75 29 137 29t109.5 -15.5t81.5 -34.5q70 -40 119 -89l33 -34q26 -28 2 -51l-122 -145q-7 -6 -28 3.5t-21 20.5l8 99q0 120 -171 120
q-53 0 -108 -32.5t-98.5 -84t-71.5 -122t-28 -141.5v-178h525z" />
    <glyph glyph-name="uniFB02" unicode="&#xfb02;" horiz-adv-x="1079" 
d="M844 1638q45 0 45 -31v-1475q0 -22 10.5 -46.5t38.5 -35.5t28 -22q0 -28 -13 -28h-294q-13 0 -13 18t8.5 23t21 10t20 12.5t13.5 17t9 16t4.5 19t2 17t0 21t-0.5 21.5v677q-11 -13 -51 -13h-387v-707q0 -20 12.5 -45.5t39 -36.5t26.5 -22q0 -28 -13 -28h-295
q-13 0 -13 18t8.5 23t21 10t20 12.5t13.5 17t9 16t4.5 19t2 17t0 21t-0.5 21.5v664h-61q-40 0 -51 13v88q10 13 51 13h61v232q0 122 93.5 249t229.5 179q75 29 139 29t106.5 -12t65.5 -24t28 -12t31 22t30 22zM286 1131v-178h387q41 0 51 -13v409q0 115 -88 153
q-22 9 -59.5 9t-92.5 -32.5t-98.5 -84t-71.5 -122t-28 -141.5z" />
    <glyph glyph-name="uniFB03" unicode="&#xfb03;" horiz-adv-x="1690" 
d="M714 1316l8 58q0 55 -38.5 96t-91.5 41t-108 -32.5t-98.5 -84t-71.5 -122t-28 -141.5v-178h430v227q0 53 22 116q-24 6 -24 20zM1408 953l54 33q44 0 44 -31v-823q0 -20 12.5 -45.5t39 -36.5t26.5 -22q0 -28 -13 -28h-296q-13 0 -13 18t8.5 23t21 10t19.5 12
q31 31 30.5 69.5t-0.5 42.5v615q0 49 -31 49h-429v-707q0 -20 12.5 -45.5t39 -36.5t26.5 -22q0 -28 -13 -28h-295q-13 0 -13 18t8.5 23t21 10t20 12.5t13.5 17t9 16t4.5 19t2 17t0 21t-0.5 21.5v664h-430v-707q0 -20 12.5 -45.5t39 -36.5t26.5 -22q0 -28 -13 -28h-295
q-13 0 -13 18t8.5 23t21 10t20 12.5t13.5 17t9 16t4.5 19t2 17t0 21t-0.5 21.5v664h-61q-40 0 -51 13v88q10 13 51 13h61v227q0 122 93.5 249t229.5 179q75 29 143.5 29t121.5 -13q75 -17 127 -53t56 -52q137 118 293 118t301 -139l33 -34q26 -28 2 -51l-122 -145
q-7 -6 -28 3.5t-21 20.5l8 99q0 120 -171 120q-53 0 -108 -32.5t-98.5 -84t-71.5 -122t-28 -141.5v-178h527z" />
    <glyph glyph-name="uniFB04" unicode="&#xfb04;" horiz-adv-x="1674" 
d="M56 0q-13 0 -13 18t8.5 23t21 10t20 12.5t13.5 17t9 16t4.5 19t2 17t0 21t-0.5 21.5v664h-61q-40 0 -51 13v88q10 13 51 13h61v227q0 122 93.5 249t229.5 179q75 29 143.5 29t121.5 -13q75 -17 127 -53t56 -52q137 118 300 118q88 0 134.5 -21.5t51.5 -21.5t31 22t30 22
q30 0 37.5 -4.5t7.5 -26.5v-1475q0 -26 6 -36q15 -35 43 -46t28 -22q0 -28 -13 -28h-294q-13 0 -13 18t8.5 23t21 10t20 12.5t13.5 17t9 16t4.5 19t2 17t0 21t-0.5 21.5v677q-11 -13 -51 -13h-387v-707q0 -20 12.5 -45.5t39 -36.5t26.5 -22q0 -28 -13 -28h-295q-13 0 -13 18
t8.5 23t21 10t20 12.5t13.5 17t9 16t4.5 19t2 17t0 21t-0.5 21.5v664h-430v-707q0 -20 12.5 -45.5t39 -36.5t26.5 -22q0 -28 -13 -28h-295zM714 1316l8 58q0 55 -38.5 96t-91.5 41t-108 -32.5t-98.5 -84t-71.5 -122t-28 -141.5v-178h430v227q0 53 22 116q-24 6 -24 20z
M1231 1502q-22 9 -59.5 9t-92.5 -32.5t-98.5 -84t-71.5 -122t-28 -141.5v-178h387q41 0 51 -13v409q1 116 -88 153z" />
    <glyph glyph-name="uniFB05" unicode="&#xfb05;" horiz-adv-x="1059" 
d="M22 0q-13 0 -13 18t8.5 23t21 10t20 12.5t13.5 17t9 16t4.5 19t2 17t0 21t-0.5 21.5v1005q0 127 65 243q119 214 341 214q327 0 327 -491v-193h177q51 0 51 -13v-88q0 -13 -51 -13h-177v-621q0 -119 71 -133q53 -11 109 40q23 21 32.5 10t13.5 -17t4 -11.5v-8.5
q1 -5 -11 -17l-21 -18q-104 -90 -199.5 -82t-134.5 115q-21 58 -22 141v602h-46q-51 0 -51 13v89q0 10 26 13l26 2q40 27 49.5 67t9.5 109.5t-4 117.5q-11 113 -54 191.5t-121 78.5t-133 -57q-112 -116 -112 -332v-999q0 -20 12.5 -45.5t39 -36.5t26.5 -22q0 -28 -13 -28
h-295z" />
    <glyph glyph-name="st" unicode="&#xfb06;" horiz-adv-x="1325" 
d="M439 858q-34 15 -79 15t-93 -32t-48 -82.5t39 -81t88.5 -56.5t71.5 -40l139 -80q76 -45 102 -82q52 -73 52 -149q0 -148 -101 -219.5t-235 -71.5q-77 0 -154 16t-87.5 18t-16.5 3t-9 2q-18 3 -24 17q-26 71 -26 161q0 12 13.5 19.5t26.5 7.5q19 0 40.5 -28.5t110 -63.5
t158 -35t113 35t43.5 92q0 80 -98 132l-179 96q-73 41 -98 63q-65 57 -89 104.5t-24 109.5q0 122 90.5 183t248.5 62q20 0 20 124q0 67 46 134.5t121.5 111t167.5 43.5t168 -59q150 -116 150 -374h177q51 0 51 -13v-88q0 -13 -51 -13h-177v-621q0 -119 70 -133
q53 -11 110 40q23 21 32.5 10t13.5 -17t4 -11.5t1 -8.5q0 -5 -12 -17l-21 -18q-104 -90 -199.5 -82t-135.5 115q-21 58 -21 141v602h-46q-51 0 -51 13v89q0 10 26 13l26 2q22 15 22 79t-17 114t-52.5 85t-77 35t-72.5 -9t-51.5 -23.5t-35.5 -38.5q-43 -67 -43 -200
q0 -53 17.5 -93.5t35 -73.5t17.5 -45.5t-18.5 -25t-25.5 -12.5t-15 10t-23.5 24.5t-43.5 37.5t-62 38z" />
    </font>
</defs>
</svg>
